<svg xmlns="http://www.w3.org/2000/svg" xmlns:xlink="http://www.w3.org/1999/xlink" width="79.596" height="76.192" viewBox="0 0 79.596 76.192">
  <defs>
    <linearGradient id="linear-gradient" x1="0.5" x2="0.5" y2="1" gradientUnits="objectBoundingBox">
      <stop offset="0" stop-color="#ffb369"/>
      <stop offset="1" stop-color="#ff4272"/>
    </linearGradient>
  </defs>
  <g id="_1_logo" data-name="1 logo" transform="translate(-0.847 -0.847)">
    <path id="Path" d="M79.6,48.936H0V0H9.7V1.693H1.694v45.55H77.9V1.693H52.191V0H79.6Z" transform="translate(0.847 17.201)"/>
    <rect id="Rectangle" width="44.262" height="1.693" transform="translate(20.283 75.346)"/>
    <rect id="Rectangle-2" data-name="Rectangle" width="1.694" height="10.901" transform="translate(39.798 65.291)"/>
    <path id="Shape" d="M7.98,25.315H0V0H7.98V25.314ZM1.694,1.693V23.621H6.287V1.693Z" transform="translate(9.699 35.371)"/>
    <path id="Shape-2" data-name="Shape" d="M7.979,15.075H0V0H7.979V15.074ZM1.694,1.693V13.381H6.286V1.693Z" transform="translate(22.273 45.611)"/>
    <path id="Shape-3" data-name="Shape" d="M7.98,19.863H0V0H7.98V19.862ZM1.694,1.693V18.17H6.287V1.693Z" transform="translate(36.942 40.823)"/>
    <path id="Shape-4" data-name="Shape" d="M7.979,27.889H0V0H7.979V27.888ZM1.694,1.693V26.2H6.286V1.693Z" transform="translate(51.611 32.797)"/>
    <path id="Shape-5" data-name="Shape" d="M7.98,33.908H0V0H7.98ZM1.694,1.693V32.215H6.287V1.693Z" transform="translate(66.28 26.778)"/>
    <g id="Group" transform="translate(11.855)">
      <path id="Shape-6" data-name="Shape" d="M22.84,36.672H15.555V31.766a14.752,14.752,0,0,1-3.717-1.478L8.2,33.757,3.017,28.819l3.654-3.483a13.388,13.388,0,0,1-1.517-3.488H0V14.825H5.154a13.423,13.423,0,0,1,1.131-2.807L2.431,8.73,7.319,3.522,11.163,6.8a14.63,14.63,0,0,1,4.392-1.892V0H22.84V4.908a14.745,14.745,0,0,1,3.715,1.478L30.2,2.917l5.181,4.937-3.655,3.482a13.429,13.429,0,0,1,1.517,3.488h5.155v7.023H33.239a13.379,13.379,0,0,1-1.131,2.807l3.855,3.288-4.888,5.208-3.843-3.277a14.632,14.632,0,0,1-4.391,1.891v4.907ZM11.611,28.166h0l.556.348a13.048,13.048,0,0,0,4.4,1.743l.683.134v4.588h3.9V30.391l.682-.134a12.977,12.977,0,0,0,4.977-2.137l.536-.377,3.6,3.073,2.57-2.739L29.927,25.02,30.3,24.4a11.7,11.7,0,0,0,1.448-3.583l.145-.666H36.7V16.519H31.893l-.145-.667a11.74,11.74,0,0,0-1.817-4.163l-.409-.593,3.4-3.241L30.2,5.255,26.783,8.507l-.556-.348a13.133,13.133,0,0,0-4.4-1.743l-.681-.135V1.693h-3.9V6.282l-.682.133a13,13,0,0,0-4.977,2.137l-.536.377-3.6-3.073L4.881,8.6l3.586,3.057-.374.616a11.709,11.709,0,0,0-1.448,3.583l-.145.667H1.694v3.636H6.5l.145.666a11.75,11.75,0,0,0,1.817,4.163l.409.595-3.4,3.24,2.728,2.6,3.411-3.253Z" transform="translate(0.432 0.847)" fill="url(#linear-gradient)"/>
      <path id="Shape-7" data-name="Shape" d="M7.919,15.174A7.767,7.767,0,0,1,0,7.588,7.768,7.768,0,0,1,7.919,0a7.768,7.768,0,0,1,7.92,7.588A7.767,7.767,0,0,1,7.919,15.174Zm0-13.481A6.074,6.074,0,0,0,1.694,7.588a6.073,6.073,0,0,0,6.225,5.893,6.073,6.073,0,0,0,6.226-5.893A6.074,6.074,0,0,0,7.919,1.693Z" transform="translate(11.709 11.596)" fill="#ff3d3c"/>
    </g>
  </g>
</svg>
