<svg xmlns="http://www.w3.org/2000/svg" xmlns:xlink="http://www.w3.org/1999/xlink" width="81.537" height="81.747" viewBox="0 0 81.537 81.747">
  <defs>
    <linearGradient id="linear-gradient" y1="0.5" x2="1" y2="0.5" gradientUnits="objectBoundingBox">
      <stop offset="0" stop-color="#ffb369"/>
      <stop offset="1" stop-color="#ff4272"/>
    </linearGradient>
  </defs>
  <g id="iconfinder_267_Python_4518675" transform="translate(0.58 0.787)">
    <path id="Path" d="M46.481,0H39.5V8.123A11.844,11.844,0,0,1,27.879,19.743H9.293A9.41,9.41,0,0,0,0,29.049V46.495c0,4.97,4.385,7.883,9.293,9.306a31.734,31.734,0,0,0,18.585,0c4.681-1.337,9.293-4.027,9.293-9.306V42.837H18.6V37.189H46.481c5.412,0,7.413-3.719,9.293-9.289,1.949-5.741,1.862-11.26,0-18.612C54.434,3.993,51.894,0,46.481,0Z" transform="translate(23.082 23.077)" fill="none" stroke="#000" stroke-linecap="round" stroke-linejoin="round" stroke-miterlimit="10" stroke-width="1.5"/>
    <path id="Path-2" data-name="Path" d="M3.011,0A3.01,3.01,0,1,1,0,3,3.008,3.008,0,0,1,3.011,0Z" transform="translate(48.171 69.232)" fill="url(#linear-gradient)"/>
    <path id="Path-3" data-name="Path" d="M29.265,37.3H47.89A9.341,9.341,0,0,0,57.2,27.931V10.341c0-5.006-4.255-8.752-9.313-9.6A58.072,58.072,0,0,0,29.265.76c-7.883,1.381-9.313,4.264-9.313,9.6v3.765H38.595v5.609H12.958a11.617,11.617,0,0,0-11.65,9.356C-.4,36.114-.471,40.5,1.308,47.835c1.325,5.455,4.482,9.356,9.906,9.356h6.4V48.767A11.782,11.782,0,0,1,29.265,37.3Z" fill="none" stroke="#000" stroke-linecap="round" stroke-linejoin="round" stroke-miterlimit="10" stroke-width="1.5"/>
    <path id="Path-4" data-name="Path" d="M3.011,6.02a3.01,3.01,0,1,1,3.011-3A3.008,3.008,0,0,1,3.011,6.02Z" transform="translate(27.096 4.013)" fill="url(#linear-gradient)"/>
  </g>
</svg>
