<svg xmlns="http://www.w3.org/2000/svg" xmlns:xlink="http://www.w3.org/1999/xlink" width="85.304" height="81.272" viewBox="0 0 85.304 81.272">
  <defs>
    <linearGradient id="linear-gradient" y1="0.5" x2="1" y2="0.5" gradientUnits="objectBoundingBox">
      <stop offset="0" stop-color="#ffb369"/>
      <stop offset="1" stop-color="#ff4272"/>
    </linearGradient>
  </defs>
  <g id="_5_logo" data-name="5 logo" transform="translate(0 0)">
    <path id="Shape" d="M56.2,50.169H0V0H56.2V50.168ZM1.254,14.249V48.924H54.946V14.249Zm12.871-13V13H54.946V1.245Zm-12.871,0V13H12.871V1.245Z" transform="translate(15.054 15.05)" fill="#1d1d1b"/>
    <path id="Shape-2" data-name="Shape" d="M34.122,6.02H0V0H34.122V6.019ZM1.255,1.362v3.3H32.868v-3.3Z" transform="translate(34.121 19.064)" fill="#1d1d1b"/>
    <path id="Shape-3" data-name="Shape" d="M3.512,7.024A3.512,3.512,0,1,1,7.025,3.513,3.515,3.515,0,0,1,3.512,7.024Zm0-5.806a2.295,2.295,0,1,0,2.295,2.3A2.3,2.3,0,0,0,3.512,1.218Z" transform="translate(18.064 19.064)" fill="#1d1d1b"/>
    <path id="Shape-4" data-name="Shape" d="M14.05,28.094H0V0H14.05V28.093ZM1.3,1.262v25.57H12.747V1.262Z" transform="translate(21.075 33.111)" fill="#1d1d1b"/>
    <path id="Shape-5" data-name="Shape" d="M27.1,11.037H0V0H27.1V11.036ZM1.27,1.293v8.45H25.826V1.293Z" transform="translate(37.132 33.111)" fill="#1d1d1b"/>
    <rect id="Rectangle" width="26.093" height="1.003" transform="translate(38.136 49.164)" fill="#1d1d1b"/>
    <rect id="Rectangle-2" data-name="Rectangle" width="26.093" height="1.003" transform="translate(38.136 54.181)" fill="#1d1d1b"/>
    <rect id="Rectangle-3" data-name="Rectangle" width="26.093" height="1.003" transform="translate(38.136 60.201)" fill="#1d1d1b"/>
    <path id="Shape-6" data-name="Shape" d="M6.993,33.111H0V26.3H2.867V2.792H27.129V0h6.993V6.811H27.129V4.019h-23V26.3H6.993V33.11ZM1.26,27.526v4.358H5.733V27.526Zm27.129-26.3V5.585h4.473V1.228Z" fill="url(#linear-gradient)"/>
    <path id="Shape-7" data-name="Shape" d="M6.993,33.111H0V26.3H6.993v2.792H30V6.811H27.129V0h6.993V6.811H31.255V30.318H6.993V33.11ZM1.26,27.526v4.358H5.734V27.526Zm27.129-26.3V5.585h4.473V1.227Z" transform="translate(51.182 48.161)" fill="url(#linear-gradient)"/>
  </g>
</svg>
