<?xml version="1.0" encoding="UTF-8"?>
<svg width="77px" height="80px" viewBox="0 0 77 80" version="1.1" xmlns="http://www.w3.org/2000/svg" xmlns:xlink="http://www.w3.org/1999/xlink">
    <!-- Generator: Sketch 57.1 (83088) - https://sketch.com -->
    <title>1 logo</title>
    <desc>Created with Sketch.</desc>
    <defs>
        <linearGradient x1="-1.11022302e-14%" y1="50%" x2="100%" y2="50%" id="linearGradient">
            <stop stop-color="#FFB369" offset="0%"></stop>
            <stop stop-color="#FF4272" offset="100%"></stop>
        </linearGradient>
    </defs>
    <g id="Welcome" stroke="none" stroke-width="1" fill="none" fill-rule="evenodd">
        <g id="Desktop" transform="translate(-173.000000, -1432.000000)" fill-rule="nonzero">
            <g id="Career-Coaching" transform="translate(98.000000, 1361.000000)">
                <g id="1" transform="translate(0.000000, 71.000000)">
                    <g id="1-logo" transform="translate(75.000000, 0.000000)">
                        <path d="M35.3359036,66.2946185 C36.0655422,66.2946185 36.7829719,66.1930924 37.4718072,66.002249 L33.1996787,66.002249 C33.8888353,66.1930924 34.6062651,66.2946185 35.3359036,66.2946185 Z" id="Path" fill="#DBDBDB"></path>
                        <g id="Group" transform="translate(10.281124, 7.389558)" fill="#020202">
                            <path d="M24.6644177,20.6692369 C29.6697189,20.6692369 33.7416867,16.5972691 33.7416867,11.5919679 L33.7416867,9.36257028 C33.7416867,4.35694779 29.6697189,0.28497992 24.6644177,0.28497992 C19.6594378,0.28497992 15.5877912,4.35726908 15.5877912,9.36257028 L15.5877912,11.5919679 C15.5877912,16.5972691 19.6594378,20.6692369 24.6644177,20.6692369 Z M24.6644177,1.89140562 C27.6411245,1.89140562 30.2155823,3.64176707 31.4159036,6.16706827 C26.1281928,8.04883534 22.1387952,4.26827309 21.9688353,4.10313253 C21.7641767,3.90329317 21.4689157,3.82746988 21.1926104,3.90329317 C20.9169478,3.97975904 20.7026506,4.19726908 20.6300402,4.47421687 C20.6207229,4.51084337 19.73751,7.77702811 17.2128514,8.8648996 C17.4702008,4.97638554 20.7129317,1.89140562 24.6644177,1.89140562 Z M17.1942169,10.5776707 C19.7975904,9.81365462 21.1678715,7.45477912 21.7789558,6.02056225 C23.4621687,7.25204819 27.2584739,9.35228916 31.9431325,7.68514056 C32.0677912,8.22457831 32.1355823,8.78554217 32.1355823,9.36257028 L32.1355823,11.5919679 C32.1355823,15.7114859 28.7839357,19.0628112 24.664739,19.0628112 C20.5458635,19.0628112 17.1945382,15.7114859 17.1945382,11.5919679 L17.1945382,10.5776707 L17.1942169,10.5776707 Z" id="Shape"></path>
                            <path d="M48.3569478,62.4726104 L41.54249,32.5818474 L41.5016867,32.4032129 C41.4181526,32.0375904 41.0936546,31.7786345 40.7183936,31.7786345 L37.9084337,31.7786345 L37.9084337,30.471004 C37.9084337,25.3985542 33.7808835,21.2716466 28.7077912,21.2716466 L20.6200803,21.2716466 C15.5476305,21.2716466 11.4207229,25.3985542 11.4207229,30.471004 L11.4207229,31.7786345 L8.08449799,31.7786345 C7.71212851,31.7786345 7.38859438,32.0346988 7.30281124,32.3971084 L0.17124498,62.564498 C0.114698795,62.8035341 0.17060241,63.0551004 0.322891566,63.2475502 C0.475502008,63.44 0.707148594,63.5524498 0.952931727,63.5524498 L11.3346185,63.5524498 C10.3238554,65.1653012 9.73718876,67.0695582 9.73718876,69.1093976 L9.73718876,71.1794378 C9.73718876,71.6231325 10.0967068,71.9826506 10.5404016,71.9826506 L17.5100402,71.9826506 C17.9537349,71.9826506 18.313253,71.6231325 18.313253,71.1794378 C18.313253,70.735743 17.9537349,70.3762249 17.5100402,70.3762249 L11.3436145,70.3762249 L11.3436145,69.1093976 C11.3436145,67.0081928 12.077751,65.0756627 13.3015261,63.5524498 C13.5286747,63.2697189 13.7741365,63.0024096 14.0330924,62.7492369 C14.3286747,62.4610442 14.642249,62.1914859 14.9760643,61.9460241 C16.4491566,60.8616867 18.266988,60.2191165 20.2322892,60.2191165 L29.5701205,60.2191165 C31.535743,60.2191165 33.3535743,60.8616867 34.8273092,61.9460241 C35.1604819,62.1914859 35.4743775,62.4610442 35.7699598,62.7492369 C36.0295582,63.0024096 36.2746988,63.2697189 36.5018474,63.5524498 C37.7256225,65.0756627 38.4600803,67.0078715 38.4600803,69.1093976 L38.4600803,70.3762249 L20.6698795,70.3762249 C20.2261847,70.3762249 19.8666667,70.735743 19.8666667,71.1794378 C19.8666667,71.6231325 20.2261847,71.9826506 20.6698795,71.9826506 L39.2632932,71.9826506 C39.706988,71.9826506 40.066506,71.6231325 40.066506,71.1794378 L40.066506,69.1093976 C40.066506,67.0695582 39.4798394,65.1653012 38.468755,63.5524498 L47.5958233,63.5524498 C47.5983936,63.5527711 47.6006426,63.5527711 47.602249,63.5524498 C48.0459438,63.5524498 48.4054662,63.1929317 48.4054662,62.7492369 C48.4054662,62.6518876 48.3884337,62.5587149 48.3569478,62.4726104 Z M24.9535743,24.1297992 L24.0928514,24.1297992 L23.7619277,22.8780723 L25.2446586,22.8780723 L24.9535743,24.1297992 Z M24.2004819,25.8322892 L24.9930924,25.8322892 L26.2020884,31.7786345 L22.7383133,31.7786345 L24.2004819,25.8322892 Z M36.3023293,30.471004 L36.3023293,31.7786345 L27.8412851,31.7786345 L26.4366265,24.8690763 C26.4359839,24.8652209 26.4340562,24.862008 26.4334137,24.8578313 L26.8938153,22.877751 L28.7081124,22.877751 C32.8954217,22.8780723 36.3023293,26.2843373 36.3023293,30.471004 Z M13.0274699,30.471004 C13.0274699,26.2843373 16.4337349,22.8780723 20.6204016,22.8780723 L22.0999197,22.8780723 L22.69751,25.1383133 C22.7004016,25.1492369 22.7052209,25.1588755 22.708755,25.1697992 L21.0830522,31.7786345 L13.0274699,31.7786345 L13.0274699,30.471004 Z M29.5704418,58.6126908 L27.191004,58.6126908 C26.5018474,58.8035341 25.7844177,58.9050602 25.0551004,58.9050602 C24.3257831,58.9050602 23.6080321,58.8035341 22.9191968,58.6126908 L20.2329317,58.6126908 C17.2128514,58.6126908 14.4883534,59.8968675 12.5715663,61.9460241 L4.0064257,61.9460241 L1.96787149,61.9460241 L8.71967871,33.3853815 L10.7585542,33.3853815 L40.0780723,33.3853815 L46.5895582,61.9460241 L37.2327711,61.9460241 C35.3156627,59.8968675 32.5908434,58.6126908 29.5704418,58.6126908 Z" id="Shape"></path>
                            <path d="M35.2379116,56.3874699 C35.6639357,56.3874699 36.0160643,56.0546185 36.0398394,55.6289157 C36.0417671,55.5967871 36.2162249,52.3945382 36.0722892,48.9028112 C35.8698795,43.9996787 35.1804016,40.9921285 33.9643373,39.7089157 C32.5333333,38.1988755 31.1248193,37.8817671 30.1950201,37.8817671 C29.9328514,37.8817671 29.6973494,37.9068273 29.4955823,37.94249 C28.8803213,36.9423293 27.3037751,35.2902811 23.5444177,35.4981526 C18.0517269,35.7966265 14.1053815,40.1076305 13.9479518,45.982008 C13.7844177,52.062008 13.7837751,55.5498795 13.7837751,55.5845783 C13.7840964,56.0279518 14.1436145,56.3874699 14.586988,56.3874699 L19.22249,56.3874699 C20.2387149,57.46249 21.5196787,58.2248996 22.9188755,58.6126908 L27.191004,58.6126908 C28.5898795,58.2248996 29.8711647,57.46249 30.8873896,56.3874699 L35.2379116,56.3874699 L35.2379116,56.3874699 Z M29.9216064,55.0599197 C28.6965462,56.4825703 26.9224096,57.2986345 25.0547791,57.2986345 C23.1871486,57.2986345 21.413012,56.4825703 20.1879518,55.0599197 C20.0350201,54.8828916 19.813012,54.7810442 19.5791165,54.7810442 L15.3934137,54.7810442 C15.4027309,53.426506 15.4358233,50.4012851 15.5534137,46.0253815 C15.7108434,40.1561446 19.7236948,37.3146988 23.6311647,37.1023293 C23.8133333,37.0923695 23.988755,37.0875502 24.1587149,37.0875502 C27.6,37.0875502 28.2756627,39.0499598 28.2994378,39.1225703 C28.3646586,39.3458635 28.5291566,39.5270683 28.740241,39.6244177 C28.951004,39.7217671 29.2003213,39.7204819 29.4123695,39.624739 C29.419759,39.6215261 30.9590361,38.8722892 32.7987149,40.8141365 C34.402249,42.5063454 34.6746988,49.9669076 34.473253,54.7813655 L30.5310843,54.7813655 C30.2965462,54.7810442 30.0745382,54.8828916 29.9216064,55.0599197 Z" id="Shape"></path>
                        </g>
                        <path d="M35.3359036,66.2946185 C36.0655422,66.2946185 36.7829719,66.1930924 37.4718072,66.002249 L33.1996787,66.002249 C33.8888353,66.1930924 34.6062651,66.2946185 35.3359036,66.2946185 Z" id="Path" fill="#020202"></path>
                        <path d="M18.5439357,23.1100402 C18.3685141,23.1100402 18.1937349,23.0528514 18.0488353,22.9394378 L14.5956627,20.2364659 C13.2835341,20.8109237 11.8881928,21.1016867 10.4408032,21.1016867 C8.31261044,21.1016867 6.26666667,20.4629719 4.52369478,19.2546185 C4.52305221,19.2542972 4.52240964,19.2536546 4.52176707,19.2533333 C1.71759036,17.3085944 0.043373494,14.1127711 0.043373494,10.704257 C0.043373494,4.97092369 4.70779116,0.306827309 10.4404819,0.306827309 C10.4414458,0.306827309 10.4420884,0.306827309 10.4430522,0.306827309 C11.1675502,0.306827309 11.8917269,0.382008032 12.5953414,0.530441767 C13.0293976,0.622008032 13.306988,1.04803213 13.2154217,1.48208835 C13.1241767,1.91646586 12.6971888,2.19309237 12.2634538,2.10216867 C11.668755,1.97654618 11.0560643,1.91293173 10.4427309,1.91293173 C10.4420884,1.91293173 10.4414458,1.91293173 10.4408032,1.91293173 C5.59325301,1.91293173 1.6497992,5.85670683 1.6497992,10.7039357 C1.6497992,13.5855422 3.06506024,16.2878715 5.43614458,17.9325301 C5.43646586,17.9325301 5.43678715,17.9328514 5.43710843,17.9331727 C6.9102008,18.9548594 8.64064257,19.4949398 10.4404819,19.4949398 C11.8097992,19.4949398 13.1235341,19.1871486 14.344739,18.5805622 C14.6216867,18.4430522 14.9535743,18.4767871 15.1971084,18.6673092 L17.2645783,20.2856225 C17.3249799,19.997751 17.5415261,19.753253 17.8454618,19.6729317 C18.2743775,19.5582329 18.7142169,19.8146185 18.8279518,20.2435341 L19.3201606,22.1008835 C19.4081928,22.4346988 19.2738956,22.7874699 18.9857028,22.9773494 C18.8514056,23.0660241 18.6978313,23.1100402 18.5439357,23.1100402 Z M17.2581526,18.2573494 C17.0538153,18.2573494 16.8497992,18.1799197 16.693012,18.024739 C16.3778313,17.7127711 16.375261,17.2041767 16.6872289,16.888996 C18.3280321,15.2311647 19.2321285,13.0348594 19.2321285,10.7039357 C19.2321285,7.72144578 17.7384739,4.9664257 15.2363052,3.33429719 C14.8648996,3.09204819 14.7601606,2.59437751 15.0024096,2.22297189 C15.2449799,1.85124498 15.7426506,1.74618474 16.1140562,1.98907631 C19.0724498,3.91839357 20.8385542,7.17654618 20.8385542,10.7039357 C20.8385542,13.4608835 19.7696386,16.0587952 17.828755,18.0192771 C17.6719679,18.177992 17.4650602,18.2573494 17.2581526,18.2573494 Z" id="Shape" fill="url(#linearGradient)"></path>
                        <path d="M10.4186345,13.7542169 C10.013494,13.7542169 9.60481928,13.9836145 9.60481928,14.4960643 L9.60481928,14.7502008 C9.60481928,15.2626506 10.013494,15.4920482 10.4186345,15.4920482 C10.8147791,15.4920482 11.2417671,15.259759 11.2417671,14.7502008 L11.2417671,14.4960643 C11.2417671,13.986506 10.8151004,13.7542169 10.4186345,13.7542169 Z" id="Path" fill="url(#linearGradient)"></path>
                        <path d="M10.2213655,5.22506024 C8.31453815,5.22506024 7.70538153,6.1384739 7.21606426,6.87261044 C7.10522088,7.09686747 7.11518072,7.3535743 7.2539759,7.5784739 C7.40690763,7.82554217 7.69285141,7.99196787 7.96626506,7.99196787 C8.12176707,7.99196787 8.34441767,7.93767068 8.5188755,7.68 C8.90024096,7.04417671 9.42650602,6.75726908 10.2213655,6.75726908 C10.9195181,6.75726908 11.6976707,7.30216867 11.6976707,8.08385542 C11.6976707,9.1546988 10.9616064,9.50907631 10.1416867,9.80465863 C9.77574297,9.9415261 9.60481928,10.1927711 9.60481928,10.5950201 L9.60481928,11.8804819 C9.60481928,12.1227309 9.68578313,12.322249 9.83903614,12.4571888 C9.97654618,12.577992 10.1657831,12.6448193 10.3720482,12.6448193 C10.7746185,12.6448193 11.182008,12.3823293 11.182008,11.8804819 L11.182008,10.9943775 L11.2828916,10.9538956 C12.8170281,10.340241 13.3815261,8.9362249 13.2604016,7.81686747 C13.1061847,6.29044177 11.8567068,5.22506024 10.2213655,5.22506024 Z" id="Path" fill="#EE6B69"></path>
                        <path d="M58.2268273,49.9524498 C58.0729317,49.9524498 57.9193574,49.9084337 57.784739,49.819759 C57.4968675,49.6298795 57.3619277,49.2771084 57.4502811,48.9436145 L57.9421687,47.0865863 C58.0559036,46.6576707 58.495743,46.4016064 58.9246586,46.5159839 C59.2282731,46.5966265 59.4451406,46.8408032 59.5055422,47.1286747 L61.5733333,45.5100402 C61.8171888,45.3195181 62.1490763,45.2854618 62.4257028,45.4232932 C63.6475502,46.0302008 64.9609639,46.3376707 66.3299598,46.3376707 C68.1297992,46.3373494 69.8592771,45.7975904 71.3323695,44.7765462 C71.333012,44.7762249 71.3333333,44.7759036 71.3333333,44.7759036 C73.7053815,43.1309237 75.1209639,40.4285944 75.1209639,37.5466667 C75.1209639,32.6994378 71.17751,28.7556627 66.3299598,28.7556627 C66.3293173,28.7556627 66.3286747,28.7556627 66.3277108,28.7556627 C65.7143775,28.7556627 65.1016867,28.8192771 64.506988,28.9448996 C64.0729317,29.0351807 63.6462651,28.7591968 63.5550201,28.3248193 C63.4634538,27.8907631 63.7410442,27.464739 64.1751004,27.3731727 C64.8787149,27.224739 65.6028916,27.1495582 66.3277108,27.1495582 C66.3283534,27.1495582 66.3293173,27.1495582 66.3302811,27.1495582 C72.0632932,27.1495582 76.7273896,31.8139759 76.7273896,37.546988 C76.7273896,40.9542169 75.0541365,44.1493976 72.251245,46.0944578 C72.2506024,46.0947791 72.2496386,46.0954217 72.248996,46.0960643 C70.5053815,47.3053815 68.4584739,47.9444177 66.3296386,47.9444177 C64.882249,47.9444177 63.4872289,47.6536546 62.1747791,47.0791968 L58.7216064,49.7821687 C58.5770281,49.895261 58.402249,49.9524498 58.2268273,49.9524498 Z M59.5126104,45.1000803 C59.3057028,45.1000803 59.0987952,45.0207229 58.942008,44.862008 C57.0011245,42.9015261 55.9322088,40.3036145 55.9322088,37.5466667 C55.9322088,34.0192771 57.6983133,30.7611245 60.6567068,28.8318072 C61.0281124,28.5895582 61.5257831,28.6939759 61.7683534,29.0657028 C62.0109237,29.4371084 61.9061847,29.9351004 61.5347791,30.1770281 C59.0326104,31.8091566 57.5386345,34.5638554 57.5386345,37.5466667 C57.5386345,39.8775904 58.4424096,42.0738956 60.0835341,43.7317269 C60.3958233,44.0469076 60.393253,44.555502 60.077751,44.8674699 C59.9209639,45.0226506 59.7169478,45.1000803 59.5126104,45.1000803 Z" id="Shape" fill="url(#linearGradient)"></path>
                    </g>
                </g>
            </g>
        </g>
    </g>
</svg>