<?xml version="1.0" encoding="UTF-8"?>
<svg width="124px" height="70px" viewBox="0 0 124 70" version="1.1" xmlns="http://www.w3.org/2000/svg" xmlns:xlink="http://www.w3.org/1999/xlink">
    <!-- Generator: Sketch 57.1 (83088) - https://sketch.com -->
    <title>2 logo</title>
    <desc>Created with Sketch.</desc>
    <defs>
        <linearGradient x1="-1.11022302e-14%" y1="50%" x2="100%" y2="50%" id="linearGradient">
            <stop stop-color="#FFB369" offset="0%"></stop>
            <stop stop-color="#FF4272" offset="100%"></stop>
        </linearGradient>
    </defs>
    <g id="Welcome" stroke="none" stroke-width="1" fill="none" fill-rule="evenodd">
        <g id="Desktop" transform="translate(-451.000000, -1432.000000)" fill-rule="nonzero">
            <g id="Career-Coaching" transform="translate(98.000000, 1361.000000)">
                <g id="2" transform="translate(295.000000, 71.000000)">
                    <g id="2-logo" transform="translate(58.000000, 0.000000)">
                        <path d="M35.0256508,16.6487503 L33.8498496,19.0311744 C33.7216049,19.2905133 33.7742527,19.6036012 33.9821441,19.8051599 C34.1117387,19.93147 34.2831816,20 34.4559744,20 C34.5599201,20 34.6652157,19.975813 34.7624117,19.9260951 L40.5752704,16.9766192 L52.3022336,16.9766192 C55.0426198,16.9766192 57.2727273,14.7567858 57.2727273,12.0290245 L57.2727273,4.94759473 C57.2727273,2.21848965 55.0426198,0 52.3022336,0 L36.7886776,0 C34.0482913,0 31.8181829,2.21714593 31.8181829,4.94759473 L31.8181829,12.0290245 C31.816834,14.1091105 33.1249297,15.9352325 35.0256508,16.6487503 Z M33.1667779,4.94893846 C33.1667779,2.96156947 34.7907605,1.34506853 36.7873276,1.34506853 L52.3008837,1.34506853 C54.2974508,1.34506853 55.9214334,2.96156947 55.9214334,4.94893846 L55.9214334,12.0303682 C55.9214334,14.0177372 54.2974508,15.6342381 52.3008837,15.6342381 L40.4119272,15.6342381 C40.3052816,15.6342381 40.199986,15.6584252 40.1054899,15.708143 L35.9544122,17.812416 L36.5929357,16.5210965 C36.6860818,16.3316313 36.6847319,16.1112604 36.5915858,15.9231389 C36.4970897,15.7363612 36.320247,15.6033324 36.1123557,15.5630207 C34.4060265,15.2418705 33.1667779,13.7570546 33.1667779,12.0303682 L33.1667779,4.94893846 Z" id="Shape" fill="url(#linearGradient)"></path>
                        <circle id="Oval" fill="url(#linearGradient)" cx="51.8181818" cy="8.18181818" r="1"></circle>
                        <circle id="Oval" fill="url(#linearGradient)" cx="44.5454545" cy="8.18181818" r="1"></circle>
                        <circle id="Oval" fill="url(#linearGradient)" cx="37.2727273" cy="8.18181818" r="1"></circle>
                        <path d="M72.2453938,16.976416 L83.9711143,16.976416 L89.7820072,19.9260902 C89.8791928,19.9758113 89.9844773,20 90.088412,20 C90.2611865,20 90.4326112,19.9314654 90.5621921,19.8051468 C90.7687116,19.6035745 90.8213539,19.2904656 90.6944726,19.0311093 L89.518796,16.6485252 C91.4206655,15.9349593 92.7272727,14.1087146 92.7272727,12.0298327 L92.7272727,4.94792717 C92.7272727,2.21863872 90.4987514,0 87.7573058,0 L72.2453938,0 C69.5039482,0 67.2727273,2.2172949 67.2727273,4.94792717 L67.2727273,12.0298327 C67.2740771,14.7564335 69.5039482,16.976416 72.2453938,16.976416 Z M68.623878,4.94792717 C68.623878,2.96042465 70.2490383,1.34381509 72.2467436,1.34381509 L87.7586556,1.34381509 C89.7550111,1.34381509 91.3788216,2.96042465 91.3788216,4.94792717 L91.3788216,12.0298327 C91.3788216,13.7566351 90.1397044,15.2428946 88.4335561,15.5627226 C88.2256867,15.6016932 88.0488628,15.7360747 87.9543767,15.922865 C87.8598907,16.1123429 87.8598907,16.3327286 87.9530269,16.5208627 L88.5914828,17.812269 L84.4421948,15.7078546 C84.3477087,15.6581334 84.2424242,15.6339448 84.13579,15.6339448 L72.2480934,15.6339448 C70.2503881,15.6339448 68.6252278,14.0173352 68.6252278,12.0298327 L68.6252278,4.94792717 L68.623878,4.94792717 Z" id="Shape" fill="url(#linearGradient)"></path>
                        <circle id="Oval" fill="url(#linearGradient)" cx="79.0909091" cy="12.8181818" r="1"></circle>
                        <path d="M80.684384,4.26586803 C81.4829769,4.26586803 82.0050253,4.94841078 82.1644616,5.62515699 C82.3323637,6.32943677 82.1644616,7.27282388 81.1810354,7.79886001 C79.2790862,8.81760216 79.0702668,9.59288958 79.0702668,11 L80.4812084,11 C80.4812084,10.0609603 80.4812084,9.80881074 81.8343013,9.08424307 C83.2395991,8.32924355 83.9069745,6.83663414 83.5344859,5.28026278 C83.1845724,3.80794126 82.0374769,2.81818182 80.684384,2.81818182 C78.4819042,2.81818182 77.4900123,4.51946672 77.2727273,5.41937977 L78.6427515,5.77007052 C78.6596828,5.70630857 79.0251167,4.26586803 80.684384,4.26586803 Z" id="Path" fill="url(#linearGradient)"></path>
                        <path d="M17.2713876,26.3636364 C20.7814354,26.3636364 23.6363636,23.5087081 23.6363636,20 C23.6363636,16.4912919 20.7814354,13.6363636 17.2713876,13.6363636 C13.7626794,13.6363636 10.9090909,16.4912919 10.9090909,20 C10.9090909,23.5087081 13.7640191,26.3636364 17.2713876,26.3636364 Z M17.2713876,14.9760766 C20.0419139,14.9760766 22.2966507,17.2294737 22.2966507,20 C22.2966507,22.7678469 20.0419139,25.0239234 17.2713876,25.0239234 C14.502201,25.0239234 12.2488038,22.7678469 12.2488038,20 C12.2488038,17.2294737 14.502201,14.9760766 17.2713876,14.9760766 Z" id="Shape" fill="#000000"></path>
                        <path d="M107.274067,26.3636364 C110.782775,26.3636364 113.636364,23.5087081 113.636364,20 C113.636364,16.4912919 110.782775,13.6363636 107.274067,13.6363636 C103.764019,13.6363636 100.909091,16.4912919 100.909091,20 C100.909091,23.5087081 103.764019,26.3636364 107.274067,26.3636364 Z M107.274067,14.9760766 C110.043254,14.9760766 112.296651,17.2294737 112.296651,20 C112.296651,22.7678469 110.043254,25.0239234 107.274067,25.0239234 C104.503541,25.0239234 102.248804,22.7678469 102.248804,20 C102.248804,17.2294737 104.502201,14.9760766 107.274067,14.9760766 Z" id="Shape" fill="#000000"></path>
                        <path d="M118.927714,48.5860334 L123.544436,31.3415573 C123.729051,30.6518877 123.633325,29.9334819 123.277771,29.3163371 C122.922218,28.6991923 122.346495,28.2585701 121.661371,28.0765739 C120.270611,27.7002661 118.769082,28.5705634 118.395751,29.9608497 L113.779029,47.2039575 C113.39886,48.6202432 114.241248,50.0830543 115.657991,50.4675724 L115.657991,52.2054303 L109.217006,52.2054303 C110.542126,51.2065041 111.482975,49.7149568 111.690837,47.9880461 L113.616295,34.6489607 C114.029283,31.2006129 111.562291,28.056048 108.117526,27.6414253 C106.201641,27.4115354 104.378747,28.087521 103.064567,29.330021 L97.5370808,28.0546796 L89.8653348,23.20373 C89.1706384,22.7658445 88.3501308,22.6235317 87.5460333,22.8027911 C86.7433034,22.9847872 86.0595471,23.4678296 85.619208,24.1629728 C84.7152821,25.5956792 85.1446811,27.5004809 86.5778344,28.4104616 L94.7035946,33.5474052 C95.0071824,33.7376117 95.3326504,33.8703457 95.670426,33.9456073 L96.9148625,34.2261276 L96.1668331,34.6106458 L87.4735552,34.6106458 C85.776472,34.6106458 84.3966517,35.9927217 84.3966517,37.6895278 C84.3966517,38.3230933 84.589471,38.9115019 84.917674,39.4000178 L38.7203616,39.4000178 C39.0485646,38.9115019 39.2413839,38.3230933 39.2413839,37.6895278 C39.2413839,35.9927217 37.8615636,34.6106458 36.1644804,34.6106458 L27.4753051,34.6106458 L22.2295265,31.8984928 C21.2955154,29.1110783 18.5180972,27.2801698 15.5259795,27.6414253 C12.0812151,28.056048 9.6142223,31.1992445 10.0285786,34.6653815 L11.9485664,47.9729938 C12.1577958,49.7108516 13.1000121,51.2037673 14.4264993,52.2067987 L7.98141219,52.2067987 L7.98141219,50.4689408 C8.66516852,50.2842079 9.23815632,49.8435857 9.5923421,49.2291776 C9.94789539,48.6120328 10.0422538,47.8922586 9.85763955,47.2039575 L5.24228435,29.9622181 C4.87032091,28.5719318 3.36605699,27.7098449 1.97803165,28.0779423 C1.2915403,28.2599384 0.71581747,28.7005607 0.358896668,29.3177055 C0.00197586586,29.9348503 -0.0923825072,30.6546245 0.0922317009,31.3429256 L4.71032193,48.5860334 C4.96194426,49.5247503 5.70723865,50.2116831 6.61526705,50.4484149 L6.61526705,52.2629027 C5.09185796,52.5434231 3.93083972,53.8748685 3.93083972,55.478624 C3.93083972,57.2849014 5.3995483,58.7559228 7.20466501,58.7559228 L13.7550506,58.7559228 L13.7550506,63.1416192 L9.58823956,63.1416192 C8.28910254,63.1416192 7.3988518,63.9380234 7.12261425,65.3009418 C6.10655235,65.5759886 5.35305287,66.4982848 5.35305287,67.6025772 C5.35305287,68.9230755 6.42655031,69.9972632 7.74620002,69.9972632 C9.06584973,69.9972632 10.1393472,68.9230755 10.1393472,67.6025772 C10.1393472,66.5543889 9.45832586,65.6731445 8.51884467,65.3474672 C8.76499694,64.5209584 9.3229421,64.5113796 9.58823956,64.5113796 L14.4374394,64.5113796 L14.9078638,64.5113796 L14.9078638,65.3214677 C13.9232547,65.6184088 13.198473,66.5242843 13.198473,67.6039456 C13.198473,68.9244439 14.2719704,69.9986316 15.5916201,69.9986316 C16.9112698,69.9986316 17.9847672,68.9244439 17.9847672,67.6039456 C17.9847672,66.5242843 17.2599855,65.6184088 16.2753764,65.3214677 L16.2753764,64.5113796 L16.7458008,64.5113796 L21.5950006,64.5113796 C21.8602981,64.5113796 22.4196108,64.5223268 22.6657631,65.3474672 C21.7262819,65.6704077 21.043893,66.5557573 21.043893,67.6025772 C21.043893,68.9230755 22.1173905,69.9972632 23.4370402,69.9972632 C24.7566899,69.9972632 25.8301873,68.9230755 25.8301873,67.6025772 C25.8301873,66.4982848 25.0753203,65.577357 24.0578909,65.3009418 C23.7871234,63.9243395 22.9119153,63.1416192 21.5950006,63.1416192 L17.4295571,63.1416192 L17.4295571,58.7559228 L23.9799427,58.7559228 C25.7850594,58.7559228 27.253768,57.2862698 27.253768,55.478624 C27.253768,54.7383239 26.9966756,54.0596014 26.5795843,53.5108762 L27.8828238,53.5108762 L31.6503212,67.2290062 C32.0974978,68.8587611 33.5880866,69.9945264 35.2742297,69.9945264 C35.6092703,69.9945264 35.9443109,69.9493695 36.2725139,69.860424 C37.2407129,69.5935876 38.0489129,68.9654956 38.54532,68.0910931 C39.0417271,67.2166906 39.1689057,66.2040806 38.9022408,65.2338906 L34.3757739,48.7461353 C33.9299648,47.1191172 32.4380085,45.9819834 30.7504979,45.9819834 L24.3806239,45.9819834 L23.4397752,39.4533851 L25.3160026,40.423575 C25.6113853,40.5754666 25.9327508,40.6589385 26.2595863,40.709569 C26.1816381,40.9230381 26.1324076,41.1501912 26.1324076,41.3910282 C26.1324076,41.9205959 26.338902,42.4227958 26.714968,42.7963668 C27.091034,43.1726746 27.5915436,43.3820386 28.123506,43.3820386 L55.2358119,43.3820386 L55.2358119,69.308962 C55.2358119,69.6880066 55.5421347,69.993158 55.9195682,69.993158 C56.2970017,69.993158 56.6033245,69.6880066 56.6033245,69.308962 L56.6033245,43.3847754 L67.0401811,43.3847754 L67.0401811,69.3116988 C67.0401811,69.6907434 67.3465039,69.9958948 67.7239374,69.9958948 C68.1013709,69.9958948 68.4076938,69.6907434 68.4076938,69.3116988 L68.4076938,43.3847754 L95.5213671,43.3847754 C96.0533295,43.3847754 96.5524717,43.1767798 96.9285376,42.7991036 C97.3032361,42.4255326 97.5097305,41.9247011 97.5097305,41.393765 C97.5097305,41.152928 97.4605001,40.9257749 97.3825518,40.7123058 C97.7093874,40.6616753 98.0307528,40.5782033 98.3275031,40.4263118 L100.20373,39.4561219 L99.2587792,45.9860886 L92.8889053,45.9860886 C91.2000271,45.9860886 89.7080708,47.1218539 89.2622617,48.7502404 L84.7344273,65.2379958 C84.4677624,66.2081857 84.594941,67.2207958 85.0913481,68.0951983 C85.5877552,68.9696008 86.3959552,69.5976927 87.3655217,69.8645292 C87.6923572,69.9521063 88.0273978,69.9986316 88.3638059,69.9986316 C90.0485815,69.9986316 91.5391703,68.8628662 91.9877144,67.2331114 L95.7565793,53.5122446 L97.0611864,53.5122446 C96.644095,54.0596014 96.3870026,54.7383239 96.3870026,55.4799924 C96.3870026,57.2862698 97.8557112,58.7572912 99.6608279,58.7572912 L106.211214,58.7572912 L106.211214,63.1429876 L102.044402,63.1429876 C100.746633,63.1429876 99.8563822,63.9421286 99.5815122,65.3023102 C98.5627153,65.577357 97.8078483,66.4996532 97.8078483,67.6039456 C97.8078483,68.9244439 98.8813457,69.9986316 100.200995,69.9986316 C101.520645,69.9986316 102.594143,68.9244439 102.594143,67.6039456 C102.594143,66.5557573 101.913121,65.6717761 100.97364,65.3488355 C101.218425,64.5223268 101.777738,64.512748 102.044402,64.512748 L106.89497,64.512748 L107.365394,64.512748 L107.365394,65.3228361 C106.380785,65.6197772 105.656003,66.5256527 105.656003,67.605314 C105.656003,68.9258123 106.729501,70 108.049151,70 C109.3688,70 110.442298,68.9258123 110.442298,67.605314 C110.442298,66.5256527 109.717516,65.6197772 108.732907,65.3228361 L108.732907,64.512748 L109.203331,64.512748 L114.052531,64.512748 C114.317829,64.512748 114.875774,64.5236952 115.121926,65.3488355 C114.182445,65.6745128 113.501423,66.5571257 113.501423,67.6039456 C113.501423,68.9244439 114.574921,69.9986316 115.894571,69.9986316 C117.21422,69.9986316 118.287718,68.9244439 118.287718,67.6039456 C118.287718,66.4996532 117.534218,65.5787254 116.518156,65.3023102 C116.241919,63.9393918 115.351668,63.1429876 114.053899,63.1429876 L109.888455,63.1429876 L109.888455,58.7572912 L116.437473,58.7572912 C118.24259,58.7572912 119.712666,57.2876382 119.712666,55.4799924 C119.712666,53.8762369 118.551648,52.5447915 117.028239,52.2642711 L117.028239,50.4497833 C117.932164,50.2116831 118.676091,49.5247503 118.927714,48.5860334 Z M7.7448325,68.6275028 C7.17868227,68.6275028 6.71919801,68.1677231 6.71919801,67.6012088 C6.71919801,67.0374313 7.17868227,66.5749148 7.7448325,66.5749148 C8.31098274,66.5749148 8.77046699,67.0374313 8.77046699,67.6012088 C8.77046699,68.1690915 8.31098274,68.6275028 7.7448325,68.6275028 Z M16.6172546,67.6012088 C16.6172546,68.1677231 16.1577703,68.6275028 15.5916201,68.6275028 C15.0254699,68.6275028 14.5659856,68.1677231 14.5659856,67.6012088 C14.5659856,67.0374313 15.0254699,66.5749148 15.5916201,66.5749148 C16.1577703,66.5749148 16.6172546,67.0374313 16.6172546,67.6012088 Z M24.4626747,67.6012088 C24.4626747,68.1677231 24.0031904,68.6275028 23.4370402,68.6275028 C22.87089,68.6275028 22.4114057,68.1677231 22.4114057,67.6012088 C22.4114057,67.0374313 22.87089,66.5749148 23.4370402,66.5749148 C24.0031904,66.5749148 24.4626747,67.0374313 24.4626747,67.6012088 Z M100.199628,68.6275028 C99.6334777,68.6275028 99.1739934,68.1677231 99.1739934,67.6012088 C99.1739934,67.0374313 99.6334777,66.5749148 100.199628,66.5749148 C100.765778,66.5749148 101.225262,67.0374313 101.225262,67.6012088 C101.225262,68.1690915 100.765778,68.6275028 100.199628,68.6275028 Z M109.073418,67.6012088 C109.073418,68.1677231 108.613933,68.6275028 108.047783,68.6275028 C107.481633,68.6275028 107.022149,68.1677231 107.022149,67.6012088 C107.022149,67.0374313 107.481633,66.5749148 108.047783,66.5749148 C108.613933,66.5749148 109.073418,67.0374313 109.073418,67.6012088 Z M116.91747,67.6012088 C116.91747,68.1677231 116.457986,68.6275028 115.891836,68.6275028 C115.325685,68.6275028 114.866201,68.1677231 114.866201,67.6012088 C114.866201,67.0374313 115.325685,66.5749148 115.891836,66.5749148 C116.457986,66.5749148 116.91747,67.0374313 116.91747,67.6012088 Z M115.098678,47.5570026 L119.715401,30.3152632 C119.867195,29.748749 120.382747,29.3532837 120.968043,29.3532837 C121.081546,29.3532837 121.19505,29.3669676 121.307186,29.3984406 C121.640859,29.4860177 121.921199,29.7008552 122.093505,29.9991647 C122.26718,30.3015793 122.313675,30.6518877 122.223419,30.9857753 L117.606696,48.2302515 C117.426185,48.9062371 116.701403,49.3372806 116.017647,49.1470741 C115.325685,48.9623412 114.914064,48.249409 115.098678,47.5570026 Z M95.9630737,32.6086883 C95.7757245,32.5662681 95.5938453,32.4910065 95.4270088,32.3870088 L87.3053511,27.2555387 C86.5080912,26.7478653 86.270144,25.6887299 86.7720212,24.8950625 C87.0168059,24.5078075 87.3969745,24.2382343 87.8427836,24.1383417 C88.2913277,24.0398175 88.7453419,24.1164474 89.129613,24.3600212 L96.9011874,29.2725485 C96.966828,29.3149687 97.0379387,29.3450733 97.1131519,29.3601256 L102.097735,30.5095749 C101.82013,30.9419868 101.576713,31.3962929 101.409877,31.8971244 L98.80203,33.2436222 L95.9630737,32.6086883 Z M6.03133915,48.2302515 L1.41461644,30.9871437 C1.3243606,30.6532561 1.37085603,30.3029477 1.54453014,30.0005331 C1.71683673,29.7008552 1.99580931,29.4873861 2.33221743,29.3970722 C2.44298595,29.368336 2.5564895,29.3546521 2.66999305,29.3546521 C3.25528847,29.3546521 3.76947322,29.7501173 3.92263464,30.3166316 L8.53798984,47.558371 C8.62824568,47.8949954 8.58175025,48.2453038 8.40807614,48.5449816 C8.23576955,48.8446595 7.95542945,49.0608654 7.62038885,49.1484425 C6.93526501,49.3372806 6.21185082,48.9062371 6.03133915,48.2302515 Z M16.0620445,63.1416192 L15.1211958,63.1416192 L15.1211958,58.7559228 L16.0620445,58.7559228 L16.0620445,63.1416192 Z M23.9785752,57.3875308 L7.20466501,57.3875308 C6.15304778,57.3875308 5.29835237,56.5322858 5.29835237,55.478624 C5.29835237,54.4276989 6.15304778,53.5724539 7.20466501,53.5724539 L23.9799427,53.5724539 C25.0315599,53.5724539 25.8862554,54.4276989 25.8862554,55.478624 C25.8848878,56.5322858 25.0301924,57.3875308 23.9785752,57.3875308 Z M22.8845651,37.6279502 C22.6561905,37.5102684 22.3826879,37.5294259 22.1734585,37.6785807 C21.9642291,37.8277354 21.8575631,38.0795195 21.8931184,38.3340404 L23.086957,46.595023 C23.086957,46.6223909 23.0883245,46.7072312 23.0910595,46.734599 C23.1252473,47.0876441 23.4192625,47.3544806 23.7720808,47.3544806 L30.7491303,47.3544806 C31.8239953,47.3544806 32.7716816,48.0756232 33.0574917,49.1128643 L37.5839586,65.6006197 C37.7535301,66.2150277 37.6728469,66.8622771 37.355584,67.4178443 C37.0396885,67.9734114 36.5268713,68.3743503 35.9101231,68.5426625 C34.6397038,68.8902341 33.309114,68.1102506 32.9672359,66.8663823 L29.0616197,52.6446841 C28.979569,52.347743 28.710169,52.1424842 28.4024786,52.1424842 L18.2131419,52.1424842 C18.1680139,52.1315371 18.122886,52.1260635 18.0763906,52.1233267 C15.6052952,52.0644859 13.5991542,50.2472613 13.3010364,47.7909976 L11.3810486,34.4833853 C11.0583157,31.7835479 12.9892435,29.323179 15.6859785,28.9961333 C18.1119459,28.7046658 20.3478291,30.2495804 20.9987651,32.5566894 C21.0507306,32.7386855 21.1751743,32.8933138 21.3433783,32.9795225 L26.9925731,35.9037762 C27.0896665,35.9516699 27.1963325,35.9790378 27.3057335,35.9790378 L36.1617454,35.9790378 C37.1039616,35.9790378 37.8711362,36.7467057 37.8711362,37.6895278 C37.8711362,38.6323499 37.1039616,39.4000178 36.1617454,39.4000178 L28.1194035,39.4000178 L26.7231731,39.4000178 C26.4524056,39.4000178 26.1802706,39.3329666 25.9382208,39.2098113 L22.8845651,37.6279502 Z M95.9576037,41.8343872 C95.8413651,41.9520689 95.6841011,42.0163833 95.5186321,42.0163833 L95.5158971,42.0163833 L28.118036,42.0163833 C27.952567,42.0163833 27.7966705,41.9520689 27.6790644,41.8316504 C27.5614583,41.7139687 27.4971853,41.5593404 27.4971853,41.393765 C27.4971853,41.0489302 27.7775253,40.7684098 28.120771,40.7684098 L36.1631129,40.7684098 L87.4721877,40.7684098 L95.5158971,40.7684098 C95.8591427,40.7684098 96.1395038,41.0489302 96.1395038,41.393765 C96.1408504,41.5593404 96.0752097,41.7153371 95.9576037,41.8343872 Z M95.235557,52.1438526 C94.9278666,52.1438526 94.6584666,52.3491114 94.5764159,52.6460525 L90.6721673,66.8677507 C90.3289216,68.1102506 88.9887592,68.8888657 87.7306475,68.5440309 C87.1138993,68.3729819 86.5997146,67.9747798 86.2838192,67.4192127 C85.9679237,66.8636455 85.8872405,66.2163961 86.0554445,65.6019881 L90.5832789,49.1142327 C90.8663541,48.0769916 91.8154078,47.355849 92.8916403,47.355849 L99.8686898,47.355849 C100.220141,47.355849 100.514156,46.9973303 100.548344,46.6442851 L101.747652,38.3354088 C101.783208,38.0808879 101.675174,37.8304722 101.467312,37.6799491 C101.258083,37.5335311 100.983213,37.5116368 100.756206,37.6293186 L97.7011823,39.2111797 C97.457765,39.334335 97.18563,39.4013862 96.9148625,39.4013862 L95.5186321,39.4013862 L87.4735552,39.4013862 C86.5313389,39.4013862 85.7641643,38.6337183 85.7641643,37.6908962 C85.7641643,36.7480741 86.5313389,35.9804062 87.4735552,35.9804062 L96.3309346,35.9804062 C96.4403356,35.9804062 96.5483691,35.9530383 96.644095,35.9051446 L102.29329,32.9808909 C102.461494,32.8946822 102.585937,32.7400539 102.637903,32.5580578 C103.287471,30.2509488 105.517885,28.7074026 107.952057,28.9975017 C110.648792,29.323179 112.57972,31.7849163 112.259722,34.468333 L110.334264,47.8074183 C110.040249,50.2499981 108.034108,52.0644859 105.563013,52.1233267 C105.517885,52.1260635 105.474124,52.1315371 105.430364,52.1424842 L95.235557,52.1424842 L95.235557,52.1438526 Z M108.51684,63.1416192 L107.575991,63.1416192 L107.575991,58.7559228 L108.51684,58.7559228 L108.51684,63.1416192 Z M118.341051,55.478624 C118.341051,56.5322858 117.486355,57.3875308 116.433371,57.3875308 L99.6594604,57.3875308 C98.6078432,57.3875308 97.7531478,56.5322858 97.7531478,55.478624 C97.7531478,54.4276989 98.6078432,53.5724539 99.6594604,53.5724539 L116.434738,53.5724539 C117.486355,53.5738223 118.341051,54.4290673 118.341051,55.478624 Z" id="Shape" fill="#000000"></path>
                    </g>
                </g>
            </g>
        </g>
    </g>
</svg>