<?xml version="1.0" encoding="UTF-8"?>
<svg width="80px" height="69px" viewBox="0 0 80 69" version="1.1" xmlns="http://www.w3.org/2000/svg" xmlns:xlink="http://www.w3.org/1999/xlink">
    <!-- Generator: Sketch 57.1 (83088) - https://sketch.com -->
    <title>3 logo</title>
    <desc>Created with Sketch.</desc>
    <defs>
        <linearGradient x1="-1.11022302e-14%" y1="50%" x2="100%" y2="50%" id="linearGradient">
            <stop stop-color="#FFB369" offset="0%"></stop>
            <stop stop-color="#FF4272" offset="100%"></stop>
        </linearGradient>
    </defs>
    <g id="Welcome" stroke="none" stroke-width="1" fill="none" fill-rule="evenodd">
        <g id="Desktop" transform="translate(-768.000000, -1432.000000)" fill-rule="nonzero">
            <g id="Career-Coaching" transform="translate(98.000000, 1361.000000)">
                <g id="3" transform="translate(590.000000, 71.000000)">
                    <g id="3-logo" transform="translate(80.000000, 0.000000)">
                        <path d="M0,0 L0,68.7058824 L80,68.7058824 L80,0 L0,0 Z M78.2900763,1.82404997 L78.2900763,9.36345653 L1.95419847,9.36345653 L1.95419847,1.82404997 L78.2900763,1.82404997 Z M1.95419847,67.0034357 L1.95419847,11.1875065 L78.2900763,11.1875065 L78.2900763,66.8818324 L1.95419847,66.8818324 L1.95419847,67.0034357 Z" id="Shape" fill="#000000"></path>
                        <rect id="Rectangle" fill="#000000" x="61.1764706" y="4.64705882" width="1.88235294" height="1.88235294"></rect>
                        <rect id="Rectangle" fill="#000000" x="70.5882353" y="4.64705882" width="1.88235294" height="1.88235294"></rect>
                        <rect id="Rectangle" fill="#000000" x="65.8823529" y="4.64705882" width="1.88235294" height="1.88235294"></rect>
                        <rect id="Rectangle" fill="url(#linearGradient)" x="8.47058824" y="4.64705882" width="47.0588235" height="1.88235294"></rect>
                        <path d="M44.8134454,35.4099911 L40.9411765,27.2941176 L37.0689076,35.4099911 L28.2352941,36.6396689 L34.6487395,42.9110257 L33.0756303,51.7647059 L40.9411765,47.5838014 L48.8067227,51.7647059 L47.2336134,42.9110257 L53.6470588,36.6396689 L44.8134454,35.4099911 Z M46.2655462,48.321608 L40.9411765,45.3703813 L35.6168067,48.321608 L36.7058824,42.173219 L32.3495798,37.8693467 L38.4,37.0085723 L41.0621849,31.4750222 L43.7243697,37.0085723 L49.7747899,37.8693467 L45.4184874,42.173219 L46.2655462,48.321608 Z" id="Shape" fill="#000000"></path>
                        <path d="M40.9411765,18.8235294 C29.7811052,18.8235294 20.7058824,27.8987522 20.7058824,39.0588235 C20.7058824,50.2188948 29.7811052,59.2941176 40.9411765,59.2941176 C52.1012478,59.2941176 61.1764706,50.2188948 61.1764706,39.0588235 C61.1764706,27.8987522 52.1012478,18.8235294 40.9411765,18.8235294 Z M40.9411765,57.5771836 C30.7622103,57.5771836 22.5454545,49.3604278 22.5454545,39.1814617 C22.5454545,29.0024955 30.7622103,20.7857398 40.9411765,20.7857398 C51.1201426,20.7857398 59.3368984,29.0024955 59.3368984,39.1814617 C59.3368984,49.2377897 51.1201426,57.5771836 40.9411765,57.5771836 Z" id="Shape" fill="url(#linearGradient)"></path>
                    </g>
                </g>
            </g>
        </g>
    </g>
</svg>