<?xml version="1.0" encoding="UTF-8"?>
<svg width="105px" height="74px" viewBox="0 0 105 74" version="1.1" xmlns="http://www.w3.org/2000/svg" xmlns:xlink="http://www.w3.org/1999/xlink">
    <!-- Generator: Sketch 57.1 (83088) - https://sketch.com -->
    <title>doc decor</title>
    <desc>Created with Sketch.</desc>
    <defs>
        <linearGradient x1="50%" y1="0%" x2="50%" y2="100%" id="linearGradient-6">
            <stop stop-color="#FFDAA2" stop-opacity="0.7" offset="0%"></stop>
            <stop stop-color="#FFB369" stop-opacity="0.7" offset="100%"></stop>
        </linearGradient>
    </defs>
    <g id="Welcome" stroke="none" stroke-width="1" fill="none" fill-rule="evenodd" opacity="0.641787574">
        <g id="Desktop" transform="translate(-93.000000, -2558.000000)" fill="url(#linearGradient-6)">
            <g id="Recruitment-Program" transform="translate(93.000000, 2372.000000)">
                <g id="doc-decor" transform="translate(52.500000, 223.000000) rotate(90.000000) translate(-52.500000, -223.000000) translate(16.000000, 171.000000)">
                    <circle id="Oval" cx="27" cy="7" r="7"></circle>
                    <circle id="Oval-Copy-4" cx="27" cy="25" r="7"></circle>
                    <circle id="Oval-Copy-8" cx="27" cy="43" r="7"></circle>
                    <circle id="Oval-Copy-12" cx="27" cy="61" r="7"></circle>
                    <circle id="Oval-Copy-16" cx="27" cy="79" r="7"></circle>
                    <circle id="Oval-Copy-20" cx="27" cy="97" r="7"></circle>
                    <circle id="Oval-Copy" cx="46" cy="7" r="7"></circle>
                    <circle id="Oval-Copy-5" cx="46" cy="25" r="7"></circle>
                    <circle id="Oval-Copy-9" cx="46" cy="43" r="7"></circle>
                    <circle id="Oval-Copy-13" cx="46" cy="61" r="7"></circle>
                    <circle id="Oval-Copy-17" cx="46" cy="79" r="7"></circle>
                    <circle id="Oval-Copy-21" cx="46" cy="97" r="7"></circle>
                    <circle id="Oval-Copy-2" cx="66" cy="7" r="7"></circle>
                    <circle id="Oval-Copy-6" cx="66" cy="25" r="7"></circle>
                    <circle id="Oval-Copy-10" cx="66" cy="43" r="7"></circle>
                    <circle id="Oval-Copy-14" cx="66" cy="61" r="7"></circle>
                    <circle id="Oval-Copy-18" cx="66" cy="79" r="7"></circle>
                    <circle id="Oval-Copy-22" cx="66" cy="97" r="7"></circle>
                    <circle id="Oval-Copy-3" cx="7" cy="7" r="7"></circle>
                    <circle id="Oval-Copy-7" cx="7" cy="25" r="7"></circle>
                    <circle id="Oval-Copy-11" cx="7" cy="43" r="7"></circle>
                    <circle id="Oval-Copy-15" cx="7" cy="61" r="7"></circle>
                    <circle id="Oval-Copy-19" cx="7" cy="79" r="7"></circle>
                    <circle id="Oval-Copy-23" cx="7" cy="97" r="7"></circle>
                </g>
            </g>
        </g>
    </g>
</svg>