<svg id="_2" data-name="&quot; 2" xmlns="http://www.w3.org/2000/svg" width="60" height="40" viewBox="0 0 60 40">
  <path id="Shape" d="M53.737,40H52.389l-4.817-4.75a47.731,47.731,0,0,0,4-5.253V23.767c-.149-.012-.273-.017-.4-.017H44.48a8.646,8.646,0,0,1-8.695-8.576v-6.6A8.646,8.646,0,0,1,44.48,0H51.17a8.645,8.645,0,0,1,8.695,8.575c0,1.227.028,2.7.058,4.267.076,3.982.17,8.938-.127,13.313-.348,5.128-1.155,8.43-2.467,10.094A26.872,26.872,0,0,1,53.737,40ZM17.953,40H16.6l-4.817-4.75a47.617,47.617,0,0,0,4-5.253V23.767c-.146-.011-.274-.017-.4-.017H8.695A8.646,8.646,0,0,1,0,15.174v-6.6A8.646,8.646,0,0,1,8.695,0h6.691A8.645,8.645,0,0,1,24.08,8.576c0,1.227.028,2.7.058,4.268.076,3.982.17,8.938-.126,13.313-.348,5.128-1.154,8.43-2.466,10.094A26.924,26.924,0,0,1,17.953,40Z" fill="#63707e"/>
</svg>
