<?xml version="1.0" encoding="UTF-8"?>
<svg width="66px" height="63px" viewBox="0 0 66 63" version="1.1" xmlns="http://www.w3.org/2000/svg" xmlns:xlink="http://www.w3.org/1999/xlink">
    <!-- Generator: Sketch 57.1 (83088) - https://sketch.com -->
    <title>logo</title>
    <desc>Created with Sketch.</desc>
    <defs>
        <linearGradient x1="0%" y1="50%" x2="100%" y2="50%" id="linearGradient">
            <stop stop-color="#FF8569" offset="0%"></stop>
            <stop stop-color="#FF4272" offset="100%"></stop>
        </linearGradient>
    </defs>
    <g id="Welcome" stroke="none" stroke-width="1" fill="none" fill-rule="evenodd">
        <g id="Desktop" transform="translate(-480.000000, -4101.000000)" fill-rule="nonzero">
            <g id="our-partners" transform="translate(-8.000000, 4049.000000)">
                <g id="logo" transform="translate(488.000000, 52.000000)">
                    <path d="M17.2859068,14.0869565 C19.2386028,14.0868506 20.8214994,12.5100674 20.8214286,10.5650896 C20.8213577,8.62011172 19.2383461,7.04347827 17.2856501,7.04347827 C15.3329541,7.04347827 13.75,8.62023954 13.75,10.5652174 C13.75,11.4992739 14.1225381,12.3950711 14.7856548,13.0555308 C15.4487715,13.7159905 16.3481437,14.0869565 17.2859068,14.0869565 L17.2859068,14.0869565 Z M17.2859068,8.60869565 C18.3707268,8.60880154 19.2500709,9.48481305 19.25,10.5653452 C19.2499291,11.6458774 18.3704701,12.5217391 17.2856501,12.5217391 C16.2008301,12.5217391 15.3214286,11.6457495 15.3214286,10.5652174 C15.3226131,9.48507451 16.2014775,8.60976966 17.2859068,8.60869565 Z" id="Shape" fill="#2D4356"></path>
                    <path d="M33.0001925,14.0869565 C34.9528885,14.0868506 36.5357852,12.5100674 36.5357143,10.5650896 C36.5356434,8.62011172 34.9526319,7.04347827 32.9999358,7.04347827 C31.0472398,7.04347827 29.4642857,8.62023954 29.4642857,10.5652174 C29.4642857,11.4992739 29.8368238,12.3950711 30.4999405,13.0555308 C31.1630572,13.7159905 32.0624294,14.0869565 33.0001925,14.0869565 L33.0001925,14.0869565 Z M33.0001925,8.60869565 C34.0850125,8.60880154 34.9643566,9.48481305 34.9642857,10.5653452 C34.9642148,11.6458774 34.0847558,12.5217391 32.9999358,12.5217391 C31.9151159,12.5217391 31.0357143,11.6457495 31.0357143,10.5652174 C31.0368988,9.48507451 31.9157632,8.60976966 33.0001925,8.60869565 Z" id="Shape" fill="#2D4356"></path>
                    <path d="M48.7144782,14.0869565 C50.6671742,14.0868506 52.2500709,12.5100674 52.25,10.5650896 C52.2499291,8.62011172 50.6669176,7.04347827 48.7142216,7.04347827 C46.7615255,7.04347827 45.1785714,8.62023954 45.1785714,10.5652174 C45.1785714,11.4992739 45.5511095,12.3950711 46.2142262,13.0555308 C46.8773429,13.7159905 47.7767151,14.0869565 48.7144782,14.0869565 L48.7144782,14.0869565 Z M48.7144782,8.60869565 C49.7992982,8.60880154 50.6786423,9.48481305 50.6785714,10.5653452 C50.6785006,11.6458774 49.7990415,12.5217391 48.7142216,12.5217391 C47.6294016,12.5217391 46.75,11.6457495 46.75,10.5652174 C46.7511932,9.48507808 47.6300525,8.60977827 48.7144782,8.60869565 Z" id="Shape" fill="#2D4356"></path>
                    <path d="M27.8928571,34.4349743 C27.8929635,37.2443729 30.1795172,39.5217391 33.0000642,39.5217391 C35.8206112,39.5217391 38.1071429,37.2442451 38.1071429,34.4348465 C38.1071429,31.6254479 35.8207395,29.347932 33.0001925,29.3478261 C30.1795026,29.3478261 27.8928571,31.6254334 27.8928571,34.4349743 Z M36.5357143,34.4349743 C36.535608,36.3799772 34.9525286,37.9566276 32.9998075,37.9565217 C31.0470864,37.9564158 29.4641794,36.3795937 29.4642857,34.4345909 C29.464392,32.4895881 31.0474714,30.9129376 33.0001925,30.9130435 C34.9520491,30.9152262 36.5337354,32.4908323 36.5357143,34.4349743 L36.5357143,34.4349743 Z" id="Shape" fill="#2D4356"></path>
                    <path d="M8.64285714,26.2173913 L57.3571429,26.2173913 C57.7910809,26.2173913 58.1428571,25.8670055 58.1428571,25.4347826 C58.1428571,25.0025598 57.7910809,24.6521739 57.3571429,24.6521739 L55.7161039,24.6521739 C55.5981564,22.2280865 55.3631454,18.634723 54.8954529,17.8754009 C54.3313218,16.9563913 50.9820614,15.2608696 50.9820614,15.2608696 L48.7150714,17.390117 L46.4478929,15.2608696 C46.4478929,15.2608696 43.098825,16.9563913 42.5344268,17.8754009 C42.0670446,18.634723 41.8311496,22.2280904 41.7127464,24.6521739 L40.0018143,24.6521739 C39.8838668,22.2280865 39.6488557,18.634723 39.1811632,17.8754009 C38.6170361,16.9563913 35.2677757,15.2608696 35.2677757,15.2608696 L33.0007857,17.390117 L30.7336071,15.2608696 C30.7336071,15.2608696 27.3845393,16.9563913 26.8201411,17.8754009 C26.3527668,18.634723 26.1168718,22.2280865 25.9984686,24.6521739 L24.2875364,24.6521739 C24.1695889,22.2280865 23.9345779,18.634723 23.4668854,17.8754009 C22.9027504,16.9563913 19.55349,15.2608696 19.55349,15.2608696 L17.2865,17.390117 L15.0193214,15.2608696 C15.0193214,15.2608696 11.6702536,16.9563913 11.1058554,17.8754009 C10.6384811,18.634723 10.4025861,22.2280865 10.2841829,24.6521739 L8.64285714,24.6521739 C8.20891913,24.6521739 7.85714286,25.0025598 7.85714286,25.4347826 C7.85714286,25.8670055 8.20891913,26.2173913 8.64285714,26.2173913 Z M43.8864171,18.6889617 C44.5998253,18.1046263 45.3726114,17.5961814 46.1921743,17.1719178 L47.6369968,18.5288713 C48.242339,19.0974845 49.1877646,19.0974845 49.7931068,18.5288713 L51.2379057,17.1719178 C52.057427,17.5961503 52.8301524,18.1045977 53.5434704,18.6889617 C53.6875311,19.1001365 53.9276846,20.4301526 54.1410061,24.6521739 L43.2879346,24.6521739 C43.5016136,20.4313226 43.7422111,19.1007391 43.8864171,18.6889617 Z M28.1721314,18.6889617 C28.8855396,18.1046263 29.6583256,17.5961814 30.4778886,17.1719178 L31.9227111,18.5288713 C32.5280533,19.0974845 33.4734789,19.0974845 34.0788211,18.5288713 L35.52362,17.1719178 C36.3431412,17.5961503 37.1158667,18.1045977 37.8291846,18.6889617 C37.9732454,19.1001365 38.2133989,20.4301526 38.4267204,24.6521739 L27.5736489,24.6521739 C27.7873279,20.4313226 28.0279254,19.1007391 28.1721314,18.6889617 Z M12.4578457,18.6889617 C13.1712538,18.1046263 13.9440399,17.5961814 14.7636029,17.1719178 L16.2084254,18.5288713 C16.8137676,19.0974845 17.7591932,19.0974845 18.3645354,18.5288713 L19.8093343,17.1719178 C20.6288555,17.5961503 21.4015809,18.1045977 22.1148989,18.6889617 C22.2589596,19.1001365 22.4991132,20.4301526 22.7124346,24.6521739 L11.8593632,24.6521739 C12.0730421,20.4313226 12.3136396,19.1007391 12.4578457,18.6889617 Z" id="Shape" fill="#2D4356"></path>
                    <path d="M62.0714286,5.86956522 C62.7223356,5.86956522 63.25,5.34398645 63.25,4.69565217 C63.25,4.0473179 62.7223356,3.52173913 62.0714286,3.52173913 C61.4205215,3.52173913 60.8928571,4.0473179 60.8928571,4.69565217 C60.8936019,5.34367893 61.4208303,5.86882342 62.0714286,5.86956522 Z M62.0714286,4.10869565 C62.3968821,4.10869565 62.6607143,4.37148504 62.6607143,4.69565217 C62.6607143,5.01981931 62.3968821,5.2826087 62.0714286,5.2826087 C61.7459751,5.2826087 61.4821429,5.01981931 61.4821429,4.69565217 C61.4824634,4.37161736 61.7461079,4.10901489 62.0714286,4.10869565 L62.0714286,4.10869565 Z" id="Shape" fill="#2D4356"></path>
                    <path d="M27.8928571,2.34782609 C28.5437642,2.34782609 29.0714286,1.82224732 29.0714286,1.17391304 C29.0714286,0.525578772 28.5437642,-4.4408921e-16 27.8928571,-4.4408921e-16 C27.2419501,-4.4408921e-16 26.7142857,0.525578772 26.7142857,1.17391304 C26.7150305,1.8219398 27.2422588,2.34708429 27.8928571,2.34782609 Z M27.8928571,0.586956522 C28.2183107,0.586956522 28.4821429,0.849745908 28.4821429,1.17391304 C28.4821429,1.49808018 28.2183107,1.76086957 27.8928571,1.76086957 C27.5674036,1.76086957 27.3035714,1.49808018 27.3035714,1.17391304 C27.3038919,0.849878234 27.5675365,0.587275764 27.8928571,0.586956522 L27.8928571,0.586956522 Z" id="Shape" fill="#2D4356"></path>
                    <path d="M63.25,29.3478261 C62.816062,29.3478261 62.4642857,29.6982119 62.4642857,30.1304348 C62.4642857,30.5626576 62.816062,30.9130435 63.25,30.9130435 C63.683938,30.9130435 64.0357143,30.5626576 64.0357143,30.1304348 C64.0352185,29.6984166 63.6837325,29.3483199 63.25,29.3478261 Z M63.25,30.5217391 C63.033031,30.5217391 62.8571429,30.3465462 62.8571429,30.1304348 C62.8571429,29.9143234 63.033031,29.7391304 63.25,29.7391304 C63.466969,29.7391304 63.6428571,29.9143234 63.6428571,30.1304348 C63.6426406,30.3464568 63.4668792,30.5215234 63.25,30.5217391 Z" id="Shape" fill="#2D4356"></path>
                    <path d="M41.25,7.82608696 C41.683938,7.82608696 42.0357143,7.47570111 42.0357143,7.04347826 C42.0357143,6.61125541 41.683938,6.26086957 41.25,6.26086957 C40.816062,6.26086957 40.4642857,6.61125541 40.4642857,7.04347826 C40.4647815,7.4754964 40.8162675,7.82559314 41.25,7.82608696 L41.25,7.82608696 Z M41.25,6.65217391 C41.466969,6.65217391 41.6428571,6.82736684 41.6428571,7.04347826 C41.6428571,7.25958968 41.466969,7.43478261 41.25,7.43478261 C41.033031,7.43478261 40.8571429,7.25958968 40.8571429,7.04347826 C40.8573594,6.82745625 41.0331208,6.65238961 41.25,6.65217391 Z" id="Shape" fill="#2D4356"></path>
                    <path d="M3.14285714,12.1304348 C3.14285714,11.6982119 2.79108087,11.3478261 2.35714286,11.3478261 C1.92320484,11.3478261 1.57142857,11.6982119 1.57142857,12.1304348 C1.57142857,12.5626576 1.92320484,12.9130435 2.35714286,12.9130435 C2.79087535,12.9125497 3.14236137,12.5624529 3.14285714,12.1304348 L3.14285714,12.1304348 Z M1.96428571,12.1304348 C1.96428571,11.9143234 2.14017385,11.7391304 2.35714286,11.7391304 C2.57411187,11.7391304 2.75,11.9143234 2.75,12.1304348 C2.75,12.3465462 2.57411187,12.5217391 2.35714286,12.5217391 C2.14026361,12.5215234 1.96450227,12.3464568 1.96428571,12.1304348 Z" id="Shape" fill="#2D4356"></path>
                    <ellipse id="Oval" fill="#2D4356" cx="0.785714286" cy="56.3478261" rx="1" ry="1"></ellipse>
                    <path d="M4.32142857,55.5652174 L3.14285714,55.5652174 C2.70891913,55.5652174 2.35714286,55.9156032 2.35714286,56.3478261 C2.35714286,56.7800489 2.70891913,57.1304348 3.14285714,57.1304348 L4.32142857,57.1304348 C4.75536659,57.1304348 5.10714286,56.7800489 5.10714286,56.3478261 C5.10714286,55.9156032 4.75536659,55.5652174 4.32142857,55.5652174 Z" id="Path" fill="#2D4356"></path>
                    <path d="M62.8571429,55.5652174 L61.6785714,55.5652174 C61.2446334,55.5652174 60.8928571,55.9156032 60.8928571,56.3478261 C60.8928571,56.7800489 61.2446334,57.1304348 61.6785714,57.1304348 L62.8571429,57.1304348 C63.2910809,57.1304348 63.6428571,56.7800489 63.6428571,56.3478261 C63.6428571,55.9156032 63.2910809,55.5652174 62.8571429,55.5652174 Z" id="Path" fill="#2D4356"></path>
                    <ellipse id="Oval" fill="#2D4356" cx="65.2142857" cy="56.3478261" rx="1" ry="1"></ellipse>
                    <path d="M59.2119432,55.5652174 L43.2142857,55.5652174 L43.2142857,49.5179609 C43.2142857,45.0777404 39.0117632,41.4782609 34.4465275,41.4782609 L31.5534489,41.4782609 C26.9882132,41.4782609 22.7857143,45.0777404 22.7857143,49.5179609 L22.7857143,55.5652174 L6.78805679,55.5652174 C6.48288835,55.5255014 6.18223527,55.6653812 6.01695903,55.9239729 C5.8516828,56.1825646 5.8516828,56.5130876 6.01695903,56.7716793 C6.18223527,57.030271 6.48288835,57.1701507 6.78805679,57.1304348 L59.2119432,57.1304348 C59.5171116,57.1701507 59.8177647,57.030271 59.983041,56.7716793 C60.1483172,56.5130876 60.1483172,56.1825646 59.983041,55.9239729 C59.8177647,55.6653812 59.5171116,55.5255014 59.2119432,55.5652174 L59.2119432,55.5652174 Z M24.3571429,55.5652174 L24.3571429,49.5179609 C24.3571429,46.0689926 27.7198311,43.0434783 31.5534489,43.0434783 L34.4465275,43.0434783 C38.2801454,43.0434783 41.6428571,46.0689926 41.6428571,49.5179609 L41.6428571,55.5652174 L24.3571429,55.5652174 Z" id="Shape" fill="#2D4356"></path>
                    <polygon id="Path" fill="url(#linearGradient)" points="7.69332143 32.8738696 8.2775 32.1088696 7.90860714 31.9006957 7.53382143 32.7576522 7.52125 32.7576522 7.14017857 31.9065652 6.765 32.121 7.34289286 32.868 7.34289286 32.8801304 6.43932143 32.763913 6.43932143 33.1802609 7.34917857 33.0640435 7.34917857 33.0761739 6.765 33.8227826 7.11542857 34.0434783 7.51535714 33.1802609 7.52714286 33.1802609 7.89603571 34.0372174 8.28339286 33.816913 7.69332143 33.0820435 7.69332143 33.069913 8.62125 33.1802609 8.62125 32.763913 7.69332143 32.886"></polygon>
                    <polygon id="Path" fill="url(#linearGradient)" points="46.9790357 44.613 47.5632143 43.848 47.1943214 43.6398261 46.8195357 44.4967826 46.8069643 44.4967826 46.4258929 43.6456957 46.0507143 43.8601304 46.6286071 44.6071304 46.6286071 44.6192609 45.7250357 44.5030435 45.7250357 44.9193913 46.6348929 44.8031739 46.6348929 44.8153043 46.0507143 45.561913 46.4011429 45.7826087 46.8010714 44.9193913 46.8128571 44.9193913 47.18175 45.7763478 47.5691071 45.5560435 46.9790357 44.8211739 46.9790357 44.8090435 47.9069643 44.9193913 47.9069643 44.5030435 46.9790357 44.6251304"></polygon>
                    <polygon id="Path" fill="url(#linearGradient)" points="25.05525 12.5479565 24.7185714 12.978 24.9205 13.1047826 25.1507143 12.6078261 25.1577857 12.6078261 25.3699286 13.1012609 25.5930714 12.9744783 25.25325 12.551087 25.25325 12.5440435 25.7875357 12.6078261 25.7875357 12.3679565 25.25325 12.4383913 25.25325 12.4313478 25.5895357 11.9907391 25.3773929 11.871 25.1613214 12.3644348 25.15425 12.3644348 24.9350357 11.8741304 24.7185714 11.9977826 25.0517143 12.4278261 25.0517143 12.4348696 24.5311786 12.3679565 24.5311786 12.6078261 25.05525 12.540913"></polygon>
                    <polygon id="Path" fill="url(#linearGradient)" points="62.0714286 17.8876957 62.0714286 17.4795652 61.1611786 17.5996957 61.1611786 17.5875652 61.7343571 16.8370435 61.3725357 16.6327826 61.0048214 17.4733043 60.99225 17.4733043 60.6186429 16.6386522 60.2505357 16.8491739 60.8174286 17.5816957 60.8174286 17.5938261 59.9311429 17.4795652 59.9311429 17.8876957 60.8233214 17.7738261 60.8233214 17.7859565 60.2505357 18.5184783 60.5942857 18.7348696 60.9863571 17.8876957 60.9981429 17.8876957 61.3599643 18.7286087 61.7398571 18.5126087 61.1611786 17.7918261 61.1611786 17.7796957"></polygon>
                    <polygon id="Path" fill="url(#linearGradient)" points="49.2811786 1.79452174 49.7753929 1.14691304 49.4634643 0.970826087 49.1460357 1.69591304 49.1358214 1.69591304 48.8132857 0.975913043 48.4958571 1.15747826 48.9849643 1.78943478 48.9849643 1.7996087 48.2200714 1.7013913 48.2200714 2.05356522 48.9900714 1.95495652 48.9900714 1.96552174 48.4958571 2.59747826 48.7920714 2.78413043 49.1307143 2.05356522 49.1405357 2.05356522 49.4528571 2.77865217 49.7805 2.5923913 49.2811786 1.9706087 49.2811786 1.96004348 50.0665 2.05356522 50.0665 1.7013913 49.2811786 1.80469565"></polygon>
                    <path d="M46.4175918,59.0869565 L43.1538368,59.0869565 C42.7442342,59.1196469 42.4285609,59.460274 42.4285609,59.8695652 C42.4285609,60.2788564 42.7442342,60.6194836 43.1538368,60.6521739 L46.4175918,60.6521739 C46.8271944,60.6194836 47.1428677,60.2788564 47.1428677,59.8695652 C47.1428677,59.460274 46.8271944,59.1196469 46.4175918,59.0869565 L46.4175918,59.0869565 Z" id="Path" fill="url(#linearGradient)"></path>
                    <path d="M22.8461632,59.0869565 L19.5824082,59.0869565 C19.1728056,59.1196469 18.8571323,59.460274 18.8571323,59.8695652 C18.8571323,60.2788564 19.1728056,60.6194836 19.5824082,60.6521739 L22.8461632,60.6521739 C23.2557658,60.6194836 23.5714391,60.2788564 23.5714391,59.8695652 C23.5714391,59.460274 23.2557658,59.1196469 22.8461632,59.0869565 L22.8461632,59.0869565 Z" id="Path" fill="url(#linearGradient)"></path>
                    <path d="M40.8571429,59.0869565 L25.1428571,59.0869565 C24.7089191,59.0869565 24.3571429,59.4373424 24.3571429,59.8695652 C24.3571429,60.3017881 24.7089191,60.6521739 25.1428571,60.6521739 L31.405,60.6521739 L31.405,61.4347826 L28.2857143,61.4347826 C27.8517763,61.4347826 27.5,61.7851685 27.5,62.2173913 C27.5,62.6496142 27.8517763,63 28.2857143,63 L38.1071429,63 C38.5410809,63 38.8928571,62.6496142 38.8928571,62.2173913 C38.8928571,61.7851685 38.5410809,61.4347826 38.1071429,61.4347826 L34.595,61.4347826 L34.595,60.6521739 L40.8571429,60.6521739 C41.2910809,60.6521739 41.6428571,60.3017881 41.6428571,59.8695652 C41.6428571,59.4373424 41.2910809,59.0869565 40.8571429,59.0869565 Z" id="Path" fill="url(#linearGradient)"></path>
                </g>
            </g>
        </g>
    </g>
</svg>