<?xml version="1.0" encoding="UTF-8"?>
<svg width="62px" height="60px" viewBox="0 0 62 60" version="1.1" xmlns="http://www.w3.org/2000/svg" xmlns:xlink="http://www.w3.org/1999/xlink">
    <!-- Generator: Sketch 57.1 (83088) - https://sketch.com -->
    <title>logo 2</title>
    <desc>Created with Sketch.</desc>
    <defs>
        <linearGradient x1="0%" y1="50%" x2="100%" y2="50%" id="linearGradient">
            <stop stop-color="#FF8569" offset="0%"></stop>
            <stop stop-color="#FF4272" offset="100%"></stop>
        </linearGradient>
    </defs>
    <g id="Welcome" stroke="none" stroke-width="1" fill="none" fill-rule="evenodd">
        <g id="Desktop" transform="translate(-683.000000, -3120.000000)" fill-rule="nonzero">
            <g id="Who-we-are?" transform="translate(74.000000, 2838.000000)">
                <g id="2" transform="translate(65.000000, 264.000000)">
                    <g id="logo-2" transform="translate(544.000000, 18.000000)">
                        <path d="M10.4516082,41.6691921 C10.6044244,41.7134132 10.7678129,41.70721 10.9166878,41.651535 C11.9096743,41.2778524 13.0409486,41.7880751 14.2382388,42.3296554 C14.4794902,42.4387224 14.720198,42.5474832 14.9596384,42.649163 C15.9985873,43.0908256 17.1925971,43.59827 18.4722098,43.59827 C19.3699667,43.59827 20.2470949,43.3341697 20.9903731,42.8402673 C21.1299429,42.7505402 21.2755922,42.6509432 21.4265976,42.5474832 C21.9903759,42.1617973 22.6292914,41.7243797 23.1700812,41.6976345 C23.5994694,41.784568 24.0120739,41.9377927 24.3925016,42.1515922 L24.5099645,42.2103292 C25.60194,42.757913 27.0980743,43.5081718 28.5645931,42.666067 C30.0239155,41.8285351 30.1502131,40.1045575 30.1184706,38.880637 L30.1150396,38.7528751 C30.1117718,38.1692203 30.0731926,37.5862702 29.9995053,37.0070999 C29.9451784,36.6383252 29.8773771,36.2712658 29.8095539,35.9045632 C29.7733004,35.708288 29.7419327,35.5113533 29.7078502,35.3147933 L32.0068396,35.3147933 C31.972871,35.5107803 31.9416392,35.7072141 31.9053159,35.9028011 C31.8374927,36.27021 31.7697135,36.6375973 31.7151624,37.0063719 C31.641555,37.5823853 31.6028702,38.1621771 31.5993122,38.742688 L31.5957012,38.8806334 C31.5634592,40.1045539 31.6900727,41.828182 33.1515661,42.6660634 C34.6202192,43.5085213 36.1169118,42.7582841 37.210298,42.2106787 L37.3272686,42.1523021 C37.7022136,41.9379291 38.1099531,41.7842848 38.5347784,41.6972886 L38.5534322,41.6976489 C39.0955078,41.7243941 39.7351359,42.1618117 40.2997665,42.5478507 C40.4507939,42.6513107 40.5967996,42.7508789 40.7366853,42.8406348 C41.4809226,43.33454 42.3589775,43.59827 43.2575302,43.59827 C44.5385792,43.59827 45.7342751,43.0908364 46.7742527,42.6495522 C48.1761992,42.05446 49.9221735,41.3140531 51.1648163,41.7831635 C51.549422,41.8996339 51.9643056,41.7330711 52.1553122,41.3855104 C53.4991408,38.5660554 54.3672845,34.1345293 54.3672845,30.0957266 C54.3672845,17.0777346 43.8207539,6.48684171 30.8570804,6.48684171 C17.8935502,6.48684171 7.34687633,17.0777202 7.34687633,30.0957266 C7.34687633,34.3766374 8.31042735,38.5723687 9.92458286,41.3200349 C10.0367422,41.5092104 10.2308239,41.6377906 10.4516082,41.6691921 Z M28.4720106,33.8733875 C28.3147273,33.4862926 28.1457404,33.0738833 28.0492384,32.8496989 L27.5834424,31.7676157 L26.4089351,31.9970359 C25.4124766,32.2057731 24.5602569,32.8343088 24.0790922,33.7153597 C23.9238148,33.9689914 23.7871064,34.2331263 23.67,34.5057687 C23.4713795,33.4514085 23.4574287,32.3715506 23.6287469,31.3125914 C23.8970388,29.7849755 24.6184788,28.6296548 25.6597163,28.059942 L26.5005735,27.5999809 L26.4064261,26.6600448 C26.3136076,25.7517902 26.2938089,24.8377779 26.3472135,23.9264755 C26.5104853,20.3031562 28.1389873,16.8930412 30.8723473,14.4507567 C33.6060152,16.8930483 35.2343964,20.3035802 35.3969192,23.9271601 C35.450545,24.8451056 35.4296727,25.7657808 35.3344996,26.6804802 L35.2397939,27.6144345 L36.0724224,28.0771667 C37.1346429,28.6673113 37.8567808,29.8606381 38.1061029,31.4364652 C38.2541058,32.4554525 38.2331562,33.4912125 38.0440653,34.503639 C37.9175113,34.2088334 37.7678196,33.9241091 37.5963392,33.6520319 C37.1196,32.9067206 36.4644992,32.1251222 35.22114,31.9794329 L34.1241429,31.8510114 L33.6936343,32.848989 C33.5967759,33.0731734 33.427451,33.4859575 33.2703037,33.8734019 L28.4720106,33.8733875 Z M30.8570988,7.92821154 C43.0104049,7.92821154 52.8979151,17.8726659 52.8979151,30.0956978 C52.8979151,33.7002755 52.1823931,37.610145 51.0549686,40.2626645 C49.418438,39.9596104 47.6473004,40.7089215 46.1909608,41.3263374 C44.2688473,42.1413475 42.9971473,42.5685816 41.5413882,41.6346274 C41.41296,41.5519307 41.2787718,41.4604343 41.1399404,41.3653993 C40.4493722,40.8931647 39.5898355,40.3054848 38.6273241,40.2583547 C37.9471812,40.2227702 37.1723069,40.6116235 36.6270061,40.8843686 L36.5423657,40.9269259 C35.4446302,41.4762465 34.61238,41.8341566 33.8927327,41.4217256 C33.2918265,41.0772133 33.0288943,40.2815576 33.0644094,38.9182792 L33.0680204,38.7792779 C33.0711244,38.2558075 33.1050072,37.7329486 33.1695,37.2133063 C33.2215163,36.8610285 33.2864706,36.5105524 33.3510429,36.1604115 C33.4032833,35.8789784 33.4509612,35.5969687 33.4968245,35.3147861 L34.2686939,35.3147861 C34.2686939,35.3147861 34.8405429,33.8888825 35.0467935,33.410612 C35.6326127,33.4792766 35.9662371,33.815645 36.3514996,34.4181136 C36.8365114,35.1764875 37.2304286,36.4179822 37.4843976,38.1662655 C37.4843976,38.1662655 37.5345992,38.5121651 37.5966808,38.9383434 C37.6296612,39.164243 37.6999751,39.278636 37.7857139,39.278636 C37.862122,39.278636 37.9507335,39.1881883 38.035778,39.0045036 L38.3622282,38.2982183 C39.5141327,35.8046274 39.8886318,33.3089249 39.5582363,31.2157979 C39.25044,29.2701223 38.3033792,27.6601592 36.7966763,26.8229805 C36.8998621,25.8320598 36.9223022,24.8346436 36.8637833,23.8402222 C36.6492031,19.5278345 34.5769514,15.5079542 31.1634588,12.7823846 C31.1634588,12.7823846 31.0985045,12.7288943 31.0178131,12.6627485 C30.9325862,12.5961273 30.8117338,12.5961273 30.7265069,12.6627485 L30.5808612,12.7823846 C27.1676274,15.5081665 25.0954389,19.527931 24.8805367,23.8402402 C24.8222371,24.8273151 24.8434684,25.8173646 24.9440327,26.8011613 C23.4613727,27.6123084 22.5128939,29.1768854 22.180702,31.0676653 C21.8079514,33.1899771 22.173862,35.7465571 23.3530347,38.2982363 C23.3530347,38.2982363 23.4994004,38.6145765 23.6798449,39.0045217 C23.7648894,39.1881919 23.8532951,39.2786541 23.9297069,39.2786541 C24.0154457,39.2786541 24.0859359,39.1642647 24.1186041,38.9383615 L24.2308653,38.1662835 C24.4801653,36.4524893 24.8625808,35.2261257 25.3346988,34.4642312 C25.6041514,33.9304193 26.1038384,33.543607 26.6957486,33.41063 C26.9016429,33.8888897 27.4734918,35.3148041 27.4734918,35.3148041 L28.2178947,35.3148041 C28.2638792,35.5976462 28.3117041,35.8800702 28.3638784,36.162188 C28.4284506,36.5116299 28.4933608,36.8614213 28.5451971,37.213328 C28.6096826,37.7361386 28.6433998,38.2621602 28.6461808,38.7887767 L28.6494098,38.9175729 C28.6849469,40.2819252 28.4223527,41.0775808 27.8225669,41.4217436 C27.1057886,41.8345278 26.2745927,41.4762681 25.1788298,40.9269439 L25.0604449,40.8678465 C24.5490429,40.6116379 23.7743633,40.2249179 23.0961563,40.2583691 C22.1344053,40.3055029 21.2755849,40.8931827 20.5857367,41.3654137 C20.4468796,41.4604488 20.3130955,41.5522983 20.1850053,41.6346418 C18.7317808,42.5685961 17.4620094,42.1417367 15.5436869,41.3267266 C15.3144624,41.2292484 15.0843233,41.1250641 14.8534751,41.0205699 C13.6594837,40.4806616 12.3246257,39.8777174 10.9495837,40.1475832 C9.38423388,37.1802407 8.81628612,33.0612278 8.81628612,30.0957086 C8.81628612,17.8726732 18.7037963,7.92821154 30.8570988,7.92821154 L30.8570988,7.92821154 Z" id="Shape" fill="#2D4356"></path>
                        <path d="M30.8574551,18.0180094 C29.6212224,18.0180094 28.6530061,19.2841592 28.6530061,20.9008067 C28.6530061,22.5174542 29.6212151,23.783604 30.8574551,23.783604 C32.0932837,23.783604 33.0611694,22.5174326 33.0611694,20.9008067 C33.0611694,19.2841808 32.0932837,18.0180094 30.8574551,18.0180094 Z M30.8574551,22.3422054 C30.5577514,22.3422054 30.1223939,21.780568 30.1223939,20.9008067 C30.1223939,20.0210454 30.5577441,19.459408 30.8574551,19.459408 C31.1568208,19.459408 31.5917816,20.0210454 31.5917816,20.9008067 C31.5917816,21.780568 31.1568245,22.3422054 30.8574551,22.3422054 L30.8574551,22.3422054 Z" id="Shape" fill="#2D4356"></path>
                        <path d="M28.8237527,44.9425364 C27.5708865,46.4138441 26.6338653,46.0475162 25.3382841,45.5400682 C24.699637,45.2368102 24.0028568,45.0693987 23.293631,45.0488107 C22.1408743,45.0927986 21.2339645,45.5713898 20.3570302,46.0344716 C20.1781984,46.1288039 19.9993702,46.2231146 19.8185657,46.313202 C17.9262257,47.2569866 16.2326498,46.8164231 13.8649739,46.0366048 L13.6011012,45.9493101 C11.7623939,45.340539 9.86054694,44.7109829 7.87152857,45.2927026 C7.48332264,45.4070339 7.26279721,45.8081215 7.37865206,46.1891373 C7.49450691,46.5701531 7.90298658,46.7871971 8.29160816,46.6742328 C9.83238612,46.2231146 11.4348637,46.7530809 13.1313306,47.3150714 L13.3973339,47.4030472 C14.6862771,47.8274202 16.0801273,48.2863255 17.5584857,48.2863255 C18.5758803,48.2907154 19.579396,48.0547412 20.484191,47.5983531 C20.6752114,47.5029649 20.8642739,47.4034039 21.053329,47.3034357 C21.816698,46.9005287 22.537778,46.5201184 23.35086,46.4888004 C23.851909,46.5319391 24.3407932,46.6640523 24.7936776,46.8786988 C26.153111,47.4107983 28.0156776,48.1395622 29.9516473,45.8666243 C30.2109607,45.5610283 30.169024,45.1071644 29.8579231,44.8522855 C29.5468221,44.5974066 29.0840765,44.6377941 28.8237343,44.9425472 L28.8237527,44.9425364 Z" id="Path" fill="#2D4356"></path>
                        <path d="M48.113078,45.9489606 L47.8490473,46.0362337 C45.4817167,46.8160736 43.7881408,47.2569902 41.8954224,46.3132056 C41.714618,46.2231182 41.5359918,46.1288075 41.35734,46.0344752 C40.4802257,45.5713898 39.5733159,45.0928022 38.4206951,45.0488143 C37.7111679,45.067563 37.0139499,45.2350674 36.3758914,45.5400718 C35.0797959,46.0478694 34.143491,46.4138477 32.8904449,44.94254 C32.6301027,44.6377868 32.167357,44.5973994 31.8562561,44.8522783 C31.5451552,45.1071572 31.5032185,45.561021 31.7625318,45.8666171 C33.6982996,48.1399154 35.5605061,47.4114757 36.9205016,46.8786916 C37.3736349,46.6646953 37.8623959,46.5326155 38.3633192,46.4887932 C39.1765776,46.5201112 39.8976612,46.9008495 40.6610302,47.3038033 C40.8497033,47.4033931 41.0387804,47.5029577 41.2296061,47.5983459 C42.1344203,48.0548502 43.1380224,48.2908305 44.1554878,48.2863182 C45.6338424,48.2863182 47.0278984,47.8274129 48.316838,47.4026652 L48.5830212,47.3150642 C50.2794882,46.7530737 51.8819694,46.2231074 53.4223653,46.6742256 C53.6741408,46.7485331 53.947203,46.6852338 54.138437,46.5082308 C54.3296709,46.3312279 54.4099376,46.0674919 54.3489263,45.8166162 C54.287915,45.5657405 54.0949223,45.3659519 53.8428269,45.2926954 C51.8543486,44.7113361 49.9522996,45.340539 48.113078,45.9489606 Z" id="Path" fill="#2D4356"></path>
                        <path d="M54.3673469,4.68454565 C54.9759873,4.68454565 55.4693878,4.20054353 55.4693878,3.60349665 C55.4693878,3.00644978 54.9759873,2.52244766 54.3673469,2.52244766 C53.7587066,2.52244766 53.2653061,3.00644978 53.2653061,3.60349665 C53.2660025,4.20026034 53.7589953,4.68386254 54.3673469,4.68454565 Z M54.3673469,3.06297216 C54.6716671,3.06297216 54.9183673,3.30497322 54.9183673,3.60349665 C54.9183673,3.90202009 54.6716671,4.14402115 54.3673469,4.14402115 C54.0630268,4.14402115 53.8163265,3.90202009 53.8163265,3.60349665 C53.8166262,3.30509508 54.063151,3.06326614 54.3673469,3.06297216 Z" id="Shape" fill="#2D4356"></path>
                        <path d="M31.2244898,2.88279732 C31.8331301,2.88279732 32.3265306,2.3987952 32.3265306,1.80174833 C32.3265306,1.20470145 31.8331301,0.720699331 31.2244898,0.720699331 C30.6158495,0.720699331 30.122449,1.20470145 30.122449,1.80174833 C30.1231454,2.39851202 30.6161381,2.88211421 31.2244898,2.88279732 L31.2244898,2.88279732 Z M31.2244898,1.26122383 C31.52881,1.26122383 31.7755102,1.50322489 31.7755102,1.80174833 C31.7755102,2.10027176 31.52881,2.34227283 31.2244898,2.34227283 C30.9201696,2.34227283 30.6734694,2.10027176 30.6734694,1.80174833 C30.6737691,1.50334675 30.9202939,1.26151782 31.2244898,1.26122383 Z" id="Shape" fill="#2D4356"></path>
                        <path d="M54,15.8553853 C54.4057602,15.8553853 54.7346939,15.5327172 54.7346939,15.1346859 C54.7346939,14.7366547 54.4057602,14.4139866 54,14.4139866 C53.5942398,14.4139866 53.2653061,14.7366547 53.2653061,15.1346859 C53.2657697,15.5325287 53.594432,15.8549305 54,15.8553853 Z M54,14.7743363 C54.2028801,14.7743363 54.3673469,14.9356703 54.3673469,15.1346859 C54.3673469,15.3337016 54.2028801,15.4950356 54,15.4950356 C53.7971199,15.4950356 53.6326531,15.3337016 53.6326531,15.1346859 C53.6328556,14.9357527 53.7972038,14.7745349 54,14.7743363 Z" id="Shape" fill="#2D4356"></path>
                        <path d="M18.3673469,8.64839197 C18.7731072,8.64839197 19.1020408,8.32572389 19.1020408,7.92769264 C19.1020408,7.52966139 18.7731072,7.20699331 18.3673469,7.20699331 C17.9615867,7.20699331 17.6326531,7.52966139 17.6326531,7.92769264 C17.6331166,8.32553537 17.9617789,8.64793722 18.3673469,8.64839197 Z M18.3673469,7.56734297 C18.5702271,7.56734297 18.7346939,7.72867701 18.7346939,7.92769264 C18.7346939,8.12670826 18.5702271,8.28804231 18.3673469,8.28804231 C18.1644668,8.28804231 18,8.12670826 18,7.92769264 C18.0002025,7.72875935 18.1645508,7.56754161 18.3673469,7.56734297 L18.3673469,7.56734297 Z" id="Shape" fill="#2D4356"></path>
                        <path d="M8.08163265,15.8553853 C8.48739288,15.8553853 8.81632653,15.5327172 8.81632653,15.1346859 C8.81632653,14.7366547 8.48739288,14.4139866 8.08163265,14.4139866 C7.67587243,14.4139866 7.34693878,14.7366547 7.34693878,15.1346859 C7.34740236,15.5325287 7.6760646,15.8549305 8.08163265,15.8553853 L8.08163265,15.8553853 Z M8.08163265,14.7743363 C8.28451277,14.7743363 8.44897959,14.9356703 8.44897959,15.1346859 C8.44897959,15.3337016 8.28451277,15.4950356 8.08163265,15.4950356 C7.87875254,15.4950356 7.71428571,15.3337016 7.71428571,15.1346859 C7.71448821,14.9357527 7.87883648,14.7745349 8.08163265,14.7743363 Z" id="Shape" fill="#2D4356"></path>
                        <ellipse id="Oval" fill="#2D4356" cx="0.734693878" cy="52.9714008" rx="1" ry="1"></ellipse>
                        <path d="M4.04081633,52.2507015 L2.93877551,52.2507015 C2.53301529,52.2507015 2.20408163,52.5733696 2.20408163,52.9714008 C2.20408163,53.3694321 2.53301529,53.6921002 2.93877551,53.6921002 L4.04081633,53.6921002 C4.44657655,53.6921002 4.7755102,53.3694321 4.7755102,52.9714008 C4.7755102,52.5733696 4.44657655,52.2507015 4.04081633,52.2507015 Z" id="Path" fill="#2D4356"></path>
                        <path d="M58.7755102,52.2507015 L57.6734694,52.2507015 C57.2677092,52.2507015 56.9387755,52.5733696 56.9387755,52.9714008 C56.9387755,53.3694321 57.2677092,53.6921002 57.6734694,53.6921002 L58.7755102,53.6921002 C59.1812704,53.6921002 59.5102041,53.3694321 59.5102041,52.9714008 C59.5102041,52.5733696 59.1812704,52.2507015 58.7755102,52.2507015 Z" id="Path" fill="#2D4356"></path>
                        <ellipse id="Oval" fill="#2D4356" cx="60.9795918" cy="52.9714008" rx="1" ry="1"></ellipse>
                        <path d="M55.3670118,52.2507015 L46.6030396,52.2507015 C47.1921318,52.0949836 47.7646971,51.908827 48.316838,51.726872 L48.5830212,51.639271 C50.2794882,51.0776336 51.8819694,50.5469611 53.4223653,50.9984323 C53.6741408,51.0727399 53.947203,51.0094406 54.138437,50.8324376 C54.3296709,50.6554347 54.4099376,50.3916987 54.3489263,50.140823 C54.287915,49.8899473 54.0949223,49.6901586 53.8428269,49.6169022 C51.8543449,49.0351825 49.9522996,49.6647386 48.1130743,50.2731602 L47.8490437,50.3604333 C45.4817131,51.1402732 43.7881371,51.5808367 41.8954188,50.6374052 C41.7146143,50.5473178 41.5359882,50.4530071 41.3573363,50.3586748 C40.480222,49.8955894 39.5733122,49.4170018 38.4206914,49.3730139 C37.7110711,49.3910812 37.0137078,49.5586205 36.3758878,49.8642714 C35.0797922,50.3717158 34.1434873,50.7384004 32.8904412,49.2667396 C32.630099,48.9619864 32.1673534,48.921599 31.8562525,49.1764779 C31.5451515,49.4313568 31.5032148,49.8852206 31.7625282,50.1908167 C33.6982959,52.464115 35.5605024,51.7353438 36.920498,51.2028911 C37.3738741,50.9895311 37.8625157,50.8574835 38.3633155,50.8129928 C39.1765739,50.8443108 39.8976576,51.225049 40.6610265,51.6280029 C40.8496996,51.7275927 41.0387767,51.8271573 41.2296024,51.9225455 C41.4813658,52.0480585 41.7410456,52.1576671 42.0070555,52.2507015 L19.7065249,52.2507015 C19.9726095,52.1576776 20.2323631,52.0480714 20.4841984,51.9225527 C20.6752188,51.8271645 20.8642812,51.7276035 21.0533363,51.6276353 C21.8167053,51.2247283 22.5377853,50.844318 23.3508673,50.813 C23.8520718,50.8552901 24.3411101,50.9874449 24.7936849,51.2028984 C26.1531184,51.735351 28.0156849,52.4637618 29.9516547,50.1908239 C30.2109681,49.8852278 30.1690313,49.431364 29.8579304,49.1764851 C29.5468295,48.9216062 29.0840838,48.9619936 28.8237416,49.2667468 C27.5708755,50.7380545 26.6338543,50.3713735 25.3382731,49.8642786 C24.6998041,49.5605355 24.0029164,49.3930981 23.29362,49.3730211 C22.1408633,49.417009 21.2339535,49.8956002 20.3570192,50.358682 C20.1781873,50.4530143 19.9993592,50.547325 19.8185547,50.6374124 C17.9262147,51.581197 16.2326388,51.1406335 13.8649629,50.3608152 L13.6010902,50.2735205 C11.7623829,49.6647494 9.86053592,49.0355429 7.87151755,49.616913 C7.48331162,49.7312443 7.26278619,50.1323319 7.37864104,50.5133477 C7.49449589,50.8943635 7.90297556,51.1114075 8.29159714,50.9984432 C9.8323751,50.5469719 11.4348527,51.0776444 13.1313196,51.6392818 L13.3973229,51.7272576 C13.9493755,51.9090143 14.5218086,52.0950412 15.1107429,52.2507159 L6.34727388,52.2507159 C6.06192158,52.2141417 5.78079142,52.3429561 5.62624741,52.5810915 C5.47170339,52.819227 5.47170339,53.1236035 5.62624741,53.3617389 C5.78079142,53.5998744 6.06192158,53.7286887 6.34727388,53.6921146 L55.3670118,53.6921146 C55.6523641,53.7286887 55.9334943,53.5998744 56.0880383,53.3617389 C56.2425823,53.1236035 56.2425823,52.819227 56.0880383,52.5810915 C55.9334943,52.3429561 55.6523641,52.2141417 55.3670118,52.2507159 L55.3670118,52.2507015 Z" id="Path" fill="#2D4356"></path>
                        <path d="M29.387711,30.269898 L32.3264865,30.269898 C32.7322468,30.269898 33.0611804,29.9472299 33.0611804,29.5491987 C33.0611804,29.1511674 32.7322468,28.8284993 32.3264865,28.8284993 L29.387711,28.8284993 C28.9819508,28.8284993 28.6530171,29.1511674 28.6530171,29.5491987 C28.6530171,29.9472299 28.9819508,30.269898 29.387711,30.269898 Z" id="Path" fill="url(#linearGradient)"></path>
                        <polygon id="Path" fill="url(#linearGradient)" points="3.15293878 13.3369015 3.69918367 12.6324179 3.3542449 12.4407118 3.00379592 13.2298776 2.99204082 13.2298776 2.63571429 12.4461171 2.28489796 12.6435887 2.82526531 13.3314962 2.82526531 13.3426671 1.98036735 13.2356432 1.98036735 13.6190553 2.83114286 13.5120314 2.83114286 13.5232022 2.28489796 14.2107494 2.61257143 14.4139866 2.98653061 13.6190553 2.99755102 13.6190553 3.3424898 14.408221 3.70469388 14.2053442 3.15293878 13.5286075 3.15293878 13.5174367 4.02061224 13.6190553 4.02061224 13.2356432 3.15293878 13.3480723"></polygon>
                        <polygon id="Path" fill="url(#linearGradient)" points="12.2256735 0.997808224 12.5401224 0.5920545 12.3417551 0.481787503 12.1397143 0.936188431 12.133102 0.936188431 11.9281224 0.4846703 11.7257143 0.598540794 12.0372245 0.994565077 12.0372245 1.00105137 11.5504898 0.939431578 11.5504898 1.16032592 12.0405306 1.09870613 12.0405306 1.10519242 11.7257143 1.50121671 11.9145306 1.61797 12.1297959 1.16032592 12.1364082 1.16032592 12.3347755 1.61472685 12.5434286 1.49797356 12.2256735 1.10807522 12.2256735 1.10158893 12.7252653 1.16032592 12.7252653 0.939431578 12.2256735 1.00429452"></polygon>
                        <polygon id="Path" fill="url(#linearGradient)" points="42.1798776 1.24428739 41.6442857 1.91886197 41.9657143 2.11813533 42.3323265 1.33797831 42.3433469 1.33797831 42.6816735 2.11236974 43.036898 1.91345672 42.4957959 1.24969264 42.4957959 1.2385218 43.3469388 1.33797831 43.3469388 0.962133607 42.4957959 1.07276095 42.4957959 1.06159011 43.0317551 0.370439456 42.6934286 0.182336931 42.3495918 0.956368012 42.3378367 0.956368012 41.9884898 0.187742176 41.6442857 0.381610296 42.1743673 1.05618487 42.1743673 1.06735571 41.3456327 0.962133607 41.3456327 1.33797831 42.1798776 1.23311656"></polygon>
                        <polygon id="Path" fill="url(#linearGradient)" points="41.7680816 7.57563102 41.3059592 8.15759573 41.5829388 8.32948252 41.8995918 7.65670969 41.9087755 7.65670969 42.2008163 8.32443762 42.5071837 8.15291118 42.0402857 7.58031556 42.0402857 7.57058612 42.7746122 7.65670969 42.7746122 7.33239499 42.0402857 7.4275273 42.0402857 7.41815821 42.5024082 6.82177952 42.2107347 6.65962217 41.9139184 7.3273501 41.9043673 7.3273501 41.6027755 6.66430671 41.3059592 6.83150896 41.7633061 7.41347367 41.7633061 7.42284276 41.0480816 7.33239499 41.0480816 7.65670969 41.7680816 7.56590158"></polygon>
                        <path d="M43.4034624,55.4938485 L40.3516396,55.4938485 C39.9686346,55.5239528 39.6734595,55.8376342 39.6734595,56.2145478 C39.6734595,56.5914615 39.9686346,56.9051428 40.3516396,56.9352471 L43.4034624,56.9352471 C43.7864675,56.9051428 44.0816425,56.5914615 44.0816425,56.2145478 C44.0816425,55.8376342 43.7864675,55.5239528 43.4034624,55.4938485 L43.4034624,55.4938485 Z" id="Path" fill="url(#linearGradient)"></path>
                        <path d="M21.3626461,55.4938485 L18.3108233,55.4938485 C17.9278182,55.5239528 17.6326432,55.8376342 17.6326432,56.2145478 C17.6326432,56.5914615 17.9278182,56.9051428 18.3108233,56.9352471 L21.3626461,56.9352471 C21.7456511,56.9051428 22.0408262,56.5914615 22.0408262,56.2145478 C22.0408262,55.8376342 21.7456511,55.5239528 21.3626461,55.4938485 L21.3626461,55.4938485 Z" id="Path" fill="url(#linearGradient)"></path>
                        <path d="M38.2040816,55.4938485 L23.5102041,55.4938485 C23.1044439,55.4938485 22.7755102,55.8165166 22.7755102,56.2145478 C22.7755102,56.6125791 23.1044439,56.9352471 23.5102041,56.9352471 L29.3657143,56.9352471 L29.3657143,57.6559465 L26.4489796,57.6559465 C26.0432194,57.6559465 25.7142857,57.9786146 25.7142857,58.3766458 C25.7142857,58.7746771 26.0432194,59.0973451 26.4489796,59.0973451 L35.6326531,59.0973451 C36.0384133,59.0973451 36.3673469,58.7746771 36.3673469,58.3766458 C36.3673469,57.9786146 36.0384133,57.6559465 35.6326531,57.6559465 L32.3485714,57.6559465 L32.3485714,56.9352471 L38.2040816,56.9352471 C38.6098419,56.9352471 38.9387755,56.6125791 38.9387755,56.2145478 C38.9387755,55.8165166 38.6098419,55.4938485 38.2040816,55.4938485 Z" id="Path" fill="url(#linearGradient)"></path>
                    </g>
                </g>
            </g>
        </g>
    </g>
</svg>