<?xml version="1.0" encoding="UTF-8"?>
<svg width="62px" height="59px" viewBox="0 0 62 59" version="1.1" xmlns="http://www.w3.org/2000/svg" xmlns:xlink="http://www.w3.org/1999/xlink">
    <!-- Generator: Sketch 57.1 (83088) - https://sketch.com -->
    <title>logo 3</title>
    <desc>Created with Sketch.</desc>
    <defs>
        <linearGradient x1="0%" y1="50%" x2="100%" y2="50%" id="linearGradient">
            <stop stop-color="#FF8569" offset="0%"></stop>
            <stop stop-color="#FF4272" offset="100%"></stop>
        </linearGradient>
    </defs>
    <g id="Welcome" stroke="none" stroke-width="1" fill="none" fill-rule="evenodd">
        <g id="Desktop" transform="translate(-271.000000, -3327.000000)" fill-rule="nonzero">
            <g id="Who-we-are?" transform="translate(74.000000, 2838.000000)">
                <g id="3" transform="translate(185.000000, 489.000000)">
                    <g id="logo-3" transform="translate(12.000000, 0.000000)">
                        <path d="M58.6785714,4.425 C58.0671133,4.425 57.5714286,5.08537999 57.5714286,5.9 C57.5714286,6.71462001 58.0671133,7.375 58.6785714,7.375 C59.2900295,7.375 59.7857143,6.71462001 59.7857143,5.9 C59.7850147,5.08576638 59.2897395,4.42593205 58.6785714,4.425 Z M58.6785714,6.6375 C58.3728424,6.6375 58.125,6.30731 58.125,5.9 C58.125,5.49269 58.3728424,5.1625 58.6785714,5.1625 C58.9843005,5.1625 59.2321429,5.49269 59.2321429,5.9 C59.2318418,6.30714374 58.9841757,6.63709888 58.6785714,6.6375 Z" id="Shape" fill="#2D4356"></path>
                        <path d="M26.5714286,2.95 C27.1828867,2.95 27.6785714,2.28962001 27.6785714,1.475 C27.6785714,0.660379994 27.1828867,0 26.5714286,0 C25.9599705,0 25.4642857,0.660379994 25.4642857,1.475 C25.4649853,2.28923362 25.9602605,2.94906795 26.5714286,2.95 L26.5714286,2.95 Z M26.5714286,0.7375 C26.8771576,0.7375 27.125,1.06769 27.125,1.475 C27.125,1.88231 26.8771576,2.2125 26.5714286,2.2125 C26.2656995,2.2125 26.0178571,1.88231 26.0178571,1.475 C26.0181582,1.06785626 26.2658243,0.737901122 26.5714286,0.7375 L26.5714286,0.7375 Z" id="Shape" fill="#2D4356"></path>
                        <path d="M43.9166667,3.93333333 C44.3243054,3.93333333 44.6547619,3.49308 44.6547619,2.95 C44.6547619,2.40692 44.3243054,1.96666667 43.9166667,1.96666667 C43.5090279,1.96666667 43.1785714,2.40692 43.1785714,2.95 C43.1790372,3.49282279 43.509221,3.93271287 43.9166667,3.93333333 Z M43.9166667,2.45833333 C44.120486,2.45833333 44.2857143,2.67846 44.2857143,2.95 C44.2857143,3.22154 44.120486,3.44166667 43.9166667,3.44166667 C43.7128473,3.44166667 43.547619,3.22154 43.547619,2.95 C43.5478225,2.67857234 43.7129316,2.45860435 43.9166667,2.45833333 Z" id="Shape" fill="#2D4356"></path>
                        <path d="M20.6666667,20.1583333 C21.0743054,20.1583333 21.4047619,19.71808 21.4047619,19.175 C21.4047619,18.63192 21.0743054,18.1916667 20.6666667,18.1916667 C20.2590279,18.1916667 19.9285714,18.63192 19.9285714,19.175 C19.9290372,19.7178228 20.259221,20.1577129 20.6666667,20.1583333 Z M20.6666667,18.6833333 C20.870486,18.6833333 21.0357143,18.90346 21.0357143,19.175 C21.0357143,19.44654 20.870486,19.6666667 20.6666667,19.6666667 C20.4628473,19.6666667 20.297619,19.44654 20.297619,19.175 C20.2978225,18.9035723 20.4629316,18.6836044 20.6666667,18.6833333 L20.6666667,18.6833333 Z" id="Shape" fill="#2D4356"></path>
                        <path d="M41.702381,19.175 C42.1100197,19.175 42.4404762,18.7347467 42.4404762,18.1916667 C42.4404762,17.6485867 42.1100197,17.2083333 41.702381,17.2083333 C41.2947422,17.2083333 40.9642857,17.6485867 40.9642857,18.1916667 C40.9647514,18.7344895 41.2949353,19.1743795 41.702381,19.175 L41.702381,19.175 Z M41.702381,17.7 C41.9062003,17.7 42.0714286,17.9201267 42.0714286,18.1916667 C42.0714286,18.4632067 41.9062003,18.6833333 41.702381,18.6833333 C41.4985616,18.6833333 41.3333333,18.4632067 41.3333333,18.1916667 C41.3335368,17.920239 41.4986459,17.700271 41.702381,17.7 L41.702381,17.7 Z" id="Shape" fill="#2D4356"></path>
                        <ellipse id="Oval" fill="#2D4356" cx="0.738095238" cy="50.6416667" rx="1" ry="1"></ellipse>
                        <path d="M4.05952381,49.6583333 L2.95238095,49.6583333 C2.54474221,49.6583333 2.21428571,50.0985867 2.21428571,50.6416667 C2.21428571,51.1847467 2.54474221,51.625 2.95238095,51.625 L4.05952381,51.625 C4.46716255,51.625 4.79761905,51.1847467 4.79761905,50.6416667 C4.79761905,50.0985867 4.46716255,49.6583333 4.05952381,49.6583333 Z" id="Path" fill="#2D4356"></path>
                        <path d="M59.047619,49.6583333 L57.9404762,49.6583333 C57.5328374,49.6583333 57.202381,50.0985867 57.202381,50.6416667 C57.202381,51.1847467 57.5328374,51.625 57.9404762,51.625 L59.047619,51.625 C59.4552578,51.625 59.7857143,51.1847467 59.7857143,50.6416667 C59.7857143,50.0985867 59.4552578,49.6583333 59.047619,49.6583333 Z" id="Path" fill="#2D4356"></path>
                        <ellipse id="Oval" fill="#2D4356" cx="61.2619048" cy="50.6416667" rx="1" ry="1"></ellipse>
                        <path d="M55.6233406,49.6583333 L33.0538644,49.6583333 C33.4966498,49.0657245 33.6786547,48.2107328 33.5353129,47.3966667 L40.5599202,37.3923857 L44.3156736,39.4836801 C44.4213009,40.3673643 44.8796407,41.1043711 45.5117351,41.4069379 C46.1438295,41.7095047 46.8494367,41.5296484 47.3530542,40.9375934 C47.8566716,40.3455385 48.0784321,39.435177 47.9317498,38.5619575 L49.3456819,36.5664841 L51.3749493,38.4092507 L50.6004327,38.3520847 C50.3369861,38.3322322 50.0856254,38.5012641 49.9411519,38.7954295 C49.7966784,39.089595 49.7810732,39.4641378 49.9002218,39.7777984 C50.0193704,40.091459 50.2551449,40.2965151 50.5186223,40.3156292 L53.8400508,40.5609709 C53.853745,40.5619313 53.8674403,40.5624115 53.8811369,40.5624115 C54.1665762,40.5363553 54.4189417,40.3060615 54.540312,39.9608874 C54.6616824,39.6157133 54.6329536,39.2099899 54.4652729,38.9011436 L53.2853981,35.2563448 C53.1809745,34.9337665 52.9553088,34.7099111 52.6934071,34.6691027 C52.4315054,34.6282944 52.1731569,34.7767328 52.0156788,35.0585027 C51.8582008,35.3402727 51.8255179,35.7125665 51.9299415,36.0351448 L52.1582086,36.7402342 L50.3719406,35.1181324 L52.7868332,31.7100466 L52.700107,32.5639536 C52.6738542,32.8223975 52.7257464,33.0841494 52.8443658,33.2916164 C52.9629853,33.4990833 53.1386133,33.6352672 53.3326067,33.6702036 C53.3656979,33.6761255 53.3990493,33.6790936 53.4324377,33.679088 C53.8014893,33.6784545 54.1134775,33.3147878 54.1629638,32.8275557 L54.6123789,28.4025557 C54.6468277,28.0634062 54.5464319,27.7247906 54.3473167,27.5085522 C54.1482015,27.2923138 53.8790147,27.2295637 53.636617,27.3428813 L50.3151885,28.895663 C49.9322108,29.0770309 49.7313684,29.6367738 49.8659281,30.1477403 C50.0004879,30.6587069 50.4198044,30.9285803 50.8038887,30.7514146 L51.7488536,30.3096521 L49.1366201,33.9963703 L46.1277011,31.2639967 C46.127904,31.2492467 46.1309671,31.2355489 46.1309671,31.2207301 C46.1362076,30.27225 45.7314204,29.4043606 45.0907983,28.9905424 C44.4501762,28.5767242 43.6880098,28.6908048 43.1322838,29.2836916 C42.5765577,29.8765784 42.3264166,30.8424971 42.4895042,31.7657819 L40.182868,35.0508036 L38.0000952,33.8354036 C38.0026195,33.7827067 38.0119048,33.7326452 38.0119048,33.6790536 C38.0129104,32.6210237 37.5056742,31.6808148 36.752614,31.3448426 C35.9995538,31.0088704 35.1696098,31.3525062 34.6921522,32.1979706 C34.2146947,33.0434351 34.1968356,34.2010582 34.6478143,35.0719452 L34.2142313,36.5857869 C34.1562908,36.5784955 34.1002325,36.5625016 34.0408343,36.5625016 C33.6187118,36.5646014 33.2101436,36.7612669 32.8844974,37.1191076 L31.7311092,36.2297317 C31.7319912,36.1984667 31.7380952,36.1690994 31.7380952,36.137441 C31.7444375,35.2001042 31.3501313,34.3395338 30.7214531,33.9186271 C30.0927749,33.4977205 29.3391458,33.5897362 28.7783666,34.1558717 C28.2175874,34.7220072 27.9472613,35.663727 28.0813832,36.5839137 L24.7435357,39.7426262 L20.2698482,35.0300012 C20.3961116,34.0257752 20.0443361,33.0218533 19.3854196,32.5059552 C18.726503,31.9900571 17.8970081,32.0691045 17.2999155,32.7046951 C16.7028229,33.3402857 16.4618822,34.400691 16.6941458,35.3707507 L12.8505555,40.20555 L10.4059545,37.7725424 C10.0794106,37.448348 9.61747079,37.5378302 9.3737466,37.9724911 C9.13002241,38.407152 9.19664739,39.0226794 9.5226206,39.3478916 L11.7611195,41.5759381 L7.61234524,46.7946995 C7.31708173,47.1678328 7.30424465,47.7889677 7.58364928,48.1831812 C7.86305392,48.5773947 8.32925077,48.5959074 8.62578321,48.2245645 L12.961469,42.7707077 L16.6115714,46.4037704 C16.6112024,46.4237567 16.6071429,46.4423318 16.6071429,46.4624361 C16.6071429,47.8201361 17.4332841,48.9207694 18.452381,48.9207694 C19.4714778,48.9207694 20.297619,47.8201361 20.297619,46.4624361 C20.297619,46.4305072 20.2914707,46.4008597 20.2905702,46.3691964 L24.6963235,42.19975 L29.9113095,47.6931417 C29.9020492,47.7741062 29.8958904,47.8556466 29.8928571,47.9374459 C29.8925854,48.5815244 30.0828139,49.1998077 30.4223261,49.6583333 L6.3766594,49.6583333 C6.08998603,49.608431 5.80755435,49.7841873 5.65229485,50.1091029 C5.49703535,50.4340186 5.49703535,50.8493147 5.65229485,51.1742304 C5.80755435,51.4991461 6.08998603,51.6749024 6.3766594,51.625 L55.6233406,51.625 C55.910014,51.6749024 56.1924457,51.4991461 56.3477051,51.1742304 C56.5029646,50.8493147 56.5029646,50.4340186 56.3477051,50.1091029 C56.1924457,49.7841873 55.910014,49.608431 55.6233406,49.6583333 L55.6233406,49.6583333 Z M43.3919031,33.3591212 C44.0659552,33.876016 44.9128889,33.7583063 45.4923487,33.0671941 L48.1103946,35.4446827 L47.0378057,36.958485 C46.2533496,36.3479607 45.250754,36.6063554 44.6937998,37.5625958 L41.6359339,35.8599542 L43.3919031,33.3591212 Z M19.6288346,44.5828288 C18.9465352,43.8058335 17.9399853,43.8118851 17.2629774,44.5970527 L14.0509308,41.4002361 L17.6530644,36.8691246 C18.239746,37.2561809 18.9373036,37.1932744 19.4794811,36.7044162 L23.4899215,40.9289244 L19.6288346,44.5828288 Z M28.9104118,38.2117187 C29.5889686,38.7929504 30.4740662,38.7076114 31.0827331,38.0022687 L32.2070625,38.8692295 C32.2046748,38.9203923 32.1955962,38.9689493 32.1955962,39.0208939 C32.1912031,40.0924325 32.7082834,41.0443247 33.4736624,41.3736835 C34.2390414,41.7030422 35.0763812,41.3339856 35.5433131,40.4614872 C36.0102449,39.5889888 35.9991911,38.4140659 35.5159914,37.5574333 L35.9316867,36.1059006 C36.4287295,36.2203292 36.9379783,36.0296041 37.3174605,35.5868972 L39.106858,36.5832843 L32.6345636,45.8009822 C32.0080754,45.3189829 31.2259875,45.3826448 30.6482054,45.9626717 L25.9499007,41.0134124 L28.9104118,38.2117187 Z" id="Shape" fill="#2D4356"></path>
                        <polygon id="Path" fill="url(#linearGradient)" points="31.9990119 26.8096 31.4502381 27.7477 31.7794286 28.025 32.155119 26.9403833 32.1661905 26.9403833 32.5127262 28.0171333 32.8766071 27.740325 32.3222976 26.816975 32.3222976 26.8017333 33.1939881 26.9403833 33.1939881 26.41725 32.3222976 26.57065 32.3222976 26.5554083 32.8710714 25.5942 32.5245357 25.3326333 32.1724643 26.4093833 32.1606548 26.4093833 31.8026786 25.3400083 31.4502381 25.6094417 31.9931071 26.5480333 31.9931071 26.563275 31.1442976 26.41725 31.1442976 26.9403833 31.9990119 26.7943583"></polygon>
                        <polygon id="Path" fill="url(#linearGradient)" points="10.0679881 28.8947583 10.3838929 28.3411417 10.1846071 28.1906917 9.98163095 28.8106833 9.9749881 28.8106833 9.76905952 28.194625 9.56571429 28.3499917 9.87866667 28.8903333 9.87866667 28.8991833 9.38967857 28.8151083 9.38967857 29.1165 9.8819881 29.032425 9.8819881 29.041275 9.56571429 29.5816167 9.75540476 29.7409167 9.97166667 29.1165 9.97830952 29.1165 10.1775952 29.7364917 10.3872143 29.5771917 10.0679881 29.0452083 10.0679881 29.0363583 10.5698929 29.1165 10.5698929 28.8151083 10.0679881 28.9036083"></polygon>
                        <polygon id="Path" fill="url(#linearGradient)" points="9.84729762 10.29845 10.3857381 9.35543333 10.0458452 9.09878333 9.70041667 10.1548833 9.68860714 10.1548833 9.33764286 9.10615833 8.99184524 9.370675 9.52438095 10.291075 9.52438095 10.3063167 8.69180952 10.16275 8.69180952 10.6755583 9.52991667 10.5324833 9.52991667 10.547725 8.99184524 11.468125 9.3147619 11.7400167 9.68307143 10.6755583 9.69414286 10.6755583 10.0340357 11.73215 10.3909048 11.46075 9.84729762 10.5551 9.84729762 10.5398583 10.702381 10.6755583 10.702381 10.16275 9.84729762 10.3136917"></polygon>
                        <polygon id="Path" fill="url(#linearGradient)" points="54.0440714 17.8219333 54.0440714 17.3794333 53.3063452 17.5092333 53.3063452 17.49645 53.7706071 16.6827417 53.4775833 16.4614917 53.1793929 17.37255 53.1697976 17.37255 52.8668095 16.4678833 52.568619 16.6960167 53.0280833 17.4900583 53.0280833 17.5028417 52.3095476 17.3794333 52.3095476 17.8219333 53.032881 17.6980333 53.032881 17.7113083 52.568619 18.50535 52.846881 18.739875 53.165 17.8219333 53.1742262 17.8219333 53.467619 18.7329917 53.7754048 18.4989583 53.3063452 17.7177 53.3063452 17.704425"></polygon>
                        <path d="M43.6044044,54.0833333 L40.5384527,54.0833333 C40.1536745,54.1244081 39.857133,54.5523999 39.857133,55.0666667 C39.857133,55.5809335 40.1536745,56.0089252 40.5384527,56.05 L43.6044044,56.05 C43.9891826,56.0089252 44.2857242,55.5809335 44.2857242,55.0666667 C44.2857242,54.5523999 43.9891826,54.1244081 43.6044044,54.0833333 Z" id="Path" fill="url(#linearGradient)"></path>
                        <path d="M21.4615473,54.0833333 L18.3955956,54.0833333 C18.0108174,54.1244081 17.7142758,54.5523999 17.7142758,55.0666667 C17.7142758,55.5809335 18.0108174,56.0089252 18.3955956,56.05 L21.4615473,56.05 C21.8463255,56.0089252 22.142867,55.5809335 22.142867,55.0666667 C22.142867,54.5523999 21.8463255,54.1244081 21.4615473,54.0833333 L21.4615473,54.0833333 Z" id="Path" fill="url(#linearGradient)"></path>
                        <path d="M38.3809524,54.0833333 L23.6190476,54.0833333 C23.2114089,54.0833333 22.8809524,54.5235867 22.8809524,55.0666667 C22.8809524,55.6097467 23.2114089,56.05 23.6190476,56.05 L29.5016667,56.05 L29.5016667,57.0333333 L26.5714286,57.0333333 C26.1637898,57.0333333 25.8333333,57.4735867 25.8333333,58.0166667 C25.8333333,58.5597467 26.1637898,59 26.5714286,59 L35.797619,59 C36.2052578,59 36.5357143,58.5597467 36.5357143,58.0166667 C36.5357143,57.4735867 36.2052578,57.0333333 35.797619,57.0333333 L32.4983333,57.0333333 L32.4983333,56.05 L38.3809524,56.05 C38.7885911,56.05 39.1190476,55.6097467 39.1190476,55.0666667 C39.1190476,54.5235867 38.7885911,54.0833333 38.3809524,54.0833333 Z" id="Path" fill="url(#linearGradient)"></path>
                    </g>
                </g>
            </g>
        </g>
    </g>
</svg>