<?xml version="1.0" encoding="UTF-8"?>
<svg width="66px" height="63px" viewBox="0 0 66 63" version="1.1" xmlns="http://www.w3.org/2000/svg" xmlns:xlink="http://www.w3.org/1999/xlink">
    <!-- Generator: Sketch 57.1 (83088) - https://sketch.com -->
    <title>iconfinder_interview_presentation_political_speech_speaker_4963531</title>
    <desc>Created with Sketch.</desc>
    <defs>
        <linearGradient x1="0%" y1="50%" x2="100%" y2="50%" id="linearGradient">
            <stop stop-color="#FF8569" offset="0%"></stop>
            <stop stop-color="#FF4272" offset="100%"></stop>
        </linearGradient>
    </defs>
    <g id="Welcome" stroke="none" stroke-width="1" fill="none" fill-rule="evenodd">
        <g id="Desktop" transform="translate(-781.000000, -3831.000000)" fill-rule="nonzero">
            <g id="Our-tutor" transform="translate(80.000000, 3709.000000)">
                <g id="logo" transform="translate(638.000000, 122.000000)">
                    <g id="iconfinder_interview_presentation_political_speech_speaker_4963531" transform="translate(63.000000, 0.000000)">
                        <path d="M32.5714286,16.7222222 C34.4781967,16.7222222 36.1972085,15.5852048 36.9268791,13.8413676 C37.6565496,12.0975303 37.2531801,10.0902989 35.9048639,8.75565654 C34.5565477,7.42101421 32.5288178,7.02180106 30.7672161,7.74417243 C29.0056145,8.46654381 27.8571429,10.1682383 27.8571429,12.0557461 C27.8572882,14.6329845 29.9678918,16.7222222 32.5714286,16.7222222 Z M35.7142857,12.055492 C35.7142857,13.7736865 34.3072839,15.1665965 32.5715569,15.1666667 C30.8358299,15.1667368 29.4286777,13.7739405 29.4285714,12.0557461 C29.4304809,10.3382796 30.836437,8.94643978 32.5714286,8.94444444 C34.3071556,8.94444444 35.7142857,10.3372976 35.7142857,12.055492 Z" id="Shape" fill="#2D4356"></path>
                        <path d="M7.85712923,46.4411111 C8.29438635,45.7393718 8.82269943,45.097418 9.42857143,44.5316667 L9.42857143,31.5 C9.42511949,30.6455449 10.1211206,29.9496148 10.9842857,29.9444444 L55.0157143,29.9444444 C55.8788794,29.9496148 56.5748805,30.6455449 56.5714286,31.5 L56.5714286,44.5316667 C57.1773006,45.097418 57.7056137,45.7393718 58.1428708,46.4411111 L58.1428708,31.5 C58.1453078,30.6768346 57.8171308,29.8864596 57.2305985,29.3029342 C56.6440662,28.7194088 55.8472812,28.3905891 55.0157143,28.3888889 L42.3539286,28.3888889 C42.2046429,25.585 41.8903571,21.7038889 41.2421429,20.6383333 C40.4878571,19.3977778 36.025,17.1111111 36.025,17.1111111 L33,19.9811111 L29.9789286,17.1111111 C29.9789286,17.1111111 25.5121429,19.3977778 24.7617857,20.6383333 C24.1096429,21.7038889 23.7953571,25.585 23.6460714,28.3888889 L19.8864286,28.3888889 C20.3821424,27.963542 20.5587759,27.2781218 20.3294675,26.6696914 C20.1001591,26.061261 19.5131637,25.6578564 18.8571429,25.6578564 C18.2011221,25.6578564 17.6141267,26.061261 17.3848182,26.6696914 C17.1555098,27.2781218 17.3321433,27.963542 17.8278571,28.3888889 L10.9842857,28.3888889 C10.1527188,28.3905891 9.3559338,28.7194088 8.76940148,29.3029342 C8.18286916,29.8864596 7.8546922,30.6768346 7.85712923,31.5 L7.85712923,46.4411111 Z M26.1014286,21.4472222 C26.3921429,21.0311111 27.9675,19.9811111 29.7157143,19.0166667 L31.9117857,21.105 C32.5207606,21.6805697 33.4792394,21.6805697 34.0882143,21.105 L36.2882143,19.0166667 C38.0325,19.9811111 39.6078571,21.0272222 39.8946429,21.4355556 C39.9575,21.5483333 40.4682143,22.6177778 40.7825,28.3888889 L25.2175,28.3888889 C25.5317857,22.6177778 26.0464286,21.5483333 26.1014286,21.4472222 Z" id="Shape" fill="#2D4356"></path>
                        <path d="M11.3928571,38.1111111 C11.3928571,40.4736625 13.3276266,42.3888889 15.7142857,42.3888889 C18.1009448,42.3888889 20.0357143,40.4736625 20.0357143,38.1111111 C20.0357143,35.7485597 18.1009448,33.8333333 15.7142857,33.8333333 C14.568169,33.8333333 13.4689919,34.2840156 12.6585651,35.0862563 C11.8481382,35.8884971 11.3928571,36.9765714 11.3928571,38.1111111 Z M18.4642857,38.1111111 C18.4642857,39.6145529 17.2330688,40.8333333 15.7142857,40.8333333 C14.1955027,40.8333333 12.9642857,39.6145529 12.9642857,38.1111111 C12.9642857,36.6076693 14.1955027,35.3888889 15.7142857,35.3888889 C17.2323669,35.3905649 18.4625926,36.6083641 18.4642857,38.1111111 Z" id="Shape" fill="#2D4356"></path>
                        <path d="M50.2857143,42.3888889 C52.6723734,42.3888889 54.6071429,40.4736625 54.6071429,38.1111111 C54.6071429,35.7485597 52.6723734,33.8333333 50.2857143,33.8333333 C49.1395976,33.8333333 48.0404205,34.2840156 47.2299936,35.0862563 C46.4195668,35.8884971 45.9642857,36.9765714 45.9642857,38.1111111 C45.9642857,40.4736625 47.8990552,42.3888889 50.2857143,42.3888889 Z M50.2857143,40.8333333 C48.7669312,40.8333333 47.5357143,39.6145529 47.5357143,38.1111111 C47.5357143,36.6076693 48.7669312,35.3888889 50.2857143,35.3888889 C51.8037955,35.3905649 53.0340212,36.6083641 53.0357143,38.1111111 C53.0357143,39.6145529 51.8044973,40.8333333 50.2857143,40.8333333 Z" id="Shape" fill="#2D4356"></path>
                        <path d="M33,42.3888889 C35.3866591,42.3888889 37.3214286,40.4736625 37.3214286,38.1111111 C37.3214286,35.7485597 35.3866591,33.8333333 33,33.8333333 C31.8538833,33.8333333 30.7547062,34.2840156 29.9442793,35.0862563 C29.1338525,35.8884971 28.6785714,36.9765714 28.6785714,38.1111111 C28.6785714,40.4736625 30.6133409,42.3888889 33,42.3888889 Z M33,40.8333333 C31.4812169,40.8333333 30.25,39.6145529 30.25,38.1111111 C30.25,36.6076693 31.4812169,35.3888889 33,35.3888889 C34.5180812,35.3905649 35.7483069,36.6083641 35.75,38.1111111 C35.75,39.6145529 34.5187831,40.8333333 33,40.8333333 Z" id="Shape" fill="#2D4356"></path>
                        <path d="M62.0714286,6.22222222 C62.7223356,6.22222222 63.25,5.69988776 63.25,5.05555556 C63.25,4.41122335 62.7223356,3.88888889 62.0714286,3.88888889 C61.4205215,3.88888889 60.8928571,4.41122335 60.8928571,5.05555556 C60.8936019,5.69958215 61.4208303,6.22148501 62.0714286,6.22222222 Z M62.6607143,5.05555556 C62.6607143,5.37772166 62.3968821,5.63888889 62.0714286,5.63888889 C61.7459751,5.63888889 61.4821429,5.37772166 61.4821429,5.05555556 C61.4824634,4.73352096 61.7461079,4.47253949 62.0714286,4.47222222 C62.3968821,4.47222222 62.6607143,4.73338945 62.6607143,5.05555556 Z" id="Shape" fill="#2D4356"></path>
                        <path d="M18.0714286,13.2222222 C18.7223356,13.2222222 19.25,12.6998878 19.25,12.0555556 C19.25,11.4112233 18.7223356,10.8888889 18.0714286,10.8888889 C17.4205215,10.8888889 16.8928571,11.4112233 16.8928571,12.0555556 C16.8936019,12.6995822 17.4208303,13.221485 18.0714286,13.2222222 Z M18.0714286,11.4722222 C18.3968821,11.4722222 18.6607143,11.7333895 18.6607143,12.0555556 C18.6607143,12.3777217 18.3968821,12.6388889 18.0714286,12.6388889 C17.7459751,12.6388889 17.4821429,12.3777217 17.4821429,12.0555556 C17.4824634,11.733521 17.7461079,11.4725395 18.0714286,11.4722222 Z" id="Shape" fill="#2D4356"></path>
                        <path d="M59.2855559,15.3990164 C59.3804966,15.0987997 59.2833963,14.771531 59.0395331,14.5698166 C58.7956698,14.3681022 58.4530689,14.3316666 58.1714858,14.4774999 C57.8899027,14.6233331 57.7247911,14.9227156 57.7531429,15.2360444 C57.7923146,15.6636419 58.173757,15.9791566 58.6058039,15.9413333 C58.9223307,15.9132748 59.1906152,15.6992332 59.2855559,15.3990164 Z M58.5006832,14.7793333 C58.7167863,14.7601851 58.9076541,14.9180776 58.9270004,15.1319975 C58.9463467,15.3459175 58.7868456,15.5348594 58.570743,15.554013 C58.3546404,15.5731666 58.1637686,15.4152789 58.1444168,15.2013594 C58.125288,14.9875017 58.2846811,14.7986878 58.5006832,14.7793333 Z" id="Shape" fill="#2D4356"></path>
                        <path d="M52.6428571,7 C53.0767952,7 53.4285714,6.65177703 53.4285714,6.22222222 C53.4285714,5.79266742 53.0767952,5.44444444 52.6428571,5.44444444 C52.2089191,5.44444444 51.8571429,5.79266742 51.8571429,6.22222222 C51.8576386,6.65157358 52.2091246,6.99950924 52.6428571,7 Z M52.6428571,5.83333333 C52.8598262,5.83333333 53.0357143,6.00744482 53.0357143,6.22222222 C53.0357143,6.43699962 52.8598262,6.61111111 52.6428571,6.61111111 C52.4258881,6.61111111 52.25,6.43699962 52.25,6.22222222 C52.2502166,6.00753368 52.4259779,5.8335477 52.6428571,5.83333333 Z" id="Shape" fill="#2D4356"></path>
                        <path d="M10.2142857,19.4444444 C10.6482237,19.4444444 11,19.0962215 11,18.6666667 C11,18.2371119 10.6482237,17.8888889 10.2142857,17.8888889 C9.7803477,17.8888889 9.42857143,18.2371119 9.42857143,18.6666667 C9.4290672,19.096018 9.78055322,19.4439537 10.2142857,19.4444444 Z M10.6071429,18.6666667 C10.6071429,18.8814441 10.4312547,19.0555556 10.2142857,19.0555556 C9.99731671,19.0555556 9.82142857,18.8814441 9.82142857,18.6666667 C9.82164513,18.4519781 9.99740647,18.2779921 10.2142857,18.2777778 C10.4312547,18.2777778 10.6071429,18.4518893 10.6071429,18.6666667 Z" id="Shape" fill="#2D4356"></path>
                        <path d="M7.07142857,11.2777778 C7.50536659,11.2777778 7.85714286,10.9295548 7.85714286,10.5 C7.85714286,10.0704452 7.50536659,9.72222222 7.07142857,9.72222222 C6.63749055,9.72222222 6.28571429,10.0704452 6.28571429,10.5 C6.28621006,10.9293514 6.63769608,11.277287 7.07142857,11.2777778 Z M7.46428571,10.5 C7.46428571,10.7147774 7.28839758,10.8888889 7.07142857,10.8888889 C6.85445956,10.8888889 6.67857143,10.7147774 6.67857143,10.5 C6.67878798,10.2853115 6.85454933,10.1113255 7.07142857,10.1111111 C7.28839758,10.1111111 7.46428571,10.2852226 7.46428571,10.5 Z" id="Shape" fill="#2D4356"></path>
                        <ellipse id="Oval" fill="#2D4356" cx="0.785714286" cy="56.3888889" rx="1" ry="1"></ellipse>
                        <path d="M4.32142857,55.6111111 L3.14285714,55.6111111 C2.70891913,55.6111111 2.35714286,55.9593341 2.35714286,56.3888889 C2.35714286,56.8184437 2.70891913,57.1666667 3.14285714,57.1666667 L4.32142857,57.1666667 C4.75536659,57.1666667 5.10714286,56.8184437 5.10714286,56.3888889 C5.10714286,55.9593341 4.75536659,55.6111111 4.32142857,55.6111111 Z" id="Path" fill="#2D4356"></path>
                        <path d="M62.8571429,55.6111111 L61.6785714,55.6111111 C61.2446334,55.6111111 60.8928571,55.9593341 60.8928571,56.3888889 C60.8928571,56.8184437 61.2446334,57.1666667 61.6785714,57.1666667 L62.8571429,57.1666667 C63.2910809,57.1666667 63.6428571,56.8184437 63.6428571,56.3888889 C63.6428571,55.9593341 63.2910809,55.6111111 62.8571429,55.6111111 Z" id="Path" fill="#2D4356"></path>
                        <ellipse id="Oval" fill="#2D4356" cx="65.2142857" cy="56.3888889" rx="1" ry="1"></ellipse>
                        <path d="M59.2119432,55.6111111 L58.1428571,55.6111111 L58.1428571,51.9341122 C58.1428571,47.5215144 54.9100357,43.9444444 51.3982857,43.9444444 L49.17275,43.9444444 C45.661,43.9444444 42.4285714,47.5215144 42.4285714,51.9341122 L42.4285714,55.6111111 L40.8571429,55.6111111 L40.8571429,51.9341122 C40.8571429,47.5215144 37.6243214,43.9444444 34.1125714,43.9444444 L31.8870357,43.9444444 C28.3752857,43.9444444 25.1428571,47.5215144 25.1428571,51.9341122 L25.1428571,55.6111111 L23.5714286,55.6111111 L23.5714286,51.9341122 C23.5714286,47.5215144 20.3386071,43.9444444 16.8268571,43.9444444 L14.6013214,43.9444444 C11.0895714,43.9444444 7.85714286,47.5215144 7.85714286,51.9341122 L7.85714286,55.6111111 L6.78805679,55.6111111 C6.48288835,55.5716403 6.18223527,55.7106566 6.01695903,55.9676521 C5.8516828,56.2246475 5.8516828,56.5531303 6.01695903,56.8101257 C6.18223527,57.0671212 6.48288835,57.2061375 6.78805679,57.1666667 L59.2119432,57.1666667 C59.5171116,57.2061375 59.8177647,57.0671212 59.983041,56.8101257 C60.1483172,56.5531303 60.1483172,56.2246475 59.983041,55.9676521 C59.8177647,55.7106566 59.5171116,55.5716403 59.2119432,55.6111111 L59.2119432,55.6111111 Z M9.42857143,55.6111111 L9.42857143,51.9341122 C9.42857143,48.5066478 11.8457311,45.5 14.6013214,45.5 L16.8268571,45.5 C19.5826243,45.5 22,48.5066478 22,51.9341122 L22,55.6111111 L9.42857143,55.6111111 Z M26.7142857,55.6111111 L26.7142857,51.9341122 C26.7142857,48.5066478 29.1314454,45.5 31.8870357,45.5 L34.1125714,45.5 C36.8683386,45.5 39.2857143,48.5066478 39.2857143,51.9341122 L39.2857143,55.6111111 L26.7142857,55.6111111 Z M44,55.6111111 L44,51.9341122 C44,48.5066478 46.4171596,45.5 49.17275,45.5 L51.3982857,45.5 C54.1540646,45.5 56.5714286,48.5066478 56.5714286,51.9341122 L56.5714286,55.6111111 L44,55.6111111 Z" id="Shape" fill="#2D4356"></path>
                        <polygon id="Path" fill="url(#linearGradient)" points="5.33617857 26.4487222 5.92035714 25.6884444 5.55146429 25.4815556 5.17667857 26.3332222 5.16410714 26.3332222 4.78303571 25.4873889 4.40785714 25.7005 4.98575 26.4428889 4.98575 26.4549444 4.08217857 26.3394444 4.08217857 26.7532222 4.99203571 26.6377222 4.99203571 26.6497778 4.40785714 27.3917778 4.75828571 27.6111111 5.15821429 26.7532222 5.17 26.7532222 5.53889286 27.6048889 5.92625 27.3859444 5.33617857 26.6556111 5.33617857 26.6435556 6.26410714 26.7532222 6.26410714 26.3394444 5.33617857 26.4607778"></polygon>
                        <polygon id="Path" fill="url(#linearGradient)" points="25.8409643 0.803833333 25.5042857 1.23122222 25.7062143 1.35722222 25.9364286 0.863333333 25.9435 0.863333333 26.1556429 1.35372222 26.3787857 1.22772222 26.0389643 0.806944444 26.0389643 0.799944444 26.57325 0.863333333 26.57325 0.624944444 26.0389643 0.694944444 26.0389643 0.687944444 26.37525 0.250055556 26.1631071 0.131055556 25.9470357 0.621444444 25.9399643 0.621444444 25.72075 0.134166667 25.5042857 0.257055556 25.8374286 0.684444444 25.8374286 0.691444444 25.3168929 0.624944444 25.3168929 0.863333333 25.8409643 0.796833333"></polygon>
                        <polygon id="Path" fill="url(#linearGradient)" points="42.4435 3.58555556 42.6556429 4.07594444 42.8787857 3.94994444 42.5389643 3.52916667 42.5389643 3.52216667 43.07325 3.58555556 43.07325 3.34716667 42.5389643 3.41716667 42.5389643 3.41016667 42.87525 2.97227778 42.6631071 2.85327778 42.4470357 3.34366667 42.4399643 3.34366667 42.22075 2.85638889 42.0042857 2.97927778 42.3374286 3.40666667 42.3374286 3.41366667 41.8168929 3.34716667 41.8168929 3.58555556 42.3409643 3.51905556 42.3409643 3.52605556 42.0042857 3.95344444 42.2062143 4.07944444 42.4364286 3.58555556"></polygon>
                        <polygon id="Path" fill="url(#linearGradient)" points="63.25 25.5550556 63.25 25.1494444 62.33975 25.2688333 62.33975 25.2567778 62.9129286 24.5108889 62.5511071 24.3078889 62.1833929 25.1432222 62.1708214 25.1432222 61.7972143 24.3137222 61.4291071 24.5229444 61.996 25.2509444 61.996 25.263 61.1097143 25.1494444 61.1097143 25.5550556 62.0018929 25.4418889 62.0018929 25.4539444 61.4291071 26.1819444 61.7728571 26.397 62.1649286 25.5550556 62.1767143 25.5550556 62.5385357 26.3907778 62.9184286 26.1761111 62.33975 25.4597778 62.33975 25.4477222"></polygon>
                        <polygon id="Path" fill="url(#linearGradient)" points="45.0615 18.2867222 44.5672857 18.9147778 44.8635 19.1002778 45.2021429 18.3742222 45.2119643 18.3742222 45.5242857 19.0948333 45.8519286 18.9097222 45.3526071 18.2917778 45.3526071 18.2812778 46.1379286 18.3742222 46.1379286 18.0242222 45.3526071 18.1268889 45.3526071 18.1167778 45.8468214 17.4731667 45.5348929 17.2981667 45.2174643 18.0187778 45.20725 18.0187778 44.8847143 17.3032222 44.5672857 17.4836667 45.0563929 18.1117222 45.0563929 18.1218333 44.2915 18.0242222 44.2915 18.3742222 45.0615 18.2762222"></polygon>
                        <path d="M46.4175918,59.1111111 L43.1538368,59.1111111 C42.7442342,59.1435997 42.4285609,59.4821242 42.4285609,59.8888889 C42.4285609,60.2956536 42.7442342,60.6341781 43.1538368,60.6666667 L46.4175918,60.6666667 C46.8271944,60.6341781 47.1428677,60.2956536 47.1428677,59.8888889 C47.1428677,59.4821242 46.8271944,59.1435997 46.4175918,59.1111111 L46.4175918,59.1111111 Z" id="Path" fill="url(#linearGradient)"></path>
                        <path d="M22.8461632,59.1111111 L19.5824082,59.1111111 C19.1728056,59.1435997 18.8571323,59.4821242 18.8571323,59.8888889 C18.8571323,60.2956536 19.1728056,60.6341781 19.5824082,60.6666667 L22.8461632,60.6666667 C23.2557658,60.6341781 23.5714391,60.2956536 23.5714391,59.8888889 C23.5714391,59.4821242 23.2557658,59.1435997 22.8461632,59.1111111 L22.8461632,59.1111111 Z" id="Path" fill="url(#linearGradient)"></path>
                        <path d="M40.8571429,59.1111111 L25.1428571,59.1111111 C24.7089191,59.1111111 24.3571429,59.4593341 24.3571429,59.8888889 C24.3571429,60.3184437 24.7089191,60.6666667 25.1428571,60.6666667 L31.405,60.6666667 L31.405,61.4444444 L28.2857143,61.4444444 C27.8517763,61.4444444 27.5,61.7926674 27.5,62.2222222 C27.5,62.651777 27.8517763,63 28.2857143,63 L38.1071429,63 C38.5410809,63 38.8928571,62.651777 38.8928571,62.2222222 C38.8928571,61.7926674 38.5410809,61.4444444 38.1071429,61.4444444 L34.595,61.4444444 L34.595,60.6666667 L40.8571429,60.6666667 C41.2910809,60.6666667 41.6428571,60.3184437 41.6428571,59.8888889 C41.6428571,59.4593341 41.2910809,59.1111111 40.8571429,59.1111111 Z" id="Path" fill="url(#linearGradient)"></path>
                    </g>
                </g>
            </g>
        </g>
    </g>
</svg>