<?xml version="1.0" encoding="UTF-8"?>
<svg width="29px" height="26px" viewBox="0 0 29 26" version="1.1" xmlns="http://www.w3.org/2000/svg" xmlns:xlink="http://www.w3.org/1999/xlink">
    <!-- Generator: Sketch 57.1 (83088) - https://sketch.com -->
    <title>W</title>
    <desc>Created with Sketch.</desc>
    <defs>
        <linearGradient x1="0%" y1="50%" x2="100%" y2="50%" id="linearGradient-1">
            <stop stop-color="#FF8569" offset="0%"></stop>
            <stop stop-color="#FF4272" offset="100%"></stop>
        </linearGradient>
    </defs>
    <g id="Welcome" stroke="none" stroke-width="1" fill="none" fill-rule="evenodd">
        <g id="Desktop" transform="translate(-243.000000, -2973.000000)">
            <g id="Who-we-are?" transform="translate(74.000000, 2838.000000)">
                <g id="1" transform="translate(169.000000, 37.000000)">
                    <g id="W" transform="translate(0.000000, 98.000000)">
                        <path d="M14.4949495,0 C22.5002932,0 28.989899,5.82029451 28.989899,13 C28.989899,20.1797055 22.5002932,26 14.4949495,26 C6.48960576,26 0,20.1797055 0,13 C0,5.82029451 6.48960576,0 14.4949495,0 Z M14.4949495,0.690237161 C22.0751935,0.690237161 28.2202872,6.20149953 28.2202872,13 C28.2202872,19.7984488 22.0752511,25.3097628 14.4949495,25.3097628 C6.91470545,25.3097628 0.769611753,19.7985005 0.769611753,13 C0.769611753,6.20155116 6.91464788,0.690237161 14.4949495,0.690237161 Z" id="Shape" fill="url(#linearGradient-1)"></path>
                        <path d="M15.0333285,8.98026667 C15.2633594,8.98026667 15.4106384,9.04140963 15.4749946,9.16359472 L18.6639324,16.3355674 L21.9909799,8.66260559 C22.0277142,8.58114886 22.080623,8.50987422 22.1497063,8.44883208 C22.2186757,8.38773954 22.317659,8.35714286 22.4464855,8.35714286 C22.5568593,8.35714286 22.6397251,8.38572328 22.6949689,8.44273291 C22.7502128,8.49969213 22.7777778,8.56895052 22.7777778,8.65040724 C22.7777778,8.68296977 22.7732216,8.71356645 22.7639953,8.74209647 C22.754769,8.77057608 22.7455427,8.79703944 22.7363734,8.82143613 C22.7271471,8.85404907 22.7180347,8.87844576 22.7088084,8.89477743 L18.9952817,17.4595795 C18.9585474,17.5492525 18.9148079,17.6021792 18.8641772,17.61841 C18.8135465,17.6347417 18.7514114,17.6428571 18.6777719,17.6428571 C18.6041893,17.6428571 18.5374411,17.6346913 18.477641,17.61841 C18.4178409,17.6021792 18.3741015,17.5614508 18.3464795,17.4962249 L15.0333854,10.0921309 L11.7339599,17.4962249 C11.7064519,17.5614004 11.6580993,17.6021288 11.5890729,17.61841 C11.5200466,17.6347417 11.4486852,17.6428571 11.3751026,17.6428571 C11.3015201,17.6428571 11.2324367,17.6346913 11.1680805,17.61841 C11.1036673,17.6021792 11.0529796,17.5492525 11.0162453,17.4595795 L7.28893612,8.85808158 C7.27048353,8.83363448 7.25897914,8.80308821 7.25442294,8.76639235 C7.2498098,8.72979731 7.24747475,8.69925104 7.24747475,8.67475353 C7.24747475,8.6177439 7.27509668,8.55055218 7.33028359,8.47317837 C7.38552745,8.39585497 7.48678889,8.35714286 7.63406789,8.35714286 C7.73521542,8.35714286 7.82502941,8.38153955 7.9032251,8.43043375 C7.98147775,8.47932795 8.04816906,8.57303343 8.10341292,8.71144939 L11.4303465,16.4210566 L14.6744712,9.16359472 C14.6928099,9.12281595 14.7342712,9.08208758 14.7986275,9.04140963 C14.8630407,9.00063086 14.9412933,8.98026667 15.0333854,8.98026667 L15.0333285,8.98026667 Z" id="Path" fill="#2B2A29"></path>
                    </g>
                </g>
            </g>
        </g>
    </g>
</svg>