<?xml version="1.0" encoding="UTF-8"?>
<svg width="62px" height="59px" viewBox="0 0 62 59" version="1.1" xmlns="http://www.w3.org/2000/svg" xmlns:xlink="http://www.w3.org/1999/xlink">
    <!-- Generator: Sketch 57.1 (83088) - https://sketch.com -->
    <title>logo 1</title>
    <desc>Created with Sketch.</desc>
    <defs>
        <linearGradient x1="0%" y1="50%" x2="100%" y2="50%" id="linearGradient">
            <stop stop-color="#FF8569" offset="0%"></stop>
            <stop stop-color="#FF4272" offset="100%"></stop>
        </linearGradient>
    </defs>
    <g id="Welcome" stroke="none" stroke-width="1" fill="none" fill-rule="evenodd">
        <g id="Desktop" transform="translate(-272.000000, -2890.000000)" fill-rule="nonzero">
            <g id="Who-we-are?" transform="translate(74.000000, 2838.000000)">
                <g id="1" transform="translate(169.000000, 37.000000)">
                    <g id="logo-1" transform="translate(29.000000, 15.000000)">
                        <path d="M57.3030303,4.68253968 C57.3030303,4.16532063 56.8824493,3.74603175 56.3636364,3.74603175 C55.8448234,3.74603175 55.4242424,4.16532063 55.4242424,4.68253968 C55.4242424,5.19975873 55.8448234,5.61904762 56.3636364,5.61904762 C56.8822032,5.61845584 57.3024367,5.19951341 57.3030303,4.68253968 Z M56.3636364,5.15079365 C56.1042299,5.15079365 55.8939394,4.94114921 55.8939394,4.68253968 C55.8939394,4.42393016 56.1042299,4.21428571 56.3636364,4.21428571 C56.6230428,4.21428571 56.8333333,4.42393016 56.8333333,4.68253968 C56.8330779,4.94104364 56.6229369,5.15053897 56.3636364,5.15079365 L56.3636364,5.15079365 Z" id="Shape" fill="#2D4356"></path>
                        <path d="M38.5151515,7.49206349 C39.0339645,7.49206349 39.4545455,7.07277461 39.4545455,6.55555556 C39.4545455,6.0383365 39.0339645,5.61904762 38.5151515,5.61904762 C37.9963386,5.61904762 37.5757576,6.0383365 37.5757576,6.55555556 C37.5763512,7.07252929 37.9965846,7.49147171 38.5151515,7.49206349 L38.5151515,7.49206349 Z M38.5151515,6.08730159 C38.774558,6.08730159 38.9848485,6.29694603 38.9848485,6.55555556 C38.9848485,6.81416508 38.774558,7.02380952 38.5151515,7.02380952 C38.255745,7.02380952 38.0454545,6.81416508 38.0454545,6.55555556 C38.04571,6.2970516 38.2558509,6.08755627 38.5151515,6.08730159 Z" id="Shape" fill="#2D4356"></path>
                        <path d="M58.3030303,25.7857143 C58.3030303,25.5095719 58.0791727,25.2857143 57.8030303,25.2857143 C57.5268879,25.2857143 57.3030303,25.5095719 57.3030303,25.7857143 C57.3030303,26.0618567 57.5268879,26.2857143 57.8030303,26.2857143 C58.0790419,26.2853988 58.3027148,26.0617259 58.3030303,25.7857143 Z M57.5530303,25.7857143 C57.5530303,25.6476431 57.6649591,25.5357143 57.8030303,25.5357143 C57.9411015,25.5357143 58.0530303,25.6476431 58.0530303,25.7857143 C58.0530303,25.9237855 57.9411015,26.0357143 57.8030303,26.0357143 C57.6650162,26.0355765 57.5531681,25.9237284 57.5530303,25.7857143 L57.5530303,25.7857143 Z" id="Shape" fill="#2D4356"></path>
                        <path d="M52.1666667,16.9206349 C52.442809,16.9206349 52.6666667,16.6967773 52.6666667,16.4206349 C52.6666667,16.1444925 52.442809,15.9206349 52.1666667,15.9206349 C51.8905243,15.9206349 51.6666667,16.1444925 51.6666667,16.4206349 C51.6669822,16.6966465 51.8906551,16.9203194 52.1666667,16.9206349 Z M52.1666667,16.1706349 C52.3047379,16.1706349 52.4166667,16.2825637 52.4166667,16.4206349 C52.4166667,16.5587061 52.3047379,16.6706349 52.1666667,16.6706349 C52.0285955,16.6706349 51.9166667,16.5587061 51.9166667,16.4206349 C51.9168045,16.2826209 52.0286526,16.1707727 52.1666667,16.1706349 L52.1666667,16.1706349 Z" id="Shape" fill="#2D4356"></path>
                        <path d="M14.5909091,23.4761905 C14.8670515,23.4761905 15.0909091,23.2523329 15.0909091,22.9761905 C15.0909091,22.7000481 14.8670515,22.4761905 14.5909091,22.4761905 C14.3147667,22.4761905 14.0909091,22.7000481 14.0909091,22.9761905 C14.0912246,23.2522021 14.3148975,23.475875 14.5909091,23.4761905 Z M14.5909091,22.7261905 C14.7289803,22.7261905 14.8409091,22.8381193 14.8409091,22.9761905 C14.8409091,23.1142617 14.7289803,23.2261905 14.5909091,23.2261905 C14.4528379,23.2261905 14.3409091,23.1142617 14.3409091,22.9761905 C14.3410469,22.8381764 14.452895,22.7263283 14.5909091,22.7261905 Z" id="Shape" fill="#2D4356"></path>
                        <path d="M5.1969697,9.36507937 C4.92082732,9.36507937 4.6969697,9.58893699 4.6969697,9.86507937 C4.6969697,10.1412217 4.92082732,10.3650794 5.1969697,10.3650794 C5.47311207,10.3650794 5.6969697,10.1412217 5.6969697,9.86507937 C5.69665421,9.58906778 5.47298129,9.36539486 5.1969697,9.36507937 Z M5.1969697,10.1150794 C5.05889851,10.1150794 4.9469697,10.0031506 4.9469697,9.86507937 C4.9469697,9.72700818 5.05889851,9.61507937 5.1969697,9.61507937 C5.33504088,9.61507937 5.4469697,9.72700818 5.4469697,9.86507937 C5.44683189,10.0030934 5.33498376,10.1149416 5.1969697,10.1150794 Z" id="Shape" fill="#2D4356"></path>
                        <ellipse id="Oval" fill="#2D4356" cx="0.46969697" cy="52.9126984" rx="1" ry="1"></ellipse>
                        <path d="M3.89177489,52.4444444 L2.68398268,52.4444444 C2.23928587,52.4444444 1.87878788,52.6540889 1.87878788,52.9126984 C1.87878788,53.1713079 2.23928587,53.3809524 2.68398268,53.3809524 L3.89177489,53.3809524 C4.3364717,53.3809524 4.6969697,53.1713079 4.6969697,52.9126984 C4.6969697,52.6540889 4.3364717,52.4444444 3.89177489,52.4444444 Z" id="Path" fill="#2D4356"></path>
                        <path d="M59.3160173,52.4444444 L58.1082251,52.4444444 C57.6635283,52.4444444 57.3030303,52.6540889 57.3030303,52.9126984 C57.3030303,53.1713079 57.6635283,53.3809524 58.1082251,53.3809524 L59.3160173,53.3809524 C59.7607141,53.3809524 60.1212121,53.1713079 60.1212121,52.9126984 C60.1212121,52.6540889 59.7607141,52.4444444 59.3160173,52.4444444 Z" id="Path" fill="#2D4356"></path>
                        <ellipse id="Oval" fill="#2D4356" cx="61.530303" cy="52.9126984" rx="1" ry="1"></ellipse>
                        <path d="M55.5261461,51.9050433 L51.8875255,51.9050433 C51.5999187,45.6825312 50.9185817,34.5850975 49.314926,32.0097658 C47.6428211,29.3166052 37.718944,24.3492063 37.718944,24.3492063 L33.2055454,28.5407063 L33.2055454,30.5467713 L37.9669723,26.1250882 C41.8880828,28.1566147 47.1373837,31.2894525 48.0667711,32.7863884 C48.5477968,33.5594215 49.7166219,36.9656904 50.4155482,51.9050433 L11.584812,51.9050433 C12.2855321,36.9687399 13.4556144,33.560318 13.938276,32.7849666 C14.8663841,31.2909222 20.1160416,28.1575002 24.0376704,26.1252719 L28.7944546,30.5427224 L28.7944546,28.5366575 L24.2853642,24.3492063 C24.2853642,24.3492063 14.3620237,29.3166052 12.6889962,32.0097658 C11.0859912,34.5850975 10.4013568,45.6825312 10.1126987,51.9050433 L6.47385393,51.9050433 C6.18831212,51.8677524 5.90699527,51.999091 5.75234862,52.241893 C5.59770197,52.484695 5.59770197,52.7950362 5.75234862,53.0378382 C5.90699527,53.2806402 6.18831212,53.4119788 6.47385393,53.3746879 L55.5261461,53.3746879 C55.8116879,53.4119788 56.0930047,53.2806402 56.2476514,53.0378382 C56.402298,52.7950362 56.402298,52.484695 56.2476514,52.241893 C56.0930047,51.999091 55.8116879,51.8677524 55.5261461,51.9050433 L55.5261461,51.9050433 Z" id="Path" fill="#2D4356"></path>
                        <path d="M30.997805,8.9258118 C35.3168539,8.92709519 38.8387482,12.2951742 38.9153904,16.4976045 C38.9920327,20.7000347 35.5951691,24.1876109 31.278887,24.3380391 C31.2652193,24.3384978 31.2526307,24.3421286 31.2391876,24.3433114 C31.2199695,24.3418383 31.2015359,24.3376807 31.1819569,24.3376807 C30.7751483,24.3377005 30.4453698,24.6586251 30.4453495,25.0545118 L30.4453495,35.8069784 C30.4453495,36.2028733 30.7751398,36.5238095 31.1819569,36.5238095 C31.5887739,36.5238095 31.9185643,36.2028733 31.9185643,35.8069784 L31.9185643,25.7314835 C36.963029,25.2490618 40.7045111,20.959048 40.3735808,16.0368928 C40.0426504,11.1147376 35.7586643,7.33571479 30.6926114,7.49704157 C25.6265585,7.65836834 21.6056123,11.701859 21.6060606,16.6345383 C21.6060606,17.0304332 21.935851,17.3513694 22.342668,17.3513694 C22.749485,17.3513694 23.0792754,17.0304332 23.0792754,16.6345383 C23.083451,12.3799003 26.6257898,8.9314166 30.997805,8.9258118 Z" id="Path" fill="url(#linearGradient)"></path>
                        <ellipse id="Oval" fill="url(#linearGradient)" cx="31.469697" cy="38.8650794" rx="1" ry="1"></ellipse>
                        <polygon id="Path" fill="url(#linearGradient)" points="2.95856658 24.2633541 3.46158379 23.5946642 3.14394212 23.4126984 2.82122631 24.1617679 2.81040146 24.1617679 2.48227322 23.417829 2.15921913 23.6052674 2.65682391 24.2582235 2.65682391 24.2688267 1.87878788 24.1672406 1.87878788 24.5311721 2.66223634 24.429586 2.66223634 24.4401892 2.15921913 25.0928032 2.4609618 25.2857143 2.80532731 24.5311721 2.81547561 24.5311721 3.13311727 25.2802416 3.46665794 25.0876726 2.95856658 24.4453198 2.95856658 24.4347166 3.75757576 24.5311721 3.75757576 24.1672406 2.95856658 24.2739574"></polygon>
                        <polygon id="Path" fill="url(#linearGradient)" points="18.2403396 11.751942 17.9886008 12.0783683 18.1395853 12.1746032 18.3117194 11.7973862 18.3170068 11.7973862 18.4756287 12.17193 18.6424754 12.0756951 18.3883867 11.7543181 18.3883867 11.7489718 18.7878788 11.7973862 18.7878788 11.6153122 18.3883867 11.668776 18.3883867 11.6634296 18.6398317 11.3289837 18.4812098 11.2380952 18.3196505 11.612639 18.3143631 11.612639 18.1504539 11.2404714 17.9886008 11.3343301 18.2376959 11.6607564 18.2376959 11.6661028 17.8484848 11.6153122 17.8484848 11.7973862 18.2403396 11.7465956"></polygon>
                        <polygon id="Path" fill="url(#linearGradient)" points="29.5130669 0.513846727 29.2613281 0.840273058 29.4123126 0.936507937 29.5844467 0.559290975 29.5897341 0.559290975 29.748356 0.933834745 29.9152027 0.837599867 29.661114 0.516222897 29.661114 0.510876515 30.0606061 0.559290975 30.0606061 0.377216961 29.661114 0.430680783 29.661114 0.425334401 29.912559 0.0908884962 29.7539371 0 29.5923778 0.37454377 29.5870904 0.37454377 29.4231812 0.00237616984 29.2613281 0.0962348783 29.5104232 0.42266121 29.5104232 0.428007592 29.1212121 0.377216961 29.1212121 0.559290975 29.5130669 0.508500345"></polygon>
                        <polygon id="Path" fill="url(#linearGradient)" points="47.9090909 22.6578437 47.9090909 22.2941886 47.1100543 22.401228 47.1100543 22.3904195 47.6132025 21.7216845 47.295588 21.5396825 46.9728007 22.28861 46.9617652 22.28861 46.633805 21.5449125 46.3106728 21.732493 46.8083033 22.3851895 46.8083033 22.3959981 46.030303 22.2941886 46.030303 22.6578437 46.8134762 22.5563829 46.8134762 22.5671914 46.3106728 23.219888 46.6124238 23.4126984 46.9565924 22.6578437 46.9669381 22.6578437 47.2845526 23.4071198 47.6180305 23.214658 47.1100543 22.5724214 47.1100543 22.5616128"></polygon>
                        <polygon id="Path" fill="url(#linearGradient)" points="17.0494004 0.425409842 17.552276 0.0909427215 17.2348807 0 16.9118891 0.374481918 16.9014958 0.374481918 16.5733075 0.00262723418 16.2503159 0.0963992848 16.7479948 0.422782608 16.7479948 0.428037076 15.969697 0.377311247 15.969697 0.55919669 16.7531915 0.508268766 16.7531915 0.513725329 16.2503159 0.840108652 16.5517215 0.936507937 16.8962992 0.55919669 16.9062927 0.55919669 17.2240877 0.933678607 17.5574726 0.837481418 17.0494004 0.516352563 17.0494004 0.510896 17.8484848 0.55919669 17.8484848 0.377311247 17.0494004 0.43066431"></polygon>
                        <path d="M43.5734282,56.1904762 L40.9720263,56.1904762 C40.6455493,56.2100356 40.3939394,56.4138412 40.3939394,56.6587302 C40.3939394,56.9036191 40.6455493,57.1074247 40.9720263,57.1269841 L43.5734282,57.1269841 C43.8999052,57.1074247 44.1515152,56.9036191 44.1515152,56.6587302 C44.1515152,56.4138412 43.8999052,56.2100356 43.5734282,56.1904762 L43.5734282,56.1904762 Z" id="Path" fill="url(#linearGradient)"></path>
                        <path d="M21.0279737,56.1904762 L18.4265718,56.1904762 C18.1000948,56.2100356 17.8484848,56.4138412 17.8484848,56.6587302 C17.8484848,56.9036191 18.1000948,57.1074247 18.4265718,57.1269841 L21.0279737,57.1269841 C21.3544507,57.1074247 21.6060606,56.9036191 21.6060606,56.6587302 C21.6060606,56.4138412 21.3544507,56.2100356 21.0279737,56.1904762 L21.0279737,56.1904762 Z" id="Path" fill="url(#linearGradient)"></path>
                        <path d="M38.6859504,55.2539683 L23.3140496,55.2539683 C22.8895663,55.2539683 22.5454545,55.5893994 22.5454545,56.0031746 C22.5454545,56.4169498 22.8895663,56.752381 23.3140496,56.752381 L29.4397521,56.752381 L29.4397521,57.5015873 L26.3884298,57.5015873 C25.9639464,57.5015873 25.6198347,57.8370184 25.6198347,58.2507937 C25.6198347,58.6645689 25.9639464,59 26.3884298,59 L35.9958678,59 C36.4203511,59 36.7644628,58.6645689 36.7644628,58.2507937 C36.7644628,57.8370184 36.4203511,57.5015873 35.9958678,57.5015873 L32.5602479,57.5015873 L32.5602479,56.752381 L38.6859504,56.752381 C39.1104337,56.752381 39.4545455,56.4169498 39.4545455,56.0031746 C39.4545455,55.5893994 39.1104337,55.2539683 38.6859504,55.2539683 Z" id="Path" fill="url(#linearGradient)"></path>
                    </g>
                </g>
            </g>
        </g>
    </g>
</svg>