<svg id="pic" xmlns="http://www.w3.org/2000/svg" width="411" height="222" viewBox="0 0 411 222">
  <path id="Path" d="M411,141.939a64.552,64.552,0,0,1-9.384,33.633c0,17.949-12.15,33.461-29.787,40.842A60.252,60.252,0,0,1,348.574,221H78.022a75.234,75.234,0,0,1-38.851-10.519,66.732,66.732,0,0,1-8.921-6.409C18.035,193.6,10.462,179.137,10.462,163.159A64.757,64.757,0,0,1,37.921,68.933a62.815,62.815,0,0,1,9.165-3.267q1.663-.451,3.363-.81A63.178,63.178,0,0,1,59.613,63.6q1.671-.1,3.359-.118h.618c1.243,0,2.475.043,3.7.115l.4-.681q.74-1.232,1.516-2.44,1.4-2.2,2.939-4.335,1.61-2.253,3.359-4.435l.3-.358q.992-1.232,2.026-2.436,3.233-3.758,6.826-7.291C110.564,16.3,151.15,0,196.777,0c35.5,0,67.955,9.87,92.813,26.178a62.713,62.713,0,0,1,30.875-8.093c35.115,0,63.59,28.793,63.59,64.311a66.055,66.055,0,0,1-.359,6.728A64.432,64.432,0,0,1,411,141.939Z" transform="translate(0 0)" fill="#93b5b3" opacity="0.1"/>
  <path id="Path-2" data-name="Path" d="M6,0V7H0Q2.82,3.4,6,0Z" transform="translate(78 42)" fill="#93b5b3" opacity="0.2"/>
  <rect id="Rectangle" width="9" height="9" transform="translate(88 40)" fill="#93b5b3" opacity="0.2"/>
  <rect id="Rectangle-2" data-name="Rectangle" width="9" height="9" transform="translate(100 40)" fill="#93b5b3" opacity="0.2"/>
  <rect id="Rectangle-3" data-name="Rectangle" width="9" height="9" transform="translate(113 40)" fill="#93b5b3" opacity="0.2"/>
  <rect id="Rectangle-4" data-name="Rectangle" width="9" height="9" transform="translate(125 40)" fill="#93b5b3" opacity="0.2"/>
  <rect id="Rectangle-5" data-name="Rectangle" width="9" height="9" transform="translate(138 40)" fill="#93b5b3" opacity="0.2"/>
  <rect id="Rectangle-6" data-name="Rectangle" width="9" height="9" transform="translate(151 40)" fill="#93b5b3"/>
  <rect id="Rectangle-7" data-name="Rectangle" width="9" height="9" transform="translate(163 40)" fill="#93b5b3" opacity="0.2"/>
  <rect id="Rectangle-8" data-name="Rectangle" width="9" height="9" transform="translate(176 40)" fill="#93b5b3" opacity="0.2"/>
  <rect id="Rectangle-9" data-name="Rectangle" width="9" height="9" transform="translate(188 40)" fill="#93b5b3" opacity="0.2"/>
  <rect id="Rectangle-10" data-name="Rectangle" width="9" height="9" transform="translate(201 40)" fill="#93b5b3"/>
  <rect id="Rectangle-11" data-name="Rectangle" width="9" height="9" transform="translate(214 40)" fill="#93b5b3" opacity="0.2"/>
  <rect id="Rectangle-12" data-name="Rectangle" width="9" height="9" transform="translate(226 40)" fill="#93b5b3" opacity="0.2"/>
  <rect id="Rectangle-13" data-name="Rectangle" width="9" height="9" transform="translate(239 40)" fill="#93b5b3" opacity="0.2"/>
  <rect id="Rectangle-14" data-name="Rectangle" width="9" height="9" transform="translate(251 40)" fill="#93b5b3" opacity="0.2"/>
  <rect id="Rectangle-15" data-name="Rectangle" width="9" height="9" transform="translate(264 40)" fill="#93b5b3" opacity="0.2"/>
  <rect id="Rectangle-16" data-name="Rectangle" width="9" height="9" transform="translate(276 40)" fill="#93b5b3" opacity="0.2"/>
  <rect id="Rectangle-17" data-name="Rectangle" width="9" height="9" transform="translate(289 40)" fill="#93b5b3"/>
  <rect id="Rectangle-18" data-name="Rectangle" width="9" height="9" transform="translate(302 40)" fill="#93b5b3"/>
  <rect id="Rectangle-19" data-name="Rectangle" width="9" height="9" transform="translate(314 40)" fill="#93b5b3" opacity="0.2"/>
  <rect id="Rectangle-20" data-name="Rectangle" width="9" height="9" transform="translate(326 40)" fill="#93b5b3" opacity="0.2"/>
  <rect id="Rectangle-21" data-name="Rectangle" width="9" height="9" transform="translate(339 40)" fill="#93b5b3"/>
  <rect id="Rectangle-22" data-name="Rectangle" width="9" height="9" transform="translate(351 40)" fill="#93b5b3"/>
  <path id="Path-3" data-name="Path" d="M3,0V5H0Q1.43,2.446,3,0Z" transform="translate(69 56)" fill="#93b5b3"/>
  <rect id="Rectangle-23" data-name="Rectangle" width="9" height="9" transform="translate(76 51)" fill="#93b5b3" opacity="0.2"/>
  <rect id="Rectangle-24" data-name="Rectangle" width="9" height="9" transform="translate(88 51)" fill="#93b5b3"/>
  <rect id="Rectangle-25" data-name="Rectangle" width="9" height="9" transform="translate(100 51)" fill="#93b5b3" opacity="0.2"/>
  <rect id="Rectangle-26" data-name="Rectangle" width="9" height="9" transform="translate(113 51)" fill="#93b5b3" opacity="0.7"/>
  <rect id="Rectangle-27" data-name="Rectangle" width="9" height="9" transform="translate(125 51)" fill="#93b5b3" opacity="0.2"/>
  <rect id="Rectangle-28" data-name="Rectangle" width="9" height="9" transform="translate(138 51)" fill="#93b5b3" opacity="0.4"/>
  <rect id="Rectangle-29" data-name="Rectangle" width="9" height="9" transform="translate(151 51)" fill="#93b5b3"/>
  <rect id="Rectangle-30" data-name="Rectangle" width="9" height="9" transform="translate(163 51)" fill="#93b5b3" opacity="0.4"/>
  <rect id="Rectangle-31" data-name="Rectangle" width="9" height="9" transform="translate(176 51)" fill="#93b5b3" opacity="0.2"/>
  <rect id="Rectangle-32" data-name="Rectangle" width="9" height="9" transform="translate(188 51)" fill="#93b5b3" opacity="0.4"/>
  <rect id="Rectangle-33" data-name="Rectangle" width="9" height="9" transform="translate(201 51)" fill="#93b5b3"/>
  <rect id="Rectangle-34" data-name="Rectangle" width="9" height="9" transform="translate(214 51)" fill="#93b5b3" opacity="0.4"/>
  <rect id="Rectangle-35" data-name="Rectangle" width="9" height="9" transform="translate(226 51)" fill="#93b5b3" opacity="0.4"/>
  <rect id="Rectangle-36" data-name="Rectangle" width="9" height="9" transform="translate(239 51)" fill="#93b5b3" opacity="0.2"/>
  <rect id="Rectangle-37" data-name="Rectangle" width="9" height="9" transform="translate(251 51)" fill="#93b5b3" opacity="0.4"/>
  <rect id="Rectangle-38" data-name="Rectangle" width="9" height="9" transform="translate(264 51)" fill="#93b5b3" opacity="0.4"/>
  <rect id="Rectangle-39" data-name="Rectangle" width="9" height="9" transform="translate(276 51)" fill="#93b5b3" opacity="0.2"/>
  <rect id="Rectangle-40" data-name="Rectangle" width="9" height="9" transform="translate(289 51)" fill="#93b5b3" opacity="0.2"/>
  <rect id="Rectangle-41" data-name="Rectangle" width="9" height="9" transform="translate(302 51)" fill="#93b5b3" opacity="0.4"/>
  <rect id="Rectangle-42" data-name="Rectangle" width="9" height="9" transform="translate(314 51)" fill="#93b5b3" opacity="0.2"/>
  <rect id="Rectangle-43" data-name="Rectangle" width="9" height="9" transform="translate(326 51)" fill="#93b5b3"/>
  <rect id="Rectangle-44" data-name="Rectangle" width="9" height="9" transform="translate(339 51)" fill="#93b5b3"/>
  <rect id="Rectangle-45" data-name="Rectangle" width="9" height="9" transform="translate(351 51)" fill="#93b5b3"/>
  <path id="Path-4" data-name="Path" d="M9,0V6H0V3.069A63.558,63.558,0,0,1,9,0Z" transform="translate(38 66)" fill="#93b5b3" opacity="0.2"/>
  <path id="Path-5" data-name="Path" d="M9,0V9H0V1.335L9,0Z" transform="translate(51 63)" fill="#93b5b3" opacity="0.2"/>
  <rect id="Rectangle-46" data-name="Rectangle" width="9" height="9" transform="translate(63 63)" fill="#93b5b3"/>
  <rect id="Rectangle-47" data-name="Rectangle" width="9" height="9" transform="translate(76 63)" fill="#93b5b3" opacity="0.7"/>
  <rect id="Rectangle-48" data-name="Rectangle" width="9" height="9" transform="translate(88 63)" fill="#93b5b3"/>
  <rect id="Rectangle-49" data-name="Rectangle" width="9" height="9" transform="translate(100 63)" fill="#93b5b3" opacity="0.7"/>
  <rect id="Rectangle-50" data-name="Rectangle" width="9" height="9" transform="translate(113 63)" fill="#93b5b3" opacity="0.7"/>
  <rect id="Rectangle-51" data-name="Rectangle" width="9" height="9" transform="translate(125 63)" fill="#93b5b3" opacity="0.2"/>
  <rect id="Rectangle-52" data-name="Rectangle" width="9" height="9" transform="translate(138 63)" fill="#93b5b3" opacity="0.4"/>
  <rect id="Rectangle-53" data-name="Rectangle" width="9" height="9" transform="translate(151 63)" fill="#93b5b3" opacity="0.4"/>
  <rect id="Rectangle-54" data-name="Rectangle" width="9" height="9" transform="translate(163 63)" fill="#93b5b3"/>
  <rect id="Rectangle-55" data-name="Rectangle" width="9" height="9" transform="translate(176 63)" fill="#93b5b3" opacity="0.2"/>
  <rect id="Rectangle-56" data-name="Rectangle" width="9" height="9" transform="translate(188 63)" fill="#93b5b3" opacity="0.4"/>
  <rect id="Rectangle-57" data-name="Rectangle" width="9" height="9" transform="translate(201 63)" fill="#93b5b3"/>
  <rect id="Rectangle-58" data-name="Rectangle" width="9" height="9" transform="translate(214 63)" fill="#93b5b3" opacity="0.2"/>
  <rect id="Rectangle-59" data-name="Rectangle" width="9" height="9" transform="translate(226 63)" fill="#93b5b3" opacity="0.4"/>
  <rect id="Rectangle-60" data-name="Rectangle" width="9" height="9" transform="translate(239 63)" fill="#93b5b3" opacity="0.2"/>
  <rect id="Rectangle-61" data-name="Rectangle" width="9" height="9" transform="translate(251 63)" fill="#93b5b3"/>
  <rect id="Rectangle-62" data-name="Rectangle" width="9" height="9" transform="translate(264 63)" fill="#93b5b3" opacity="0.2"/>
  <rect id="Rectangle-63" data-name="Rectangle" width="9" height="9" transform="translate(276 63)" fill="#93b5b3" opacity="0.7"/>
  <rect id="Rectangle-64" data-name="Rectangle" width="9" height="9" transform="translate(289 63)" fill="#93b5b3" opacity="0.7"/>
  <rect id="Rectangle-65" data-name="Rectangle" width="9" height="9" transform="translate(302 63)" fill="#93b5b3" opacity="0.4"/>
  <rect id="Rectangle-66" data-name="Rectangle" width="9" height="9" transform="translate(314 63)" fill="#93b5b3" opacity="0.2"/>
  <rect id="Rectangle-67" data-name="Rectangle" width="9" height="9" transform="translate(326 63)" fill="#93b5b3"/>
  <rect id="Rectangle-68" data-name="Rectangle" width="9" height="9" transform="translate(339 63)" fill="#93b5b3"/>
  <rect id="Rectangle-69" data-name="Rectangle" width="9" height="9" transform="translate(351 63)" fill="#93b5b3"/>
  <rect id="Rectangle-70" data-name="Rectangle" width="9" height="9" transform="translate(38 75)" fill="#93b5b3" opacity="0.2"/>
  <rect id="Rectangle-71" data-name="Rectangle" width="9" height="9" transform="translate(51 75)" fill="#93b5b3" opacity="0.2"/>
  <rect id="Rectangle-72" data-name="Rectangle" width="9" height="9" transform="translate(63 75)" fill="#93b5b3" opacity="0.2"/>
  <rect id="Rectangle-73" data-name="Rectangle" width="9" height="9" transform="translate(76 75)" fill="#93b5b3" opacity="0.2"/>
  <rect id="Rectangle-74" data-name="Rectangle" width="9" height="9" transform="translate(88 75)" fill="#93b5b3"/>
  <rect id="Rectangle-75" data-name="Rectangle" width="9" height="9" transform="translate(100 75)" fill="#93b5b3" opacity="0.7"/>
  <rect id="Rectangle-76" data-name="Rectangle" width="9" height="9" transform="translate(113 75)" fill="#93b5b3" opacity="0.7"/>
  <rect id="Rectangle-77" data-name="Rectangle" width="9" height="9" transform="translate(125 75)" fill="#93b5b3" opacity="0.2"/>
  <rect id="Rectangle-78" data-name="Rectangle" width="9" height="9" transform="translate(138 75)" fill="#93b5b3" opacity="0.2"/>
  <rect id="Rectangle-79" data-name="Rectangle" width="9" height="9" transform="translate(151 75)" fill="#93b5b3" opacity="0.4"/>
  <rect id="Rectangle-80" data-name="Rectangle" width="9" height="9" transform="translate(163 75)" fill="#93b5b3" opacity="0.4"/>
  <rect id="Rectangle-81" data-name="Rectangle" width="9" height="9" transform="translate(176 75)" fill="#93b5b3"/>
  <rect id="Rectangle-82" data-name="Rectangle" width="9" height="9" transform="translate(188 75)" fill="#93b5b3" opacity="0.2"/>
  <rect id="Rectangle-83" data-name="Rectangle" width="9" height="9" transform="translate(201 75)" fill="#93b5b3" opacity="0.4"/>
  <rect id="Rectangle-84" data-name="Rectangle" width="9" height="9" transform="translate(214 75)" fill="#93b5b3" opacity="0.4"/>
  <rect id="Rectangle-85" data-name="Rectangle" width="9" height="9" transform="translate(226 75)" fill="#93b5b3" opacity="0.4"/>
  <rect id="Rectangle-86" data-name="Rectangle" width="9" height="9" transform="translate(239 75)" fill="#93b5b3" opacity="0.4"/>
  <rect id="Rectangle-87" data-name="Rectangle" width="9" height="9" transform="translate(251 75)" fill="#93b5b3" opacity="0.2"/>
  <rect id="Rectangle-88" data-name="Rectangle" width="9" height="9" transform="translate(264 75)" fill="#93b5b3" opacity="0.2"/>
  <rect id="Rectangle-89" data-name="Rectangle" width="9" height="9" transform="translate(276 75)" fill="#93b5b3" opacity="0.2"/>
  <rect id="Rectangle-90" data-name="Rectangle" width="9" height="9" transform="translate(289 75)" fill="#93b5b3" opacity="0.2"/>
  <rect id="Rectangle-91" data-name="Rectangle" width="9" height="9" transform="translate(302 75)" fill="#93b5b3" opacity="0.7"/>
  <rect id="Rectangle-92" data-name="Rectangle" width="9" height="9" transform="translate(314 75)" fill="#93b5b3" opacity="0.7"/>
  <rect id="Rectangle-93" data-name="Rectangle" width="9" height="9" transform="translate(326 75)" fill="#93b5b3" opacity="0.4"/>
  <rect id="Rectangle-94" data-name="Rectangle" width="9" height="9" transform="translate(339 75)" fill="#93b5b3" opacity="0.2"/>
  <rect id="Rectangle-95" data-name="Rectangle" width="9" height="9" transform="translate(351 75)" fill="#93b5b3"/>
  <rect id="Rectangle-96" data-name="Rectangle" width="9" height="9" transform="translate(38 87)" fill="#93b5b3" opacity="0.2"/>
  <rect id="Rectangle-97" data-name="Rectangle" width="9" height="9" transform="translate(51 87)" fill="#93b5b3" opacity="0.2"/>
  <rect id="Rectangle-98" data-name="Rectangle" width="9" height="9" transform="translate(63 87)" fill="#93b5b3" opacity="0.4"/>
  <rect id="Rectangle-99" data-name="Rectangle" width="9" height="9" transform="translate(76 87)" fill="#93b5b3" opacity="0.2"/>
  <rect id="Rectangle-100" data-name="Rectangle" width="9" height="9" transform="translate(88 87)" fill="#93b5b3" opacity="0.2"/>
  <rect id="Rectangle-101" data-name="Rectangle" width="9" height="9" transform="translate(100 87)" fill="#93b5b3" opacity="0.7"/>
  <rect id="Rectangle-102" data-name="Rectangle" width="9" height="9" transform="translate(113 87)" fill="#93b5b3" opacity="0.7"/>
  <rect id="Rectangle-103" data-name="Rectangle" width="9" height="9" transform="translate(125 87)" fill="#93b5b3" opacity="0.2"/>
  <rect id="Rectangle-104" data-name="Rectangle" width="9" height="9" transform="translate(138 87)" fill="#93b5b3" opacity="0.2"/>
  <rect id="Rectangle-105" data-name="Rectangle" width="9" height="9" transform="translate(151 87)" fill="#93b5b3" opacity="0.4"/>
  <rect id="Rectangle-106" data-name="Rectangle" width="9" height="9" transform="translate(163 87)" fill="#93b5b3"/>
  <rect id="Rectangle-107" data-name="Rectangle" width="9" height="9" transform="translate(176 87)" fill="#93b5b3" opacity="0.2"/>
  <rect id="Rectangle-108" data-name="Rectangle" width="9" height="9" transform="translate(188 87)" fill="#93b5b3"/>
  <rect id="Rectangle-109" data-name="Rectangle" width="9" height="9" transform="translate(201 87)" fill="#93b5b3"/>
  <rect id="Rectangle-110" data-name="Rectangle" width="9" height="9" transform="translate(214 87)" fill="#93b5b3"/>
  <rect id="Rectangle-111" data-name="Rectangle" width="9" height="9" transform="translate(226 87)" fill="#93b5b3" opacity="0.2"/>
  <rect id="Rectangle-112" data-name="Rectangle" width="9" height="9" transform="translate(239 87)" fill="#93b5b3"/>
  <rect id="Rectangle-113" data-name="Rectangle" width="9" height="9" transform="translate(251 87)" fill="#93b5b3" opacity="0.2"/>
  <rect id="Rectangle-114" data-name="Rectangle" width="9" height="9" transform="translate(264 87)" fill="#93b5b3" opacity="0.2"/>
  <rect id="Rectangle-115" data-name="Rectangle" width="9" height="9" transform="translate(276 87)" fill="#93b5b3" opacity="0.2"/>
  <rect id="Rectangle-116" data-name="Rectangle" width="9" height="9" transform="translate(289 87)" fill="#93b5b3" opacity="0.2"/>
  <rect id="Rectangle-117" data-name="Rectangle" width="9" height="9" transform="translate(302 87)" fill="#93b5b3" opacity="0.2"/>
  <rect id="Rectangle-118" data-name="Rectangle" width="9" height="9" transform="translate(314 87)" fill="#93b5b3" opacity="0.7"/>
  <rect id="Rectangle-119" data-name="Rectangle" width="9" height="9" transform="translate(326 87)" fill="#93b5b3" opacity="0.2"/>
  <rect id="Rectangle-120" data-name="Rectangle" width="9" height="9" transform="translate(339 87)" fill="#93b5b3" opacity="0.2"/>
  <rect id="Rectangle-121" data-name="Rectangle" width="9" height="9" transform="translate(351 87)" fill="#93b5b3"/>
  <rect id="Rectangle-122" data-name="Rectangle" width="9" height="9" transform="translate(38 98)" fill="#93b5b3" opacity="0.2"/>
  <rect id="Rectangle-123" data-name="Rectangle" width="9" height="9" transform="translate(51 98)" fill="#93b5b3" opacity="0.2"/>
  <rect id="Rectangle-124" data-name="Rectangle" width="9" height="9" transform="translate(63 98)" fill="#93b5b3" opacity="0.2"/>
  <rect id="Rectangle-125" data-name="Rectangle" width="9" height="9" transform="translate(76 98)" fill="#93b5b3" opacity="0.4"/>
  <rect id="Rectangle-126" data-name="Rectangle" width="9" height="9" transform="translate(88 98)" fill="#93b5b3" opacity="0.2"/>
  <rect id="Rectangle-127" data-name="Rectangle" width="9" height="9" transform="translate(100 98)" fill="#93b5b3" opacity="0.2"/>
  <rect id="Rectangle-128" data-name="Rectangle" width="9" height="9" transform="translate(113 98)" fill="#93b5b3" opacity="0.7"/>
  <rect id="Rectangle-129" data-name="Rectangle" width="9" height="9" transform="translate(125 98)" fill="#93b5b3" opacity="0.2"/>
  <rect id="Rectangle-130" data-name="Rectangle" width="9" height="9" transform="translate(138 98)" fill="#93b5b3" opacity="0.2"/>
  <rect id="Rectangle-131" data-name="Rectangle" width="9" height="9" transform="translate(151 98)" fill="#93b5b3" opacity="0.2"/>
  <rect id="Rectangle-132" data-name="Rectangle" width="9" height="9" transform="translate(163 98)" fill="#93b5b3"/>
  <rect id="Rectangle-133" data-name="Rectangle" width="9" height="9" transform="translate(176 98)" fill="#93b5b3" opacity="0.2"/>
  <rect id="Rectangle-134" data-name="Rectangle" width="9" height="9" transform="translate(188 98)" fill="#93b5b3"/>
  <rect id="Rectangle-135" data-name="Rectangle" width="9" height="9" transform="translate(201 98)" fill="#93b5b3"/>
  <rect id="Rectangle-136" data-name="Rectangle" width="9" height="9" transform="translate(214 98)" fill="#93b5b3" opacity="0.2"/>
  <rect id="Rectangle-137" data-name="Rectangle" width="9" height="9" transform="translate(226 98)" fill="#93b5b3" opacity="0.2"/>
  <rect id="Rectangle-138" data-name="Rectangle" width="9" height="9" transform="translate(239 98)" fill="#93b5b3" opacity="0.2"/>
  <rect id="Rectangle-139" data-name="Rectangle" width="9" height="9" transform="translate(251 98)" fill="#93b5b3" opacity="0.2"/>
  <rect id="Rectangle-140" data-name="Rectangle" width="9" height="9" transform="translate(264 98)" fill="#93b5b3" opacity="0.2"/>
  <rect id="Rectangle-141" data-name="Rectangle" width="9" height="9" transform="translate(276 98)" fill="#93b5b3" opacity="0.2"/>
  <rect id="Rectangle-142" data-name="Rectangle" width="9" height="9" transform="translate(289 98)" fill="#93b5b3" opacity="0.2"/>
  <rect id="Rectangle-143" data-name="Rectangle" width="9" height="9" transform="translate(302 98)" fill="#93b5b3" opacity="0.2"/>
  <rect id="Rectangle-144" data-name="Rectangle" width="9" height="9" transform="translate(314 98)" fill="#93b5b3" opacity="0.2"/>
  <rect id="Rectangle-145" data-name="Rectangle" width="9" height="9" transform="translate(326 98)" fill="#93b5b3" opacity="0.2"/>
  <rect id="Rectangle-146" data-name="Rectangle" width="9" height="9" transform="translate(339 98)" fill="#93b5b3" opacity="0.4"/>
  <rect id="Rectangle-147" data-name="Rectangle" width="9" height="9" transform="translate(351 98)" fill="#93b5b3"/>
  <rect id="Rectangle-148" data-name="Rectangle" width="9" height="9" transform="translate(38 109)" fill="#93b5b3" opacity="0.7"/>
  <rect id="Rectangle-149" data-name="Rectangle" width="9" height="9" transform="translate(51 109)" fill="#93b5b3" opacity="0.7"/>
  <rect id="Rectangle-150" data-name="Rectangle" width="9" height="9" transform="translate(63 109)" fill="#93b5b3" opacity="0.7"/>
  <rect id="Rectangle-151" data-name="Rectangle" width="9" height="9" transform="translate(76 109)" fill="#93b5b3" opacity="0.7"/>
  <rect id="Rectangle-152" data-name="Rectangle" width="9" height="9" transform="translate(88 109)" fill="#93b5b3" opacity="0.7"/>
  <rect id="Rectangle-153" data-name="Rectangle" width="9" height="9" transform="translate(100 109)" fill="#93b5b3" opacity="0.2"/>
  <rect id="Rectangle-154" data-name="Rectangle" width="9" height="9" transform="translate(113 109)" fill="#93b5b3" opacity="0.2"/>
  <rect id="Rectangle-155" data-name="Rectangle" width="9" height="9" transform="translate(125 109)" fill="#93b5b3" opacity="0.2"/>
  <rect id="Rectangle-156" data-name="Rectangle" width="9" height="9" transform="translate(138 109)" fill="#93b5b3" opacity="0.2"/>
  <rect id="Rectangle-157" data-name="Rectangle" width="9" height="9" transform="translate(151 109)" fill="#93b5b3" opacity="0.2"/>
  <rect id="Rectangle-158" data-name="Rectangle" width="9" height="9" transform="translate(163 109)" fill="#93b5b3" opacity="0.2"/>
  <rect id="Rectangle-159" data-name="Rectangle" width="9" height="9" transform="translate(176 109)" fill="#93b5b3"/>
  <rect id="Rectangle-160" data-name="Rectangle" width="9" height="9" transform="translate(188 109)" fill="#93b5b3" opacity="0.2"/>
  <rect id="Rectangle-161" data-name="Rectangle" width="9" height="9" transform="translate(201 109)" fill="#93b5b3" opacity="0.2"/>
  <rect id="Rectangle-162" data-name="Rectangle" width="9" height="9" transform="translate(214 109)" fill="#93b5b3" opacity="0.2"/>
  <rect id="Rectangle-163" data-name="Rectangle" width="9" height="9" transform="translate(226 109)" fill="#93b5b3"/>
  <rect id="Rectangle-164" data-name="Rectangle" width="9" height="9" transform="translate(239 109)" fill="#93b5b3" opacity="0.2"/>
  <rect id="Rectangle-165" data-name="Rectangle" width="9" height="9" transform="translate(251 109)" fill="#93b5b3" opacity="0.2"/>
  <rect id="Rectangle-166" data-name="Rectangle" width="9" height="9" transform="translate(264 109)" fill="#93b5b3" opacity="0.2"/>
  <rect id="Rectangle-167" data-name="Rectangle" width="9" height="9" transform="translate(276 109)" fill="#93b5b3" opacity="0.2"/>
  <rect id="Rectangle-168" data-name="Rectangle" width="9" height="9" transform="translate(289 109)" fill="#93b5b3" opacity="0.2"/>
  <rect id="Rectangle-169" data-name="Rectangle" width="9" height="9" transform="translate(302 109)" fill="#93b5b3" opacity="0.2"/>
  <rect id="Rectangle-170" data-name="Rectangle" width="9" height="9" transform="translate(314 109)" fill="#93b5b3" opacity="0.2"/>
  <rect id="Rectangle-171" data-name="Rectangle" width="9" height="9" transform="translate(326 109)" fill="#93b5b3" opacity="0.2"/>
  <rect id="Rectangle-172" data-name="Rectangle" width="9" height="9" transform="translate(339 109)" fill="#93b5b3" opacity="0.2"/>
  <rect id="Rectangle-173" data-name="Rectangle" width="9" height="9" transform="translate(351 109)" fill="#93b5b3"/>
  <circle id="Oval" cx="12.5" cy="12.5" r="12.5" transform="translate(252 118)" fill="#767d9f"/>
  <path id="Path-6" data-name="Path" d="M.32,9.539q1.868,8.139,3.17,16.4a9.539,9.539,0,0,1-.1,4.909,16.968,16.968,0,0,1-2.3,3.426,4.35,4.35,0,0,0-.912,3.869,4.491,4.491,0,0,0,3.238,2.365c3.85,1.036,7.954.282,11.786-.84a19.082,19.082,0,0,0,4.941-2.044,18.479,18.479,0,0,0,4.179-3.93C29.9,26.931,33.558,18.814,37,10.747A14.007,14.007,0,0,1,25.154,5.981C23.744,4.327,22.71,2.022,23.5,0c-2.329,1.275-5.095,1.361-7.6,2.233a27.025,27.025,0,0,0-4.472,2.2Q8.86,5.913,6.32,7.453C4.384,8.617,2.57,9.654.32,9.539Z" transform="translate(263 105)" fill="#ffb369"/>
  <path id="Path-7" data-name="Path" d="M54.023,11.559c-2.2,4.27-5.054,8.376-9.134,10.919s-9.572,3.232-13.66.718c-2.013-1.228-3.537-3.1-5.295-4.669s-3.954-2.92-6.316-2.715c-2.6.226-4.641,2.256-6.384,4.2a49.894,49.894,0,0,0-7.074,9.525C2.567,36.252,1.715,44.1,1.873,51.717S3.135,66.906,3.16,74.52C3.2,83.887,1.607,93.179,0,102.406c14.774-1.817,29.566,2.155,44.372,3.66a272.259,272.259,0,0,0,28.548.927,8.65,8.65,0,0,0,4.853-.97,6.538,6.538,0,0,0,2.009-2.385,22.807,22.807,0,0,0,2.211-7.923,160.293,160.293,0,0,0,.985-20.86c.065-16.881.126-33.822-2.02-50.57A47.632,47.632,0,0,0,78.172,12.17,19.007,19.007,0,0,0,70.4,2.706C68.082,1.377,62.708-.936,59.976.4,56.91,1.9,55.494,8.7,54.023,11.559Z" transform="translate(236 113)" fill="#767d9f"/>
  <path id="Path-8" data-name="Path" d="M3.177,62C2.613,51.617.314,40.533,5.206,31.314c1.2-2.263-3.111-5.089-1.778-7.281a32.679,32.679,0,0,0,3.664-8.57,6.361,6.361,0,0,0,.237-3.17C6.845,10.4,4.94,9.271,3.323,8.118,1.538,6.843.62,2.957.045.855S4.623,1.285,6.7.536C9.574-.5,13.231.153,16.1,1.2a15.949,15.949,0,0,0,5.052.673,67.691,67.691,0,0,0,9.941-.233,25.138,25.138,0,0,1,4.448-.376c3.792.211,7.088,2.761,9.332,5.777s3.672,6.529,5.511,9.8c1.534,2.722,3.362,5.293,4.67,8.126a49.433,49.433,0,0,1,2.615,7.879l1.869,6.873A9.019,9.019,0,0,1,60,42.764a8.556,8.556,0,0,1-1.093,3.1,58.692,58.692,0,0,1-6.8,10.2c-3.93,4.738-8.7,9.011-11.037,14.684a36.6,36.6,0,0,0-1.88,6.9A249.525,249.525,0,0,0,35.217,106a64.209,64.209,0,0,0-13.3-4.373,65.721,65.721,0,0,0-6.921-1.074c-2.036-.208-4.663.186-6.6-.358-3.242-.906-3.6-6.3-4.091-9.118A81.892,81.892,0,0,1,3.33,77.467C3.294,72.3,3.458,67.149,3.177,62Z" transform="translate(287 109)" fill="#4c4981"/>
  <path id="Path-9" data-name="Path" d="M30.617,4.833C32.11,13.424,33.755,22.04,37,30.112c-.082.079-.163.15-.245.222-.287.247-.585.48-.9.716a11.954,11.954,0,0,0-2.128,1.625,2.869,2.869,0,0,0-.532.877,1.979,1.979,0,0,0,0,1.6c-1.691.755-3.656.523-5.553.451a7.228,7.228,0,0,0-4.532.906c-1.823,1.267-2.372,3.7-2.667,5.914q-.163,1.21-.28,2.423-.113,1.128-.184,2.262a68.155,68.155,0,0,0-.067,7.517q.028.687.074,1.375C14.2,55.86,8.916,52.811,3.919,49.847a8.882,8.882,0,0,1-3.06-2.506A5.7,5.7,0,0,1,.04,43.657,4.107,4.107,0,0,1,.1,43.113a15,15,0,0,1,.812-3.107,38.456,38.456,0,0,1,6.8-11.688c1.269-1.5,2.7-2.96,3.291-4.84.259-.82.355-1.69.617-2.506,1.177-3.537,5.425-5.208,6.879-8.641a26.375,26.375,0,0,1,.957-2.506,6.291,6.291,0,0,1,1.507-1.7c.259-.218.528-.43.794-.641q3.737-2.957,7.2-6.246Q29.607.626,30.238,0a21.489,21.489,0,0,0,.379,4.833Z" transform="translate(190 147)" fill="#4c4981"/>
  <path id="Path-10" data-name="Path" d="M36.383,7.849c-.515.548-1.072,1.063-1.619,1.574l-.147.133-.579.54a14.019,14.019,0,0,0-2.7,3.166l-.061.1c-1.823,3.289-1.147,7.337-.64,11.073a94.931,94.931,0,0,1,.847,14.048c-.093,6.484-.851,12.924-.865,19.4q0,2.2.1,4.405c.1,2.388.282,4.773.5,7.157.232,2.615.511,5.227.772,7.838.207,2.021.4,4.038.568,6.055.082,1.045.161,2.086.225,3.13.075,1.225.136,2.453.172,3.678h0c.025.778.039,1.552.039,2.331V93.8q0,1.264-.068,2.521-.071,1.617-.218,3.242a5.282,5.282,0,0,1-1.129,3.292c-.05.05-.1.1-.157.144l-1.158-.144a118.017,118.017,0,0,0-24.055-.432c.175-1.217.336-2.431.493-3.652.071-.576.143-1.156.211-1.736q.118-.994.225-1.988.123-1.081.229-2.161.279-2.784.49-5.572.311-4.067.472-8.148.079-1.949.122-3.9.061-2.421.057-4.845,0-2.356-.039-4.719c0-.519-.021-1.037-.064-1.552a9.923,9.923,0,0,0-.189-1.38,18.056,18.056,0,0,0-1.072-3.055c-.079-.187-.154-.36-.229-.558-.043-.1-.082-.2-.122-.3A26.93,26.93,0,0,0,11.72,52.1c2.284-3.923,4.622-8.018,5-12.549s-1.852-9.621-6.148-11a29.655,29.655,0,0,0-3.61-.674A15.769,15.769,0,0,1,2.145,26.4Q1.072,27.505,0,28.575a8.028,8.028,0,0,1,.776-3.137l.508.025a.983.983,0,0,1-.057-.36,1.9,1.9,0,0,1,.829-1.3c1.684-1.441,4.332-1.761,5.394-3.71a27.213,27.213,0,0,0,.876-2.626c1.026-2.424,3.971-3.317,5.744-5.255s2.216-4.683,3.649-6.844a10.249,10.249,0,0,1,4.289-3.6c.143-.068.29-.137.436-.2A24.58,24.58,0,0,1,32.008,0a20.023,20.023,0,0,1,5.8.645,1.9,1.9,0,0,1,.661.407C40.09,2.824,37.577,6.567,36.383,7.849Z" transform="translate(220 119)" fill="#4c4981"/>
  <path id="Path-11" data-name="Path" d="M6.554.915A21.11,21.11,0,0,1,22.919,2.638a15.552,15.552,0,0,1,6.169,5.939c2.083,3.823,1.992,8.431,1.845,12.8a15.764,15.764,0,0,1-1.12,6.406,12.95,12.95,0,0,1-5.3,5.1,14.707,14.707,0,0,1-4.313,1.887,18.309,18.309,0,0,1-7.167-.354c-2.577-.481-5.343-1.062-7.132-3A12.355,12.355,0,0,1,3.7,27.393q-1.222-3.1-2.451-6.187c-1.418-3.578-1.9-6.555-.025-10.041C2.08,9.576,3.12,8.089,3.96,6.489,4.38,5.675,5.886,1.124,6.554.915Z" transform="translate(215 144)" fill="#4c4981"/>
  <path id="Path-12" data-name="Path" d="M333,21.372V32.214a59.736,59.736,0,0,1-23.278,4.641H212.735c-.05.051-.1.1-.158.145l-1.165-.145H38.89A74.681,74.681,0,0,1,0,26.209V9.656L82.972,0h.065l48.319,4.126,12.5,1.088,6.495.555L163.8,6.918l6.916.591,10.069.863,1.417.12,7.257.62,9.846.816,13.845,1.182,23.081,1.976,16.237,1.389,26.662,2.281,5.071.431.547.047.475.04,6.7.573,7.351.631.852.073Z" transform="translate(39 185)" fill="#504f60"/>
  <path id="Path-13" data-name="Path" d="M108,17.155,4.031,0,0,19.707l47.659,5.517L62.333,27,102.7,19.314l5.3-2.159Z" transform="translate(166 188)" fill="#9c9ca1"/>
  <path id="Path-14" data-name="Path" d="M0,9.746,51.873.032A1.789,1.789,0,0,1,54,1.791h0a1.786,1.786,0,0,1-1.465,1.759L1.876,13Z" transform="translate(221 205)" fill="#9c9ca1"/>
  <path id="Path-15" data-name="Path" d="M40.44,6.95a13.4,13.4,0,0,0,4.713-1.123c1.794-.894,3.189-2.433,4.85-3.567A14.437,14.437,0,0,1,62.726.852,20.5,20.5,0,0,1,72.853,9.075c1.625,2.458,2.845,5.6,1.7,8.308a10.95,10.95,0,0,1-1.478,2.311L70.08,23.606a10.406,10.406,0,0,1-2.03,2.186,8.624,8.624,0,0,1-3.881,1.349c-3.641.531-7.346.23-11.016.474-6.3.42-12.458,2.451-18.775,2.383a56.559,56.559,0,0,1-10.761-1.5l-15.7-3.23c-2.733-.56-5.822-1.378-7.11-3.858a8.948,8.948,0,0,1-.753-3.664c-.187-3.46,0-7.307,2.4-9.8C4.7,5.6,8.265,4.861,10.955,3.131c3.293-2.121,4.38-1.436,7.852.158A43.024,43.024,0,0,0,40.44,6.95Z" transform="translate(203 178)" fill="rgba(255,179,105,0.9)"/>
  <path id="Path-16" data-name="Path" d="M40.44,6.95a13.4,13.4,0,0,0,4.713-1.123c1.794-.894,3.189-2.433,4.85-3.567A14.437,14.437,0,0,1,62.726.852,20.5,20.5,0,0,1,72.853,9.075c1.625,2.458,2.845,5.6,1.7,8.308a10.95,10.95,0,0,1-1.478,2.311L70.08,23.606a10.406,10.406,0,0,1-2.03,2.186,8.624,8.624,0,0,1-3.881,1.349c-3.641.531-7.346.23-11.016.474-6.3.42-12.458,2.451-18.775,2.383a56.559,56.559,0,0,1-10.761-1.5l-15.7-3.23c-2.733-.56-5.822-1.378-7.11-3.858a8.948,8.948,0,0,1-.753-3.664c-.187-3.46,0-7.307,2.4-9.8C4.7,5.6,8.265,4.861,10.955,3.131c3.293-2.121,4.38-1.436,7.852.158A43.024,43.024,0,0,0,40.44,6.95Z" transform="translate(203 178)" fill="#ffb369" opacity="0.05"/>
  <path id="Path-17" data-name="Path" d="M92.8,1.879A91.435,91.435,0,0,1,79.367,6.412C71.64,8.155,63.554,7.88,55.888,9.873c-4.05,1.057-8.075,2.76-12.236,2.415a35.923,35.923,0,0,1-5.466-1.175C28.018,8.544,16.46,9.377,8.2,15.984A37.892,37.892,0,0,0,.97,24.059a5.5,5.5,0,0,0-.787,4.526,5.363,5.363,0,0,0,2.906,3.5,30.471,30.471,0,0,0,10.172,2.778c4.706.426,9.433-.257,14.114-.94,6.946-1.009,13.9-2.022,20.823-3.157,2.487-.407,4.975-.83,7.476-1.153,18-2.331,36.331.5,54.381-1.442a16.288,16.288,0,0,0,5.34-1.252c4.2-2.019,6.279-7.341,5.412-12.017s-4.215-8.563-8.243-10.949c-3.376-2.008-7.018-2.819-10.777-3.67C98.294-.544,96.165.557,92.8,1.879Z" transform="translate(213 177)" fill="#ffb369"/>
  <path id="Path-18" data-name="Path" d="M46.765,15.321c1.978,2.608,2.4,6.107,2.185,9.373s-.985,6.5-1.1,9.775c-.157,4.5.921,8.981.739,13.465a38.953,38.953,0,0,1-1.742,9.222c-1.032,3.553-2.524,7.372-5.783,9.078-4.327,2.267-13.4.992-17.953,2.766.414-2.6,4.384-6.359,4.8-8.956a16.829,16.829,0,0,0,.268-5.443,12.059,12.059,0,0,0-3.32-6.028,17.491,17.491,0,0,0-9.449-5.389c-3.623-.661-12.495-.119-15.393,2.184C-.343,42.99,6.3,40.7,8.632,40.185c1.164-.262,2.5-.115,3.431-.859,1.785-1.408.489-4.214.575-6.467.068-1.8,1.11-3.442,1.321-5.238.357-2.874-1.506-5.8-.775-8.622a22.437,22.437,0,0,1,1.292-2.949c1.271-3.036.714-6.5.036-9.725C14.09,4.3,13.679,2.014,14.8.286c1.039-1.613,3.988,4.131,5.876,3.866,6.237-.88,11.881-5.532,16.918-1.724,2.567,1.94,2.9,3.952,3.927,6.722C42.517,11.786,45.1,13.137,46.765,15.321Z" transform="translate(298 137)" opacity="0.1"/>
  <path id="Path-19" data-name="Path" d="M46.765,17.643c1.978,2.592,2.4,6.071,2.185,9.317s-.985,6.456-1.1,9.717c-.157,4.471.921,8.927.739,13.384a38.512,38.512,0,0,1-1.742,9.167c-1.032,3.532-2.524,7.328-5.783,9.024-4.327,2.253-13.4.986-17.953,2.75.414-2.582,4.384-6.321,4.8-8.9a16.629,16.629,0,0,0,.268-5.41,11.966,11.966,0,0,0-3.32-5.992,17.517,17.517,0,0,0-9.449-5.356C11.784,44.682,2.913,45.221.014,47.51c-.357-2.364,6.283-4.642,8.618-5.153,1.164-.261,2.5-.114,3.431-.853,1.785-1.4.489-4.189.575-6.428.068-1.785,1.11-3.421,1.321-5.206.357-2.857-1.506-5.767-.775-8.57a22.234,22.234,0,0,1,1.292-2.932c1.271-3.017.714-6.46.036-9.667-.421-2.014-.832-4.285.289-6C15.839,1.1,17.87.488,19.759.221A24.42,24.42,0,0,1,37.608,4.827c2.567,1.928,2.9,3.928,3.927,6.681C42.517,14.129,45.1,15.472,46.765,17.643Z" transform="translate(300 134)" fill="#4c4981"/>
  <path id="Path-20" data-name="Path" d="M.158,12.112,19.781,84.235a4.523,4.523,0,0,0,3.938,3.306l88.321,8.438a4.538,4.538,0,0,0,3.858-1.537,4.483,4.483,0,0,0,.971-4.019l-21.488-87A4.523,4.523,0,0,0,90.645.013L4.175,6.445A4.531,4.531,0,0,0,.827,8.339,4.481,4.481,0,0,0,.158,12.112Z" transform="translate(108 123)" fill="#9c9ca1"/>
  <ellipse id="Oval-2" data-name="Oval" cx="9.5" cy="10" rx="9.5" ry="10" transform="translate(273 130)" fill="#fff"/>
  <path id="Path-21" data-name="Path" d="M4.777.157s2.052,6.137-4,8.718L0,10.236,3.793,14S8.468,5.42,7.962,2.373C7.962,2.373,7.238-.721,4.777.157Z" transform="translate(286 121)" fill="#fff"/>
  <ellipse id="Oval-3" data-name="Oval" cx="9" cy="9.5" rx="9" ry="9.5" transform="translate(275 130)" fill="#93b5b3"/>
  <path id="Path-22" data-name="Path" d="M11.65,19l-1.457-2.477-2.122-.31c.453-8.157-1.6-10.588-1.6-10.588l-.477-.047L3.912,5.37,0,1.188V0C5.5.674,8.534,3.363,10.175,6.514,13.075,12.045,11.65,19,11.65,19Z" transform="translate(282 106)" fill="#93b5b3"/>
  <path id="Path-23" data-name="Path" d="M6,3.29V5L3.917,4.763,0,0S6.06,1.589,6,3.29Z" transform="translate(283 107)" stroke="#4c4981" stroke-miterlimit="10" stroke-width="1" opacity="0.1"/>
  <path id="Path-24" data-name="Path" d="M1.611,12,0,9.616V0C3.186,5.308,1.611,12,1.611,12Z" transform="translate(293 113)" stroke="#4c4981" stroke-miterlimit="10" stroke-width="1" opacity="0.1"/>
  <ellipse id="Oval-4" data-name="Oval" cx="5.186" cy="9.456" rx="5.186" ry="9.456" transform="translate(252.855 129.78) rotate(-30)" fill="#fff"/>
  <path id="Path-25" data-name="Path" d="M9.871,7.346c2.55,4.526,5.678,7.549,3.258,8.987s-9.469.719-12.019-3.81S.876,1.738,3.3.3,7.318,2.81,9.871,7.346Z" transform="translate(254 127)" fill="#93b5b3"/>
  <path id="Path-26" data-name="Path" d="M51,23.805C51,38.163,41.015,52,26.423,52A26.214,26.214,0,0,1,0,26,26.214,26.214,0,0,1,26.423,0C41.015.014,51,9.444,51,23.805Z" transform="translate(236 78)" opacity="0.1"/>
  <circle id="Oval-5" data-name="Oval" cx="26" cy="26" r="26" transform="translate(237 77)" fill="#ffb369"/>
  <path id="Path-27" data-name="Path" d="M35.032,33.826c3.135,1.137,4.989,4.33,7.8,6.109,3.977,2.495,9.154,1.85,13.7.617,2.531-.681,5.177-1.511,7.668-.756a2.2,2.2,0,0,0,1.168.164c.542-.153.81-.745.987-1.272,3.08-9.053,1.7-19.307-2.954-27.682a17.938,17.938,0,0,0-4.621-5.749,19.383,19.383,0,0,0-5.25-2.612A53.047,53.047,0,0,0,43.088.1,6.578,6.578,0,0,0,41.182.042a8.04,8.04,0,0,0-2.43,1.016,25.144,25.144,0,0,1-10.8,2.89C22.9,4.138,17.111,2.961,13.21,6.162,8.51,10,9.681,17.489,6.633,22.7,4.616,26.146.725,28.648.086,32.572a8.988,8.988,0,0,0,.228,3.589A14.771,14.771,0,0,0,14.052,46.985a5.277,5.277,0,0,0,2.806-.567,6.308,6.308,0,0,0,1.479-1.386C22.476,40.2,27.212,30.989,35.032,33.826Z" transform="translate(225 58)" fill="#444053"/>
  <path id="Path-28" data-name="Path" d="M66.35,8.971c-.177.533-.445,1.13-.987,1.285A2.178,2.178,0,0,1,64.2,10.09c-2.491-.763-5.151.076-7.663.763C51.989,12.1,46.8,12.763,42.84,10.23c-2.816-1.8-4.667-5.038-7.8-6.167-7.819-2.879-12.554,6.434-16.7,11.313a6.332,6.332,0,0,1-1.478,1.4,5.232,5.232,0,0,1-2.8.572A14.836,14.836,0,0,1,.313,6.419C.23,6.06.158,5.7.1,5.34a.174.174,0,0,1-.018.094A9.16,9.16,0,0,0,.313,9.057,14.8,14.8,0,0,0,14.049,19.985a5.232,5.232,0,0,0,2.8-.572,6.332,6.332,0,0,0,1.478-1.4c4.15-4.879,8.885-14.177,16.7-11.313,3.138,1.148,4.988,4.372,7.8,6.167,3.976,2.519,9.149,1.868,13.692.623,2.53-.687,5.173-1.526,7.663-.763a2.178,2.178,0,0,0,1.168.166c.542-.155.81-.752.987-1.285A32.352,32.352,0,0,0,67.969,0,31.823,31.823,0,0,1,66.35,8.971Z" transform="translate(225 85)" opacity="0.1"/>
</svg>
